<svg width="1259" height="526" viewBox="0 0 1259 526" fill="none" xmlns="http://www.w3.org/2000/svg">
<g filter="url(#filter0_d_68_329)">
<g filter="url(#filter1_d_68_329)">
<rect x="50" y="46" width="1159" height="426" rx="30" fill="#F2F3F2"/>
<line x1="631.5" y1="67.5" x2="631.5" y2="448.5" stroke="#0071B8" stroke-width="5" stroke-linecap="round"/>
</g>
<path d="M114.1 159.24C113.78 158.653 113.34 158.207 112.78 157.9C112.22 157.593 111.567 157.44 110.82 157.44C109.993 157.44 109.26 157.627 108.62 158C107.98 158.373 107.48 158.907 107.12 159.6C106.76 160.293 106.58 161.093 106.58 162C106.58 162.933 106.76 163.747 107.12 164.44C107.493 165.133 108.007 165.667 108.66 166.04C109.313 166.413 110.073 166.6 110.94 166.6C112.007 166.6 112.88 166.32 113.56 165.76C114.24 165.187 114.687 164.393 114.9 163.38H110.1V161.24H117.66V163.68C117.473 164.653 117.073 165.553 116.46 166.38C115.847 167.207 115.053 167.873 114.08 168.38C113.12 168.873 112.04 169.12 110.84 169.12C109.493 169.12 108.273 168.82 107.18 168.22C106.1 167.607 105.247 166.76 104.62 165.68C104.007 164.6 103.7 163.373 103.7 162C103.7 160.627 104.007 159.4 104.62 158.32C105.247 157.227 106.1 156.38 107.18 155.78C108.273 155.167 109.487 154.86 110.82 154.86C112.393 154.86 113.76 155.247 114.92 156.02C116.08 156.78 116.88 157.853 117.32 159.24H114.1ZM128.292 166.34H122.732L121.812 169H118.872L123.892 155.02H127.152L132.172 169H129.212L128.292 166.34ZM127.532 164.1L125.512 158.26L123.492 164.1H127.532ZM136.848 166.78H141.448V169H134.048V155.04H136.848V166.78ZM149.708 169.14C148.401 169.14 147.201 168.833 146.108 168.22C145.014 167.607 144.148 166.76 143.508 165.68C142.868 164.587 142.548 163.353 142.548 161.98C142.548 160.62 142.868 159.4 143.508 158.32C144.148 157.227 145.014 156.373 146.108 155.76C147.201 155.147 148.401 154.84 149.708 154.84C151.028 154.84 152.228 155.147 153.308 155.76C154.401 156.373 155.261 157.227 155.888 158.32C156.528 159.4 156.848 160.62 156.848 161.98C156.848 163.353 156.528 164.587 155.888 165.68C155.261 166.76 154.401 167.607 153.308 168.22C152.214 168.833 151.014 169.14 149.708 169.14ZM149.708 166.64C150.548 166.64 151.288 166.453 151.928 166.08C152.568 165.693 153.068 165.147 153.428 164.44C153.788 163.733 153.968 162.913 153.968 161.98C153.968 161.047 153.788 160.233 153.428 159.54C153.068 158.833 152.568 158.293 151.928 157.92C151.288 157.547 150.548 157.36 149.708 157.36C148.868 157.36 148.121 157.547 147.468 157.92C146.828 158.293 146.328 158.833 145.968 159.54C145.608 160.233 145.428 161.047 145.428 161.98C145.428 162.913 145.608 163.733 145.968 164.44C146.328 165.147 146.828 165.693 147.468 166.08C148.121 166.453 148.868 166.64 149.708 166.64ZM170.871 169H168.071L161.731 159.42V169H158.931V155.02H161.731L168.071 164.62V155.02H170.871V169ZM109.045 184.346C109.556 184.441 109.977 184.697 110.306 185.113C110.635 185.529 110.8 186.006 110.8 186.543C110.8 187.028 110.679 187.457 110.436 187.83C110.202 188.194 109.86 188.48 109.409 188.688C108.958 188.896 108.425 189 107.81 189H103.897V179.926H107.641C108.256 179.926 108.785 180.026 109.227 180.225C109.678 180.424 110.016 180.702 110.241 181.057C110.475 181.412 110.592 181.815 110.592 182.266C110.592 182.795 110.449 183.237 110.163 183.592C109.886 183.947 109.513 184.199 109.045 184.346ZM105.717 183.67H107.381C107.814 183.67 108.148 183.575 108.382 183.384C108.616 183.185 108.733 182.903 108.733 182.539C108.733 182.175 108.616 181.893 108.382 181.694C108.148 181.495 107.814 181.395 107.381 181.395H105.717V183.67ZM107.55 187.518C107.992 187.518 108.334 187.414 108.577 187.206C108.828 186.998 108.954 186.703 108.954 186.322C108.954 185.932 108.824 185.629 108.564 185.412C108.304 185.187 107.953 185.074 107.511 185.074H105.717V187.518H107.55ZM117.815 187.271H114.201L113.603 189H111.692L114.955 179.913H117.074L120.337 189H118.413L117.815 187.271ZM117.321 185.815L116.008 182.019L114.695 185.815H117.321ZM126.236 189L124.234 185.464H123.376V189H121.556V179.926H124.962C125.664 179.926 126.262 180.052 126.756 180.303C127.25 180.546 127.619 180.879 127.861 181.304C128.113 181.72 128.238 182.188 128.238 182.708C128.238 183.306 128.065 183.848 127.718 184.333C127.372 184.81 126.856 185.139 126.171 185.321L128.342 189H126.236ZM123.376 184.099H124.897C125.391 184.099 125.76 183.982 126.002 183.748C126.245 183.505 126.366 183.172 126.366 182.747C126.366 182.331 126.245 182.01 126.002 181.785C125.76 181.551 125.391 181.434 124.897 181.434H123.376V184.099ZM131.678 179.926V185.542C131.678 186.157 131.839 186.63 132.159 186.959C132.48 187.28 132.931 187.44 133.511 187.44C134.101 187.44 134.556 187.28 134.876 186.959C135.197 186.63 135.357 186.157 135.357 185.542V179.926H137.19V185.529C137.19 186.3 137.021 186.955 136.683 187.492C136.354 188.021 135.908 188.419 135.344 188.688C134.79 188.957 134.17 189.091 133.485 189.091C132.809 189.091 132.194 188.957 131.639 188.688C131.093 188.419 130.66 188.021 130.339 187.492C130.019 186.955 129.858 186.3 129.858 185.529V179.926H131.678ZM120.381 204.537H117.323L116.817 206H115.2L117.961 198.311H119.754L122.515 206H120.887L120.381 204.537ZM119.963 203.305L118.852 200.093L117.741 203.305H119.963ZM129.267 207.353L128.101 205.956C127.778 206.037 127.448 206.077 127.111 206.077C126.392 206.077 125.732 205.908 125.131 205.571C124.53 205.234 124.053 204.768 123.701 204.174C123.349 203.573 123.173 202.894 123.173 202.139C123.173 201.391 123.349 200.72 123.701 200.126C124.053 199.525 124.53 199.055 125.131 198.718C125.732 198.381 126.392 198.212 127.111 198.212C127.837 198.212 128.497 198.381 129.091 198.718C129.692 199.055 130.165 199.525 130.51 200.126C130.862 200.72 131.038 201.391 131.038 202.139C131.038 202.821 130.891 203.444 130.598 204.009C130.312 204.566 129.92 205.021 129.421 205.373L131.181 207.353H129.267ZM124.757 202.139C124.757 202.652 124.856 203.103 125.054 203.492C125.252 203.881 125.527 204.181 125.879 204.394C126.238 204.599 126.649 204.702 127.111 204.702C127.573 204.702 127.98 204.599 128.332 204.394C128.684 204.181 128.959 203.881 129.157 203.492C129.355 203.103 129.454 202.652 129.454 202.139C129.454 201.626 129.355 201.178 129.157 200.797C128.959 200.408 128.684 200.111 128.332 199.906C127.98 199.701 127.573 199.598 127.111 199.598C126.649 199.598 126.238 199.701 125.879 199.906C125.527 200.111 125.252 200.408 125.054 200.797C124.856 201.178 124.757 201.626 124.757 202.139ZM133.723 198.322V203.074C133.723 203.595 133.859 203.994 134.13 204.273C134.402 204.544 134.783 204.68 135.274 204.68C135.773 204.68 136.158 204.544 136.429 204.273C136.701 203.994 136.836 203.595 136.836 203.074V198.322H138.387V203.063C138.387 203.716 138.244 204.269 137.958 204.724C137.68 205.171 137.302 205.509 136.825 205.736C136.356 205.963 135.832 206.077 135.252 206.077C134.68 206.077 134.16 205.963 133.69 205.736C133.228 205.509 132.862 205.171 132.59 204.724C132.319 204.269 132.183 203.716 132.183 203.063V198.322H133.723ZM144.583 204.537H141.525L141.019 206H139.402L142.163 198.311H143.956L146.717 206H145.089L144.583 204.537ZM144.165 203.305L143.054 200.093L141.943 203.305H144.165ZM116.49 219.15C116.49 218.395 116.659 217.72 116.996 217.126C117.341 216.525 117.807 216.059 118.393 215.729C118.987 215.392 119.651 215.223 120.384 215.223C121.242 215.223 121.994 215.443 122.639 215.883C123.285 216.323 123.736 216.932 123.992 217.709H122.221C122.045 217.342 121.796 217.067 121.473 216.884C121.158 216.701 120.791 216.609 120.373 216.609C119.926 216.609 119.526 216.715 119.174 216.928C118.83 217.133 118.558 217.427 118.36 217.808C118.17 218.189 118.074 218.637 118.074 219.15C118.074 219.656 118.17 220.103 118.36 220.492C118.558 220.873 118.83 221.17 119.174 221.383C119.526 221.588 119.926 221.691 120.373 221.691C120.791 221.691 121.158 221.599 121.473 221.416C121.796 221.225 122.045 220.947 122.221 220.58H123.992C123.736 221.365 123.285 221.977 122.639 222.417C122.001 222.85 121.25 223.066 120.384 223.066C119.651 223.066 118.987 222.901 118.393 222.571C117.807 222.234 117.341 221.768 116.996 221.174C116.659 220.58 116.49 219.905 116.49 219.15ZM126.848 221.779H129.378V223H125.308V215.322H126.848V221.779ZM131.875 215.322V220.074C131.875 220.595 132.01 220.994 132.282 221.273C132.553 221.544 132.934 221.68 133.426 221.68C133.924 221.68 134.309 221.544 134.581 221.273C134.852 220.994 134.988 220.595 134.988 220.074V215.322H136.539V220.063C136.539 220.716 136.396 221.269 136.11 221.724C135.831 222.171 135.453 222.509 134.977 222.736C134.507 222.963 133.983 223.077 133.404 223.077C132.832 223.077 132.311 222.963 131.842 222.736C131.38 222.509 131.013 222.171 130.742 221.724C130.47 221.269 130.335 220.716 130.335 220.063V215.322H131.875ZM142.383 219.062C142.815 219.143 143.171 219.359 143.45 219.711C143.728 220.063 143.868 220.466 143.868 220.921C143.868 221.332 143.765 221.695 143.56 222.01C143.362 222.318 143.072 222.56 142.691 222.736C142.309 222.912 141.858 223 141.338 223H138.027V215.322H141.195C141.715 215.322 142.163 215.406 142.537 215.575C142.918 215.744 143.204 215.978 143.395 216.279C143.593 216.58 143.692 216.921 143.692 217.302C143.692 217.749 143.571 218.123 143.329 218.424C143.094 218.725 142.779 218.937 142.383 219.062ZM139.567 218.49H140.975C141.341 218.49 141.624 218.409 141.822 218.248C142.02 218.079 142.119 217.841 142.119 217.533C142.119 217.225 142.02 216.987 141.822 216.818C141.624 216.649 141.341 216.565 140.975 216.565H139.567V218.49ZM141.118 221.746C141.492 221.746 141.781 221.658 141.987 221.482C142.199 221.306 142.306 221.057 142.306 220.734C142.306 220.404 142.196 220.147 141.976 219.964C141.756 219.773 141.459 219.678 141.085 219.678H139.567V221.746H141.118ZM123.761 232.322L120.945 240H119.075L116.259 232.322H117.909L120.021 238.427L122.122 232.322H123.761ZM126.225 232.322V240H124.685V232.322H126.225ZM132.971 232.322V233.565H130.925V240H129.385V233.565H127.339V232.322H132.971ZM118.404 255.779H120.934V257H116.864V249.322H118.404V255.779ZM123.453 250.565V252.49H126.038V253.711H123.453V255.746H126.368V257H121.913V249.311H126.368V250.565H123.453ZM138.76 249.322V257H137.22V252.006L135.163 257H133.997L131.929 252.006V257H130.389V249.322H132.138L134.58 255.031L137.022 249.322H138.76ZM141.822 249.322V257H140.282V249.322H141.822ZM149.911 257H148.371L144.884 251.731V257H143.344V249.311H144.884L148.371 254.591V249.311H149.911V257ZM152.973 250.565V252.49H155.558V253.711H152.973V255.746H155.888V257H151.433V249.311H155.888V250.565H152.973ZM161.247 257L159.553 254.008H158.827V257H157.287V249.322H160.169C160.763 249.322 161.269 249.428 161.687 249.641C162.105 249.846 162.417 250.129 162.622 250.488C162.835 250.84 162.941 251.236 162.941 251.676C162.941 252.182 162.795 252.64 162.501 253.051C162.208 253.454 161.772 253.733 161.192 253.887L163.029 257H161.247ZM158.827 252.853H160.114C160.532 252.853 160.844 252.754 161.049 252.556C161.255 252.351 161.357 252.068 161.357 251.709C161.357 251.357 161.255 251.086 161.049 250.895C160.844 250.697 160.532 250.598 160.114 250.598H158.827V252.853ZM169.042 255.537H165.984L165.478 257H163.861L166.622 249.311H168.415L171.176 257H169.548L169.042 255.537ZM168.624 254.305L167.513 251.093L166.402 254.305H168.624ZM173.748 255.779H176.278V257H172.208V249.322H173.748V255.779ZM182.54 259.167C181.829 258.478 181.275 257.598 180.879 256.527C180.49 255.456 180.296 254.309 180.296 253.084C180.296 251.83 180.501 250.653 180.912 249.553C181.323 248.446 181.92 247.54 182.705 246.836H184.256V246.979C183.449 247.749 182.833 248.673 182.408 249.751C181.99 250.829 181.781 251.94 181.781 253.084C181.781 254.199 181.979 255.277 182.375 256.318C182.778 257.352 183.35 258.25 184.091 259.013V259.167H182.54ZM184.854 250.4V248.981H187.505V257H185.921V250.4H184.854ZM194.416 250.312H190.852V252.193C191.006 252.002 191.226 251.848 191.512 251.731C191.798 251.606 192.103 251.544 192.425 251.544C193.012 251.544 193.492 251.672 193.866 251.929C194.24 252.186 194.512 252.516 194.68 252.919C194.849 253.315 194.933 253.74 194.933 254.195C194.933 255.038 194.691 255.717 194.207 256.23C193.731 256.743 193.049 257 192.161 257C191.325 257 190.658 256.791 190.159 256.373C189.661 255.955 189.378 255.409 189.312 254.734H190.808C190.874 255.027 191.021 255.262 191.248 255.438C191.483 255.614 191.78 255.702 192.139 255.702C192.572 255.702 192.898 255.566 193.118 255.295C193.338 255.024 193.448 254.664 193.448 254.217C193.448 253.762 193.335 253.418 193.107 253.183C192.887 252.941 192.561 252.82 192.128 252.82C191.82 252.82 191.564 252.897 191.358 253.051C191.153 253.205 191.006 253.41 190.918 253.667H189.444V248.959H194.416V250.312ZM197.821 255.779H200.351V257H196.281V249.322H197.821V255.779ZM200.934 259.167V259.013C201.675 258.25 202.243 257.352 202.639 256.318C203.043 255.277 203.244 254.199 203.244 253.084C203.244 251.94 203.032 250.829 202.606 249.751C202.188 248.673 201.576 247.749 200.769 246.979V246.836H202.32C203.105 247.54 203.703 248.446 204.113 249.553C204.524 250.653 204.729 251.83 204.729 253.084C204.729 254.309 204.531 255.456 204.135 256.527C203.747 257.598 203.197 258.478 202.485 259.167H200.934ZM116.49 270.15C116.49 269.395 116.659 268.72 116.996 268.126C117.341 267.525 117.807 267.059 118.393 266.729C118.987 266.392 119.651 266.223 120.384 266.223C121.242 266.223 121.994 266.443 122.639 266.883C123.285 267.323 123.736 267.932 123.992 268.709H122.221C122.045 268.342 121.796 268.067 121.473 267.884C121.158 267.701 120.791 267.609 120.373 267.609C119.926 267.609 119.526 267.715 119.174 267.928C118.83 268.133 118.558 268.427 118.36 268.808C118.17 269.189 118.074 269.637 118.074 270.15C118.074 270.656 118.17 271.103 118.36 271.492C118.558 271.873 118.83 272.17 119.174 272.383C119.526 272.588 119.926 272.691 120.373 272.691C120.791 272.691 121.158 272.599 121.473 272.416C121.796 272.225 122.045 271.947 122.221 271.58H123.992C123.736 272.365 123.285 272.977 122.639 273.417C122.001 273.85 121.25 274.066 120.384 274.066C119.651 274.066 118.987 273.901 118.393 273.571C117.807 273.234 117.341 272.768 116.996 272.174C116.659 271.58 116.49 270.905 116.49 270.15ZM126.848 272.779H129.378V274H125.308V266.322H126.848V272.779ZM131.897 267.565V269.49H134.482V270.711H131.897V272.746H134.812V274H130.357V266.311H134.812V267.565H131.897ZM139.775 274.077C139.056 274.077 138.396 273.908 137.795 273.571C137.194 273.234 136.717 272.768 136.365 272.174C136.013 271.573 135.837 270.894 135.837 270.139C135.837 269.391 136.013 268.72 136.365 268.126C136.717 267.525 137.194 267.055 137.795 266.718C138.396 266.381 139.056 266.212 139.775 266.212C140.501 266.212 141.161 266.381 141.755 266.718C142.356 267.055 142.829 267.525 143.174 268.126C143.526 268.72 143.702 269.391 143.702 270.139C143.702 270.894 143.526 271.573 143.174 272.174C142.829 272.768 142.356 273.234 141.755 273.571C141.154 273.908 140.494 274.077 139.775 274.077ZM139.775 272.702C140.237 272.702 140.644 272.599 140.996 272.394C141.348 272.181 141.623 271.881 141.821 271.492C142.019 271.103 142.118 270.652 142.118 270.139C142.118 269.626 142.019 269.178 141.821 268.797C141.623 268.408 141.348 268.111 140.996 267.906C140.644 267.701 140.237 267.598 139.775 267.598C139.313 267.598 138.902 267.701 138.543 267.906C138.191 268.111 137.916 268.408 137.718 268.797C137.52 269.178 137.421 269.626 137.421 270.139C137.421 270.652 137.52 271.103 137.718 271.492C137.916 271.881 138.191 272.181 138.543 272.394C138.902 272.599 139.313 272.702 139.775 272.702ZM150.131 276.167C149.42 275.478 148.866 274.598 148.47 273.527C148.081 272.456 147.887 271.309 147.887 270.084C147.887 268.83 148.092 267.653 148.503 266.553C148.914 265.446 149.511 264.54 150.296 263.836H151.847V263.979C151.04 264.749 150.424 265.673 149.999 266.751C149.581 267.829 149.372 268.94 149.372 270.084C149.372 271.199 149.57 272.277 149.966 273.318C150.369 274.352 150.941 275.25 151.682 276.013V276.167H150.131ZM152.445 267.4V265.981H155.096V274H153.512V267.4H152.445ZM158.399 271.745C158.458 272.068 158.59 272.317 158.795 272.493C159.008 272.662 159.29 272.746 159.642 272.746C160.097 272.746 160.427 272.559 160.632 272.185C160.838 271.804 160.94 271.166 160.94 270.271C160.772 270.506 160.533 270.689 160.225 270.821C159.925 270.953 159.598 271.019 159.246 271.019C158.777 271.019 158.352 270.924 157.97 270.733C157.596 270.535 157.299 270.245 157.079 269.864C156.859 269.475 156.749 269.006 156.749 268.456C156.749 267.642 156.991 266.997 157.475 266.52C157.959 266.036 158.619 265.794 159.455 265.794C160.497 265.794 161.23 266.128 161.655 266.795C162.088 267.462 162.304 268.467 162.304 269.809C162.304 270.762 162.22 271.543 162.051 272.152C161.89 272.761 161.608 273.223 161.204 273.538C160.808 273.853 160.266 274.011 159.576 274.011C159.034 274.011 158.572 273.908 158.19 273.703C157.809 273.49 157.516 273.215 157.31 272.878C157.112 272.533 156.999 272.156 156.969 271.745H158.399ZM159.565 269.765C159.947 269.765 160.247 269.648 160.467 269.413C160.687 269.178 160.797 268.863 160.797 268.467C160.797 268.034 160.68 267.701 160.445 267.466C160.218 267.224 159.906 267.103 159.51 267.103C159.114 267.103 158.799 267.228 158.564 267.477C158.337 267.719 158.223 268.042 158.223 268.445C158.223 268.834 158.333 269.153 158.553 269.402C158.781 269.644 159.118 269.765 159.565 269.765ZM165.219 272.779H167.749V274H163.679V266.322H165.219V272.779ZM168.332 276.167V276.013C169.072 275.25 169.641 274.352 170.037 273.318C170.44 272.277 170.642 271.199 170.642 270.084C170.642 268.94 170.429 267.829 170.004 266.751C169.586 265.673 168.973 264.749 168.167 263.979V263.836H169.718C170.502 264.54 171.1 265.446 171.511 266.553C171.921 267.653 172.127 268.83 172.127 270.084C172.127 271.309 171.929 272.456 171.533 273.527C171.144 274.598 170.594 275.478 169.883 276.167H168.332ZM105.717 299.926V309H103.897V299.926H105.717ZM110.648 309.091C110.015 309.091 109.443 308.983 108.932 308.766C108.429 308.549 108.031 308.237 107.736 307.83C107.441 307.423 107.29 306.942 107.281 306.387H109.231C109.257 306.76 109.387 307.054 109.621 307.271C109.864 307.488 110.193 307.596 110.609 307.596C111.034 307.596 111.367 307.496 111.61 307.297C111.853 307.089 111.974 306.82 111.974 306.491C111.974 306.222 111.892 306.001 111.727 305.828C111.562 305.655 111.354 305.52 111.103 305.425C110.86 305.321 110.522 305.208 110.089 305.087C109.5 304.914 109.019 304.745 108.646 304.58C108.282 304.407 107.966 304.151 107.697 303.813C107.437 303.466 107.307 303.007 107.307 302.435C107.307 301.898 107.441 301.43 107.71 301.031C107.979 300.632 108.356 300.329 108.841 300.121C109.326 299.904 109.881 299.796 110.505 299.796C111.441 299.796 112.199 300.026 112.78 300.485C113.369 300.936 113.694 301.568 113.755 302.383H111.753C111.736 302.071 111.601 301.815 111.35 301.616C111.107 301.408 110.782 301.304 110.375 301.304C110.02 301.304 109.734 301.395 109.517 301.577C109.309 301.759 109.205 302.023 109.205 302.37C109.205 302.613 109.283 302.816 109.439 302.981C109.604 303.137 109.803 303.267 110.037 303.371C110.28 303.466 110.618 303.579 111.051 303.709C111.64 303.882 112.121 304.056 112.494 304.229C112.867 304.402 113.187 304.662 113.456 305.009C113.725 305.356 113.859 305.811 113.859 306.374C113.859 306.859 113.733 307.31 113.482 307.726C113.231 308.142 112.862 308.476 112.377 308.727C111.892 308.97 111.315 309.091 110.648 309.091ZM117.257 299.926V309H115.437V299.926H117.257ZM123.947 299.926V305.542C123.947 306.157 124.107 306.63 124.428 306.959C124.749 307.28 125.199 307.44 125.78 307.44C126.369 307.44 126.824 307.28 127.145 306.959C127.466 306.63 127.626 306.157 127.626 305.542V299.926H129.459V305.529C129.459 306.3 129.29 306.955 128.952 307.492C128.623 308.021 128.176 308.419 127.613 308.688C127.058 308.957 126.439 309.091 125.754 309.091C125.078 309.091 124.463 308.957 123.908 308.688C123.362 308.419 122.929 308.021 122.608 307.492C122.287 306.955 122.127 306.3 122.127 305.529V299.926H123.947ZM133.037 307.557H136.027V309H131.217V299.926H133.037V307.557ZM142.748 307.271H139.134L138.536 309H136.625L139.888 299.913H142.007L145.27 309H143.346L142.748 307.271ZM142.254 305.815L140.941 302.019L139.628 305.815H142.254ZM154.251 309H152.431L148.31 302.773V309H146.49V299.913H148.31L152.431 306.153V299.913H154.251V309ZM162.367 302.656C162.159 302.275 161.873 301.984 161.509 301.785C161.145 301.586 160.721 301.486 160.235 301.486C159.698 301.486 159.221 301.607 158.805 301.85C158.389 302.093 158.064 302.439 157.83 302.89C157.596 303.341 157.479 303.861 157.479 304.45C157.479 305.057 157.596 305.585 157.83 306.036C158.073 306.487 158.407 306.833 158.831 307.076C159.256 307.319 159.75 307.44 160.313 307.44C161.007 307.44 161.574 307.258 162.016 306.894C162.458 306.521 162.749 306.006 162.887 305.347H159.767V303.956H164.681V305.542C164.56 306.175 164.3 306.76 163.901 307.297C163.503 307.834 162.987 308.268 162.354 308.597C161.73 308.918 161.028 309.078 160.248 309.078C159.373 309.078 158.58 308.883 157.869 308.493C157.167 308.094 156.613 307.544 156.205 306.842C155.807 306.14 155.607 305.343 155.607 304.45C155.607 303.557 155.807 302.76 156.205 302.058C156.613 301.347 157.167 300.797 157.869 300.407C158.58 300.008 159.369 299.809 160.235 299.809C161.258 299.809 162.146 300.06 162.9 300.563C163.654 301.057 164.174 301.755 164.46 302.656H162.367Z" fill="black"/>
<path d="M109.99 105.04H116.71V109H104.86V87.94H109.99V105.04ZM124.287 87.94V109H119.157V87.94H124.287ZM135.625 109.21C134.085 109.21 132.705 108.96 131.485 108.46C130.265 107.96 129.285 107.22 128.545 106.24C127.825 105.26 127.445 104.08 127.405 102.7H132.865C132.945 103.48 133.215 104.08 133.675 104.5C134.135 104.9 134.735 105.1 135.475 105.1C136.235 105.1 136.835 104.93 137.275 104.59C137.715 104.23 137.935 103.74 137.935 103.12C137.935 102.6 137.755 102.17 137.395 101.83C137.055 101.49 136.625 101.21 136.105 100.99C135.605 100.77 134.885 100.52 133.945 100.24C132.585 99.82 131.475 99.4 130.615 98.98C129.755 98.56 129.015 97.94 128.395 97.12C127.775 96.3 127.465 95.23 127.465 93.91C127.465 91.95 128.175 90.42 129.595 89.32C131.015 88.2 132.865 87.64 135.145 87.64C137.465 87.64 139.335 88.2 140.755 89.32C142.175 90.42 142.935 91.96 143.035 93.94H137.485C137.445 93.26 137.195 92.73 136.735 92.35C136.275 91.95 135.685 91.75 134.965 91.75C134.345 91.75 133.845 91.92 133.465 92.26C133.085 92.58 132.895 93.05 132.895 93.67C132.895 94.35 133.215 94.88 133.855 95.26C134.495 95.64 135.495 96.05 136.855 96.49C138.215 96.95 139.315 97.39 140.155 97.81C141.015 98.23 141.755 98.84 142.375 99.64C142.995 100.44 143.305 101.47 143.305 102.73C143.305 103.93 142.995 105.02 142.375 106C141.775 106.98 140.895 107.76 139.735 108.34C138.575 108.92 137.205 109.21 135.625 109.21ZM161.612 87.94V92.05H156.032V109H150.902V92.05H145.322V87.94H161.612ZM188.784 87.94V109H183.654V100.33H175.674V109H170.544V87.94H175.674V96.19H183.654V87.94H188.784ZM205.597 105.28H197.737L196.477 109H191.107L198.727 87.94H204.667L212.287 109H206.857L205.597 105.28ZM204.277 101.32L201.667 93.61L199.087 101.32H204.277ZM225.346 109L220.966 101.05H219.736V109H214.606V87.94H223.216C224.876 87.94 226.286 88.23 227.446 88.81C228.626 89.39 229.506 90.19 230.086 91.21C230.666 92.21 230.956 93.33 230.956 94.57C230.956 95.97 230.556 97.22 229.756 98.32C228.976 99.42 227.816 100.2 226.276 100.66L231.136 109H225.346ZM219.736 97.42H222.916C223.856 97.42 224.556 97.19 225.016 96.73C225.496 96.27 225.736 95.62 225.736 94.78C225.736 93.98 225.496 93.35 225.016 92.89C224.556 92.43 223.856 92.2 222.916 92.2H219.736V97.42ZM248.156 94.6C247.776 93.9 247.226 93.37 246.506 93.01C245.806 92.63 244.976 92.44 244.016 92.44C242.356 92.44 241.026 92.99 240.026 94.09C239.026 95.17 238.526 96.62 238.526 98.44C238.526 100.38 239.046 101.9 240.086 103C241.146 104.08 242.596 104.62 244.436 104.62C245.696 104.62 246.756 104.3 247.616 103.66C248.496 103.02 249.136 102.1 249.536 100.9H243.026V97.12H254.186V101.89C253.806 103.17 253.156 104.36 252.236 105.46C251.336 106.56 250.186 107.45 248.786 108.13C247.386 108.81 245.806 109.15 244.046 109.15C241.966 109.15 240.106 108.7 238.466 107.8C236.846 106.88 235.576 105.61 234.656 103.99C233.756 102.37 233.306 100.52 233.306 98.44C233.306 96.36 233.756 94.51 234.656 92.89C235.576 91.25 236.846 89.98 238.466 89.08C240.086 88.16 241.936 87.7 244.016 87.7C246.536 87.7 248.656 88.31 250.376 89.53C252.116 90.75 253.266 92.44 253.826 94.6H248.156ZM270.138 105.28H262.278L261.018 109H255.648L263.268 87.94H269.208L276.828 109H271.398L270.138 105.28ZM268.818 101.32L266.208 93.61L263.628 101.32H268.818Z" fill="#0071B8"/>
<path d="M726.26 169L721.18 162.78V169H718.38V155.04H721.18V161.3L726.26 155.04H729.64L723.88 161.96L729.8 169H726.26ZM740.202 166.34H734.642L733.722 169H730.782L735.802 155.02H739.062L744.082 169H741.122L740.202 166.34ZM739.442 164.1L737.422 158.26L735.402 164.1H739.442ZM753.158 169L750.078 163.56H748.758V169H745.958V155.04H751.198C752.278 155.04 753.198 155.233 753.958 155.62C754.718 155.993 755.285 156.507 755.658 157.16C756.045 157.8 756.238 158.52 756.238 159.32C756.238 160.24 755.971 161.073 755.438 161.82C754.905 162.553 754.111 163.06 753.058 163.34L756.398 169H753.158ZM748.758 161.46H751.098C751.858 161.46 752.425 161.28 752.798 160.92C753.171 160.547 753.358 160.033 753.358 159.38C753.358 158.74 753.171 158.247 752.798 157.9C752.425 157.54 751.858 157.36 751.098 157.36H748.758V161.46ZM763.651 155.04C765.117 155.04 766.404 155.327 767.511 155.9C768.631 156.473 769.491 157.293 770.091 158.36C770.704 159.413 771.011 160.64 771.011 162.04C771.011 163.44 770.704 164.667 770.091 165.72C769.491 166.76 768.631 167.567 767.511 168.14C766.404 168.713 765.117 169 763.651 169H758.771V155.04H763.651ZM763.551 166.62C765.017 166.62 766.151 166.22 766.951 165.42C767.751 164.62 768.151 163.493 768.151 162.04C768.151 160.587 767.751 159.453 766.951 158.64C766.151 157.813 765.017 157.4 763.551 157.4H761.571V166.62H763.551ZM775.867 155.04V163.68C775.867 164.627 776.113 165.353 776.607 165.86C777.1 166.353 777.793 166.6 778.687 166.6C779.593 166.6 780.293 166.353 780.787 165.86C781.28 165.353 781.527 164.627 781.527 163.68V155.04H784.347V163.66C784.347 164.847 784.087 165.853 783.567 166.68C783.06 167.493 782.373 168.107 781.507 168.52C780.653 168.933 779.7 169.14 778.647 169.14C777.607 169.14 776.66 168.933 775.807 168.52C774.967 168.107 774.3 167.493 773.807 166.68C773.313 165.853 773.067 164.847 773.067 163.66V155.04H775.867ZM791.872 169.14C790.899 169.14 790.019 168.973 789.232 168.64C788.459 168.307 787.845 167.827 787.392 167.2C786.939 166.573 786.705 165.833 786.692 164.98H789.692C789.732 165.553 789.932 166.007 790.292 166.34C790.665 166.673 791.172 166.84 791.812 166.84C792.465 166.84 792.979 166.687 793.352 166.38C793.725 166.06 793.912 165.647 793.912 165.14C793.912 164.727 793.785 164.387 793.532 164.12C793.279 163.853 792.959 163.647 792.572 163.5C792.199 163.34 791.679 163.167 791.012 162.98C790.105 162.713 789.365 162.453 788.792 162.2C788.232 161.933 787.745 161.54 787.332 161.02C786.932 160.487 786.732 159.78 786.732 158.9C786.732 158.073 786.939 157.353 787.352 156.74C787.765 156.127 788.345 155.66 789.092 155.34C789.839 155.007 790.692 154.84 791.652 154.84C793.092 154.84 794.259 155.193 795.152 155.9C796.059 156.593 796.559 157.567 796.652 158.82H793.572C793.545 158.34 793.339 157.947 792.952 157.64C792.579 157.32 792.079 157.16 791.452 157.16C790.905 157.16 790.465 157.3 790.132 157.58C789.812 157.86 789.652 158.267 789.652 158.8C789.652 159.173 789.772 159.487 790.012 159.74C790.265 159.98 790.572 160.18 790.932 160.34C791.305 160.487 791.825 160.66 792.492 160.86C793.399 161.127 794.139 161.393 794.712 161.66C795.285 161.927 795.779 162.327 796.192 162.86C796.605 163.393 796.812 164.093 796.812 164.96C796.812 165.707 796.619 166.4 796.232 167.04C795.845 167.68 795.279 168.193 794.532 168.58C793.785 168.953 792.899 169.14 791.872 169.14ZM723.461 187.271H719.847L719.249 189H717.338L720.601 179.913H722.72L725.983 189H724.059L723.461 187.271ZM722.967 185.815L721.654 182.019L720.341 185.815H722.967ZM733.963 190.599L732.585 188.948C732.203 189.043 731.813 189.091 731.415 189.091C730.565 189.091 729.785 188.892 729.075 188.493C728.364 188.094 727.801 187.544 727.385 186.842C726.969 186.131 726.761 185.33 726.761 184.437C726.761 183.553 726.969 182.76 727.385 182.058C727.801 181.347 728.364 180.793 729.075 180.394C729.785 179.995 730.565 179.796 731.415 179.796C732.273 179.796 733.053 179.995 733.755 180.394C734.465 180.793 735.024 181.347 735.432 182.058C735.848 182.76 736.056 183.553 736.056 184.437C736.056 185.243 735.882 185.98 735.536 186.647C735.198 187.306 734.734 187.843 734.145 188.259L736.225 190.599H733.963ZM728.633 184.437C728.633 185.044 728.75 185.577 728.984 186.036C729.218 186.495 729.543 186.851 729.959 187.102C730.383 187.345 730.869 187.466 731.415 187.466C731.961 187.466 732.442 187.345 732.858 187.102C733.274 186.851 733.599 186.495 733.833 186.036C734.067 185.577 734.184 185.044 734.184 184.437C734.184 183.83 734.067 183.302 733.833 182.851C733.599 182.392 733.274 182.041 732.858 181.798C732.442 181.555 731.961 181.434 731.415 181.434C730.869 181.434 730.383 181.555 729.959 181.798C729.543 182.041 729.218 182.392 728.984 182.851C728.75 183.302 728.633 183.83 728.633 184.437ZM739.229 179.926V185.542C739.229 186.157 739.389 186.63 739.71 186.959C740.031 187.28 740.481 187.44 741.062 187.44C741.651 187.44 742.106 187.28 742.427 186.959C742.748 186.63 742.908 186.157 742.908 185.542V179.926H744.741V185.529C744.741 186.3 744.572 186.955 744.234 187.492C743.905 188.021 743.458 188.419 742.895 188.688C742.34 188.957 741.721 189.091 741.036 189.091C740.36 189.091 739.745 188.957 739.19 188.688C738.644 188.419 738.211 188.021 737.89 187.492C737.569 186.955 737.409 186.3 737.409 185.529V179.926H739.229ZM752.064 187.271H748.45L747.852 189H745.941L749.204 179.913H751.323L754.586 189H752.662L752.064 187.271ZM751.57 185.815L750.257 182.019L748.944 185.815H751.57ZM717.455 204.45C717.455 203.557 717.654 202.76 718.053 202.058C718.46 201.347 719.011 200.797 719.704 200.407C720.406 200.008 721.19 199.809 722.057 199.809C723.071 199.809 723.959 200.069 724.722 200.589C725.485 201.109 726.018 201.828 726.321 202.747H724.228C724.02 202.314 723.725 201.989 723.344 201.772C722.971 201.555 722.538 201.447 722.044 201.447C721.515 201.447 721.043 201.573 720.627 201.824C720.22 202.067 719.899 202.413 719.665 202.864C719.44 203.315 719.327 203.843 719.327 204.45C719.327 205.048 719.44 205.577 719.665 206.036C719.899 206.487 720.22 206.838 720.627 207.089C721.043 207.332 721.515 207.453 722.044 207.453C722.538 207.453 722.971 207.345 723.344 207.128C723.725 206.903 724.02 206.573 724.228 206.14H726.321C726.018 207.067 725.485 207.791 724.722 208.311C723.968 208.822 723.08 209.078 722.057 209.078C721.19 209.078 720.406 208.883 719.704 208.493C719.011 208.094 718.46 207.544 718.053 206.842C717.654 206.14 717.455 205.343 717.455 204.45ZM729.696 207.557H732.686V209H727.876V199.926H729.696V207.557ZM735.636 199.926V205.542C735.636 206.157 735.797 206.63 736.117 206.959C736.438 207.28 736.889 207.44 737.469 207.44C738.059 207.44 738.514 207.28 738.834 206.959C739.155 206.63 739.315 206.157 739.315 205.542V199.926H741.148V205.529C741.148 206.3 740.979 206.955 740.641 207.492C740.312 208.021 739.866 208.419 739.302 208.688C738.748 208.957 738.128 209.091 737.443 209.091C736.767 209.091 736.152 208.957 735.597 208.688C735.051 208.419 734.618 208.021 734.297 207.492C733.977 206.955 733.816 206.3 733.816 205.529V199.926H735.636ZM748.055 204.346C748.566 204.441 748.986 204.697 749.316 205.113C749.645 205.529 749.81 206.006 749.81 206.543C749.81 207.028 749.688 207.457 749.446 207.83C749.212 208.194 748.869 208.48 748.419 208.688C747.968 208.896 747.435 209 746.82 209H742.907V199.926H746.651C747.266 199.926 747.795 200.026 748.237 200.225C748.687 200.424 749.025 200.702 749.251 201.057C749.485 201.412 749.602 201.815 749.602 202.266C749.602 202.795 749.459 203.237 749.173 203.592C748.895 203.947 748.523 204.199 748.055 204.346ZM744.727 203.67H746.391C746.824 203.67 747.158 203.575 747.392 203.384C747.626 203.185 747.743 202.903 747.743 202.539C747.743 202.175 747.626 201.893 747.392 201.694C747.158 201.495 746.824 201.395 746.391 201.395H744.727V203.67ZM746.56 207.518C747.002 207.518 747.344 207.414 747.587 207.206C747.838 206.998 747.964 206.703 747.964 206.322C747.964 205.932 747.834 205.629 747.574 205.412C747.314 205.187 746.963 205.074 746.521 205.074H744.727V207.518H746.56ZM726.048 219.926L722.72 229H720.51L717.182 219.926H719.132L721.628 227.141L724.111 219.926H726.048ZM728.959 219.926V229H727.139V219.926H728.959ZM736.932 219.926V221.395H734.514V229H732.694V221.395H730.276V219.926H736.932ZM719.717 247.557H722.707V249H717.897V239.926H719.717V247.557ZM725.684 241.395V243.67H728.739V245.113H725.684V247.518H729.129V249H723.864V239.913H729.129V241.395H725.684ZM743.773 239.926V249H741.953V243.098L739.522 249H738.144L735.7 243.098V249H733.88V239.926H735.947L738.833 246.673L741.719 239.926H743.773ZM747.393 239.926V249H745.573V239.926H747.393ZM756.952 249H755.132L751.011 242.773V249H749.191V239.913H751.011L755.132 246.153V239.913H756.952V249ZM760.571 241.395V243.67H763.626V245.113H760.571V247.518H764.016V249H758.751V239.913H764.016V241.395H760.571ZM770.349 249L768.347 245.464H767.489V249H765.669V239.926H769.075C769.777 239.926 770.375 240.052 770.869 240.303C771.363 240.546 771.732 240.879 771.974 241.304C772.226 241.72 772.351 242.188 772.351 242.708C772.351 243.306 772.178 243.848 771.831 244.333C771.485 244.81 770.969 245.139 770.284 245.321L772.455 249H770.349ZM767.489 244.099H769.01C769.504 244.099 769.873 243.982 770.115 243.748C770.358 243.505 770.479 243.172 770.479 242.747C770.479 242.331 770.358 242.01 770.115 241.785C769.873 241.551 769.504 241.434 769.01 241.434H767.489V244.099ZM779.562 247.271H775.948L775.35 249H773.439L776.702 239.913H778.821L782.084 249H780.16L779.562 247.271ZM779.068 245.815L777.755 242.019L776.442 245.815H779.068ZM785.123 247.557H788.113V249H783.303V239.926H785.123V247.557ZM717.455 264.45C717.455 263.557 717.654 262.76 718.053 262.058C718.46 261.347 719.011 260.797 719.704 260.407C720.406 260.008 721.19 259.809 722.057 259.809C723.071 259.809 723.959 260.069 724.722 260.589C725.485 261.109 726.018 261.828 726.321 262.747H724.228C724.02 262.314 723.725 261.989 723.344 261.772C722.971 261.555 722.538 261.447 722.044 261.447C721.515 261.447 721.043 261.573 720.627 261.824C720.22 262.067 719.899 262.413 719.665 262.864C719.44 263.315 719.327 263.843 719.327 264.45C719.327 265.048 719.44 265.577 719.665 266.036C719.899 266.487 720.22 266.838 720.627 267.089C721.043 267.332 721.515 267.453 722.044 267.453C722.538 267.453 722.971 267.345 723.344 267.128C723.725 266.903 724.02 266.573 724.228 266.14H726.321C726.018 267.067 725.485 267.791 724.722 268.311C723.968 268.822 723.08 269.078 722.057 269.078C721.19 269.078 720.406 268.883 719.704 268.493C719.011 268.094 718.46 267.544 718.053 266.842C717.654 266.14 717.455 265.343 717.455 264.45ZM729.696 267.557H732.686V269H727.876V259.926H729.696V267.557ZM735.662 261.395V263.67H738.717V265.113H735.662V267.518H739.107V269H733.842V259.913H739.107V261.395H735.662ZM744.973 269.091C744.124 269.091 743.344 268.892 742.633 268.493C741.923 268.094 741.359 267.544 740.943 266.842C740.527 266.131 740.319 265.33 740.319 264.437C740.319 263.553 740.527 262.76 740.943 262.058C741.359 261.347 741.923 260.793 742.633 260.394C743.344 259.995 744.124 259.796 744.973 259.796C745.831 259.796 746.611 259.995 747.313 260.394C748.024 260.793 748.583 261.347 748.99 262.058C749.406 262.76 749.614 263.553 749.614 264.437C749.614 265.33 749.406 266.131 748.99 266.842C748.583 267.544 748.024 268.094 747.313 268.493C746.603 268.892 745.823 269.091 744.973 269.091ZM744.973 267.466C745.519 267.466 746 267.345 746.416 267.102C746.832 266.851 747.157 266.495 747.391 266.036C747.625 265.577 747.742 265.044 747.742 264.437C747.742 263.83 747.625 263.302 747.391 262.851C747.157 262.392 746.832 262.041 746.416 261.798C746 261.555 745.519 261.434 744.973 261.434C744.427 261.434 743.942 261.555 743.517 261.798C743.101 262.041 742.776 262.392 742.542 262.851C742.308 263.302 742.191 263.83 742.191 264.437C742.191 265.044 742.308 265.577 742.542 266.036C742.776 266.495 743.101 266.851 743.517 267.102C743.942 267.345 744.427 267.466 744.973 267.466ZM719.717 281.395V283.67H722.772V285.113H719.717V287.518H723.162V289H717.897V279.913H723.162V281.395H719.717ZM732.967 279.926L729.639 289H727.429L724.101 279.926H726.051L728.547 287.141L731.03 279.926H732.967ZM735.878 279.926V289H734.058V279.926H735.878ZM743.24 287.271H739.626L739.028 289H737.117L740.38 279.913H742.499L745.762 289H743.838L743.24 287.271ZM742.746 285.815L741.433 282.019L740.12 285.815H742.746ZM754.743 289H752.923L748.802 282.773V289H746.982V279.913H748.802L752.923 286.153V279.913H754.743V289Z" fill="black"/>
<path d="M379.96 155.04V169H377.16V163.06H371.18V169H368.38V155.04H371.18V160.78H377.16V155.04H379.96ZM391.276 166.34H385.716L384.796 169H381.856L386.876 155.02H390.136L395.156 169H392.196L391.276 166.34ZM390.516 164.1L388.496 158.26L386.476 164.1H390.516ZM404.232 169L401.152 163.56H399.832V169H397.032V155.04H402.272C403.352 155.04 404.272 155.233 405.032 155.62C405.792 155.993 406.359 156.507 406.732 157.16C407.119 157.8 407.312 158.52 407.312 159.32C407.312 160.24 407.046 161.073 406.512 161.82C405.979 162.553 405.186 163.06 404.132 163.34L407.472 169H404.232ZM399.832 161.46H402.172C402.932 161.46 403.499 161.28 403.872 160.92C404.246 160.547 404.432 160.033 404.432 159.38C404.432 158.74 404.246 158.247 403.872 157.9C403.499 157.54 402.932 157.36 402.172 157.36H399.832V161.46ZM419.565 159.24C419.245 158.653 418.805 158.207 418.245 157.9C417.685 157.593 417.032 157.44 416.285 157.44C415.458 157.44 414.725 157.627 414.085 158C413.445 158.373 412.945 158.907 412.585 159.6C412.225 160.293 412.045 161.093 412.045 162C412.045 162.933 412.225 163.747 412.585 164.44C412.958 165.133 413.472 165.667 414.125 166.04C414.778 166.413 415.538 166.6 416.405 166.6C417.472 166.6 418.345 166.32 419.025 165.76C419.705 165.187 420.152 164.393 420.365 163.38H415.565V161.24H423.125V163.68C422.938 164.653 422.538 165.553 421.925 166.38C421.312 167.207 420.518 167.873 419.545 168.38C418.585 168.873 417.505 169.12 416.305 169.12C414.958 169.12 413.738 168.82 412.645 168.22C411.565 167.607 410.712 166.76 410.085 165.68C409.472 164.6 409.165 163.373 409.165 162C409.165 160.627 409.472 159.4 410.085 158.32C410.712 157.227 411.565 156.38 412.645 155.78C413.738 155.167 414.952 154.86 416.285 154.86C417.858 154.86 419.225 155.247 420.385 156.02C421.545 156.78 422.345 157.853 422.785 159.24H419.565ZM433.756 166.34H428.196L427.276 169H424.336L429.356 155.02H432.616L437.636 169H434.676L433.756 166.34ZM432.996 164.1L430.976 158.26L428.956 164.1H432.996ZM368.067 204.262C368.771 203.675 369.332 203.188 369.75 202.799C370.168 202.403 370.516 201.992 370.795 201.567C371.074 201.142 371.213 200.724 371.213 200.313C371.213 199.939 371.125 199.646 370.949 199.433C370.773 199.22 370.502 199.114 370.135 199.114C369.768 199.114 369.486 199.239 369.288 199.488C369.09 199.73 368.987 200.064 368.98 200.489H367.484C367.513 199.609 367.774 198.942 368.265 198.487C368.764 198.032 369.394 197.805 370.157 197.805C370.993 197.805 371.635 198.029 372.082 198.476C372.529 198.916 372.753 199.499 372.753 200.225C372.753 200.797 372.599 201.343 372.291 201.864C371.983 202.385 371.631 202.839 371.235 203.228C370.839 203.609 370.322 204.071 369.684 204.614H372.929V205.89H367.495V204.746L368.067 204.262ZM379.289 199.312H375.725V201.193C375.879 201.002 376.099 200.848 376.385 200.731C376.671 200.606 376.976 200.544 377.298 200.544C377.885 200.544 378.365 200.672 378.739 200.929C379.113 201.186 379.385 201.516 379.553 201.919C379.722 202.315 379.806 202.74 379.806 203.195C379.806 204.038 379.564 204.717 379.08 205.23C378.604 205.743 377.922 206 377.034 206C376.198 206 375.531 205.791 375.032 205.373C374.534 204.955 374.251 204.409 374.185 203.734H375.681C375.747 204.027 375.894 204.262 376.121 204.438C376.356 204.614 376.653 204.702 377.012 204.702C377.445 204.702 377.771 204.566 377.991 204.295C378.211 204.024 378.321 203.664 378.321 203.217C378.321 202.762 378.208 202.418 377.98 202.183C377.76 201.941 377.434 201.82 377.001 201.82C376.693 201.82 376.437 201.897 376.231 202.051C376.026 202.205 375.879 202.41 375.791 202.667H374.317V197.959H379.289V199.312ZM388.11 206L385.316 202.579V206H383.776V198.322H385.316V201.765L388.11 198.322H389.969L386.801 202.128L390.057 206H388.11ZM368.067 221.262C368.771 220.675 369.332 220.188 369.75 219.799C370.168 219.403 370.516 218.992 370.795 218.567C371.074 218.142 371.213 217.724 371.213 217.313C371.213 216.939 371.125 216.646 370.949 216.433C370.773 216.22 370.502 216.114 370.135 216.114C369.768 216.114 369.486 216.239 369.288 216.488C369.09 216.73 368.987 217.064 368.98 217.489H367.484C367.513 216.609 367.774 215.942 368.265 215.487C368.764 215.032 369.394 214.805 370.157 214.805C370.993 214.805 371.635 215.029 372.082 215.476C372.529 215.916 372.753 216.499 372.753 217.225C372.753 217.797 372.599 218.343 372.291 218.864C371.983 219.385 371.631 219.839 371.235 220.228C370.839 220.609 370.322 221.071 369.684 221.614H372.929V222.89H367.495V221.746L368.067 221.262ZM373.899 218.886C373.899 217.617 374.127 216.624 374.581 215.905C375.043 215.186 375.806 214.827 376.869 214.827C377.933 214.827 378.692 215.186 379.146 215.905C379.608 216.624 379.839 217.617 379.839 218.886C379.839 220.162 379.608 221.163 379.146 221.889C378.692 222.615 377.933 222.978 376.869 222.978C375.806 222.978 375.043 222.615 374.581 221.889C374.127 221.163 373.899 220.162 373.899 218.886ZM378.321 218.886C378.321 218.343 378.285 217.889 378.211 217.522C378.145 217.148 378.006 216.844 377.793 216.609C377.588 216.374 377.28 216.257 376.869 216.257C376.459 216.257 376.147 216.374 375.934 216.609C375.729 216.844 375.59 217.148 375.516 217.522C375.45 217.889 375.417 218.343 375.417 218.886C375.417 219.443 375.45 219.913 375.516 220.294C375.582 220.668 375.722 220.972 375.934 221.207C376.147 221.434 376.459 221.548 376.869 221.548C377.28 221.548 377.592 221.434 377.804 221.207C378.017 220.972 378.156 220.668 378.222 220.294C378.288 219.913 378.321 219.443 378.321 218.886ZM388.142 223L385.348 219.579V223H383.808V215.322H385.348V218.765L388.142 215.322H390.001L386.833 219.128L390.089 223H388.142ZM368.067 238.262C368.771 237.675 369.332 237.188 369.75 236.799C370.168 236.403 370.516 235.992 370.795 235.567C371.074 235.142 371.213 234.724 371.213 234.313C371.213 233.939 371.125 233.646 370.949 233.433C370.773 233.22 370.502 233.114 370.135 233.114C369.768 233.114 369.486 233.239 369.288 233.488C369.09 233.73 368.987 234.064 368.98 234.489H367.484C367.513 233.609 367.774 232.942 368.265 232.487C368.764 232.032 369.394 231.805 370.157 231.805C370.993 231.805 371.635 232.029 372.082 232.476C372.529 232.916 372.753 233.499 372.753 234.225C372.753 234.797 372.599 235.343 372.291 235.864C371.983 236.385 371.631 236.839 371.235 237.228C370.839 237.609 370.322 238.071 369.684 238.614H372.929V239.89H367.495V238.746L368.067 238.262ZM373.712 233.4V231.981H376.363V240H374.779V233.4H373.712ZM385.016 240L382.222 236.579V240H380.682V232.322H382.222V235.765L385.016 232.322H386.875L383.707 236.128L386.963 240H385.016ZM368.067 255.262C368.771 254.675 369.332 254.188 369.75 253.799C370.168 253.403 370.516 252.992 370.795 252.567C371.074 252.142 371.213 251.724 371.213 251.313C371.213 250.939 371.125 250.646 370.949 250.433C370.773 250.22 370.502 250.114 370.135 250.114C369.768 250.114 369.486 250.239 369.288 250.488C369.09 250.73 368.987 251.064 368.98 251.489H367.484C367.513 250.609 367.774 249.942 368.265 249.487C368.764 249.032 369.394 248.805 370.157 248.805C370.993 248.805 371.635 249.029 372.082 249.476C372.529 249.916 372.753 250.499 372.753 251.225C372.753 251.797 372.599 252.343 372.291 252.864C371.983 253.385 371.631 253.839 371.235 254.228C370.839 254.609 370.322 255.071 369.684 255.614H372.929V256.89H367.495V255.746L368.067 255.262ZM373.921 251.093C373.958 250.36 374.215 249.795 374.691 249.399C375.175 248.996 375.81 248.794 376.594 248.794C377.13 248.794 377.588 248.889 377.969 249.08C378.351 249.263 378.637 249.516 378.827 249.839C379.025 250.154 379.124 250.514 379.124 250.917C379.124 251.379 379.003 251.771 378.761 252.094C378.527 252.409 378.244 252.622 377.914 252.732V252.776C378.34 252.908 378.67 253.143 378.904 253.48C379.146 253.817 379.267 254.25 379.267 254.778C379.267 255.218 379.165 255.61 378.959 255.955C378.761 256.3 378.464 256.571 378.068 256.769C377.68 256.96 377.21 257.055 376.66 257.055C375.832 257.055 375.157 256.846 374.636 256.428C374.116 256.01 373.841 255.394 373.811 254.58H375.307C375.322 254.939 375.443 255.229 375.67 255.449C375.905 255.662 376.224 255.768 376.627 255.768C377.001 255.768 377.287 255.665 377.485 255.46C377.691 255.247 377.793 254.976 377.793 254.646C377.793 254.206 377.654 253.891 377.375 253.7C377.097 253.509 376.664 253.414 376.077 253.414H375.758V252.149H376.077C377.119 252.149 377.639 251.801 377.639 251.104C377.639 250.789 377.544 250.543 377.353 250.367C377.17 250.191 376.902 250.103 376.55 250.103C376.206 250.103 375.938 250.198 375.747 250.389C375.564 250.572 375.458 250.807 375.428 251.093H373.921ZM387.615 257L384.821 253.579V257H383.281V249.322H384.821V252.765L387.615 249.322H389.474L386.306 253.128L389.562 257H387.615ZM368.067 272.262C368.771 271.675 369.332 271.188 369.75 270.799C370.168 270.403 370.516 269.992 370.795 269.567C371.074 269.142 371.213 268.724 371.213 268.313C371.213 267.939 371.125 267.646 370.949 267.433C370.773 267.22 370.502 267.114 370.135 267.114C369.768 267.114 369.486 267.239 369.288 267.488C369.09 267.73 368.987 268.064 368.98 268.489H367.484C367.513 267.609 367.774 266.942 368.265 266.487C368.764 266.032 369.394 265.805 370.157 265.805C370.993 265.805 371.635 266.029 372.082 266.476C372.529 266.916 372.753 267.499 372.753 268.225C372.753 268.797 372.599 269.343 372.291 269.864C371.983 270.385 371.631 270.839 371.235 271.228C370.839 271.609 370.322 272.071 369.684 272.614H372.929V273.89H367.495V272.746L368.067 272.262ZM374.383 272.262C375.087 271.675 375.648 271.188 376.066 270.799C376.484 270.403 376.833 269.992 377.111 269.567C377.39 269.142 377.529 268.724 377.529 268.313C377.529 267.939 377.441 267.646 377.265 267.433C377.089 267.22 376.818 267.114 376.451 267.114C376.085 267.114 375.802 267.239 375.604 267.488C375.406 267.73 375.304 268.064 375.296 268.489H373.8C373.83 267.609 374.09 266.942 374.581 266.487C375.08 266.032 375.711 265.805 376.473 265.805C377.309 265.805 377.951 266.029 378.398 266.476C378.846 266.916 379.069 267.499 379.069 268.225C379.069 268.797 378.915 269.343 378.607 269.864C378.299 270.385 377.947 270.839 377.551 271.228C377.155 271.609 376.638 272.071 376 272.614H379.245V273.89H373.811V272.746L374.383 272.262ZM387.347 274L384.553 270.579V274H383.013V266.322H384.553V269.765L387.347 266.322H389.206L386.038 270.128L389.294 274H387.347ZM367.468 303.2V301.523H370.601V311H368.729V303.2H367.468ZM372.399 306.138C372.399 304.639 372.668 303.464 373.205 302.615C373.751 301.766 374.652 301.341 375.909 301.341C377.166 301.341 378.063 301.766 378.6 302.615C379.146 303.464 379.419 304.639 379.419 306.138C379.419 307.646 379.146 308.829 378.6 309.687C378.063 310.545 377.166 310.974 375.909 310.974C374.652 310.974 373.751 310.545 373.205 309.687C372.668 308.829 372.399 307.646 372.399 306.138ZM377.625 306.138C377.625 305.497 377.582 304.959 377.495 304.526C377.417 304.084 377.252 303.724 377.001 303.447C376.758 303.17 376.394 303.031 375.909 303.031C375.424 303.031 375.055 303.17 374.804 303.447C374.561 303.724 374.397 304.084 374.31 304.526C374.232 304.959 374.193 305.497 374.193 306.138C374.193 306.797 374.232 307.351 374.31 307.802C374.388 308.244 374.553 308.604 374.804 308.881C375.055 309.15 375.424 309.284 375.909 309.284C376.394 309.284 376.763 309.15 377.014 308.881C377.265 308.604 377.43 308.244 377.508 307.802C377.586 307.351 377.625 306.797 377.625 306.138ZM389.231 311L385.929 306.957V311H384.109V301.926H385.929V305.995L389.231 301.926H391.428L387.684 306.424L391.532 311H389.231Z" fill="black"/>
<path d="M1024.96 155.04V169H1022.16V163.06H1016.18V169H1013.38V155.04H1016.18V160.78H1022.16V155.04H1024.96ZM1036.28 166.34H1030.72L1029.8 169H1026.86L1031.88 155.02H1035.14L1040.16 169H1037.2L1036.28 166.34ZM1035.52 164.1L1033.5 158.26L1031.48 164.1H1035.52ZM1049.23 169L1046.15 163.56H1044.83V169H1042.03V155.04H1047.27C1048.35 155.04 1049.27 155.233 1050.03 155.62C1050.79 155.993 1051.36 156.507 1051.73 157.16C1052.12 157.8 1052.31 158.52 1052.31 159.32C1052.31 160.24 1052.05 161.073 1051.51 161.82C1050.98 162.553 1050.19 163.06 1049.13 163.34L1052.47 169H1049.23ZM1044.83 161.46H1047.17C1047.93 161.46 1048.5 161.28 1048.87 160.92C1049.25 160.547 1049.43 160.033 1049.43 159.38C1049.43 158.74 1049.25 158.247 1048.87 157.9C1048.5 157.54 1047.93 157.36 1047.17 157.36H1044.83V161.46ZM1064.56 159.24C1064.24 158.653 1063.8 158.207 1063.24 157.9C1062.68 157.593 1062.03 157.44 1061.28 157.44C1060.46 157.44 1059.72 157.627 1059.08 158C1058.44 158.373 1057.94 158.907 1057.58 159.6C1057.22 160.293 1057.04 161.093 1057.04 162C1057.04 162.933 1057.22 163.747 1057.58 164.44C1057.96 165.133 1058.47 165.667 1059.12 166.04C1059.78 166.413 1060.54 166.6 1061.4 166.6C1062.47 166.6 1063.34 166.32 1064.02 165.76C1064.7 165.187 1065.15 164.393 1065.36 163.38H1060.56V161.24H1068.12V163.68C1067.94 164.653 1067.54 165.553 1066.92 166.38C1066.31 167.207 1065.52 167.873 1064.54 168.38C1063.58 168.873 1062.5 169.12 1061.3 169.12C1059.96 169.12 1058.74 168.82 1057.64 168.22C1056.56 167.607 1055.71 166.76 1055.08 165.68C1054.47 164.6 1054.16 163.373 1054.16 162C1054.16 160.627 1054.47 159.4 1055.08 158.32C1055.71 157.227 1056.56 156.38 1057.64 155.78C1058.74 155.167 1059.95 154.86 1061.28 154.86C1062.86 154.86 1064.22 155.247 1065.38 156.02C1066.54 156.78 1067.34 157.853 1067.78 159.24H1064.56ZM1078.76 166.34H1073.2L1072.28 169H1069.34L1074.36 155.02H1077.62L1082.64 169H1079.68L1078.76 166.34ZM1078 164.1L1075.98 158.26L1073.96 164.1H1078ZM1012.61 187.154V185.724L1016.86 179.64H1018.98V185.568H1020.12V187.154H1018.98V189H1017.16V187.154H1012.61ZM1017.28 181.59L1014.61 185.568H1017.28V181.59ZM1027.65 181.096H1023.44V183.319C1023.62 183.094 1023.88 182.912 1024.22 182.773C1024.56 182.626 1024.92 182.552 1025.3 182.552C1025.99 182.552 1026.56 182.704 1027 183.007C1027.45 183.31 1027.77 183.7 1027.97 184.177C1028.17 184.645 1028.26 185.148 1028.26 185.685C1028.26 186.682 1027.98 187.483 1027.41 188.09C1026.84 188.697 1026.04 189 1024.99 189C1024 189 1023.21 188.753 1022.62 188.259C1022.03 187.765 1021.7 187.119 1021.62 186.322H1023.39C1023.47 186.669 1023.64 186.946 1023.91 187.154C1024.19 187.362 1024.54 187.466 1024.96 187.466C1025.47 187.466 1025.86 187.306 1026.12 186.985C1026.38 186.664 1026.51 186.24 1026.51 185.711C1026.51 185.174 1026.38 184.766 1026.11 184.489C1025.85 184.203 1025.46 184.06 1024.95 184.06C1024.59 184.06 1024.28 184.151 1024.04 184.333C1023.8 184.515 1023.62 184.758 1023.52 185.061H1021.78V179.497H1027.65V181.096ZM1038.08 189L1034.78 184.957V189H1032.96V179.926H1034.78V183.995L1038.08 179.926H1040.27L1036.53 184.424L1040.38 189H1038.08ZM1012.72 202.019C1012.76 201.152 1013.06 200.485 1013.62 200.017C1014.2 199.54 1014.95 199.302 1015.87 199.302C1016.51 199.302 1017.05 199.415 1017.5 199.64C1017.95 199.857 1018.29 200.156 1018.51 200.537C1018.75 200.91 1018.86 201.334 1018.86 201.811C1018.86 202.357 1018.72 202.821 1018.44 203.202C1018.16 203.575 1017.82 203.826 1017.43 203.956V204.008C1017.94 204.164 1018.33 204.441 1018.6 204.84C1018.89 205.239 1019.03 205.75 1019.03 206.374C1019.03 206.894 1018.91 207.358 1018.67 207.765C1018.44 208.172 1018.08 208.493 1017.62 208.727C1017.16 208.952 1016.6 209.065 1015.95 209.065C1014.97 209.065 1014.18 208.818 1013.56 208.324C1012.94 207.83 1012.62 207.102 1012.59 206.14H1014.35C1014.37 206.565 1014.51 206.907 1014.78 207.167C1015.06 207.418 1015.44 207.544 1015.91 207.544C1016.36 207.544 1016.69 207.423 1016.93 207.18C1017.17 206.929 1017.29 206.608 1017.29 206.218C1017.29 205.698 1017.13 205.325 1016.8 205.1C1016.47 204.875 1015.96 204.762 1015.26 204.762H1014.89V203.267H1015.26C1016.49 203.267 1017.11 202.855 1017.11 202.032C1017.11 201.659 1017 201.369 1016.77 201.161C1016.55 200.953 1016.24 200.849 1015.82 200.849C1015.41 200.849 1015.1 200.962 1014.87 201.187C1014.66 201.404 1014.53 201.681 1014.5 202.019H1012.72ZM1026.5 200.901L1023.05 209H1021.2L1024.68 201.109H1020.24V199.549H1026.5V200.901ZM1036.02 209L1032.72 204.957V209H1030.9V199.926H1032.72V203.995L1036.02 199.926H1038.22L1034.47 204.424L1038.32 209H1036.02ZM1012.72 222.019C1012.76 221.152 1013.06 220.485 1013.62 220.017C1014.2 219.54 1014.95 219.302 1015.87 219.302C1016.51 219.302 1017.05 219.415 1017.5 219.64C1017.95 219.857 1018.29 220.156 1018.51 220.537C1018.75 220.91 1018.86 221.334 1018.86 221.811C1018.86 222.357 1018.72 222.821 1018.44 223.202C1018.16 223.575 1017.82 223.826 1017.43 223.956V224.008C1017.94 224.164 1018.33 224.441 1018.6 224.84C1018.89 225.239 1019.03 225.75 1019.03 226.374C1019.03 226.894 1018.91 227.358 1018.67 227.765C1018.44 228.172 1018.08 228.493 1017.62 228.727C1017.16 228.952 1016.6 229.065 1015.95 229.065C1014.97 229.065 1014.18 228.818 1013.56 228.324C1012.94 227.83 1012.62 227.102 1012.59 226.14H1014.35C1014.37 226.565 1014.51 226.907 1014.78 227.167C1015.06 227.418 1015.44 227.544 1015.91 227.544C1016.36 227.544 1016.69 227.423 1016.93 227.18C1017.17 226.929 1017.29 226.608 1017.29 226.218C1017.29 225.698 1017.13 225.325 1016.8 225.1C1016.47 224.875 1015.96 224.762 1015.26 224.762H1014.89V223.267H1015.26C1016.49 223.267 1017.11 222.855 1017.11 222.032C1017.11 221.659 1017 221.369 1016.77 221.161C1016.55 220.953 1016.24 220.849 1015.82 220.849C1015.41 220.849 1015.1 220.962 1014.87 221.187C1014.66 221.404 1014.53 221.681 1014.5 222.019H1012.72ZM1026.84 221.096H1022.63V223.319C1022.81 223.094 1023.07 222.912 1023.41 222.773C1023.75 222.626 1024.11 222.552 1024.49 222.552C1025.18 222.552 1025.75 222.704 1026.19 223.007C1026.63 223.31 1026.95 223.7 1027.15 224.177C1027.35 224.645 1027.45 225.148 1027.45 225.685C1027.45 226.682 1027.17 227.483 1026.59 228.09C1026.03 228.697 1025.22 229 1024.18 229C1023.19 229 1022.4 228.753 1021.81 228.259C1021.22 227.765 1020.89 227.119 1020.81 226.322H1022.58C1022.66 226.669 1022.83 226.946 1023.1 227.154C1023.37 227.362 1023.73 227.466 1024.15 227.466C1024.66 227.466 1025.05 227.306 1025.31 226.985C1025.57 226.664 1025.7 226.24 1025.7 225.711C1025.7 225.174 1025.56 224.766 1025.29 224.489C1025.03 224.203 1024.65 224.06 1024.14 224.06C1023.77 224.06 1023.47 224.151 1023.23 224.333C1022.98 224.515 1022.81 224.758 1022.71 225.061H1020.97V219.497H1026.84V221.096ZM1037.27 229L1033.96 224.957V229H1032.14V219.926H1033.96V223.995L1037.27 219.926H1039.46L1035.72 224.424L1039.57 229H1037.27ZM1012.61 247.154V245.724L1016.86 239.64H1018.98V245.568H1020.12V247.154H1018.98V249H1017.16V247.154H1012.61ZM1017.28 241.59L1014.61 245.568H1017.28V241.59ZM1021.86 246.946C1022.69 246.253 1023.35 245.676 1023.84 245.217C1024.34 244.749 1024.75 244.264 1025.08 243.761C1025.41 243.258 1025.57 242.764 1025.57 242.279C1025.57 241.837 1025.47 241.49 1025.26 241.239C1025.05 240.988 1024.73 240.862 1024.3 240.862C1023.87 240.862 1023.53 241.009 1023.3 241.304C1023.06 241.59 1022.94 241.984 1022.93 242.487H1021.17C1021.2 241.447 1021.51 240.658 1022.09 240.121C1022.68 239.584 1023.42 239.315 1024.33 239.315C1025.31 239.315 1026.07 239.579 1026.6 240.108C1027.13 240.628 1027.39 241.317 1027.39 242.175C1027.39 242.851 1027.21 243.497 1026.85 244.112C1026.48 244.727 1026.07 245.265 1025.6 245.724C1025.13 246.175 1024.52 246.721 1023.77 247.362H1027.6V248.87H1021.18V247.518L1021.86 246.946ZM1037.18 249L1033.87 244.957V249H1032.05V239.926H1033.87V243.995L1037.18 239.926H1039.37L1035.63 244.424L1039.48 249H1037.18ZM1012.61 267.154V265.724L1016.86 259.64H1018.98V265.568H1020.12V267.154H1018.98V269H1017.16V267.154H1012.61ZM1017.28 261.59L1014.61 265.568H1017.28V261.59ZM1021.28 264.138C1021.28 262.639 1021.55 261.464 1022.09 260.615C1022.64 259.766 1023.54 259.341 1024.79 259.341C1026.05 259.341 1026.95 259.766 1027.48 260.615C1028.03 261.464 1028.3 262.639 1028.3 264.138C1028.3 265.646 1028.03 266.829 1027.48 267.687C1026.95 268.545 1026.05 268.974 1024.79 268.974C1023.54 268.974 1022.64 268.545 1022.09 267.687C1021.55 266.829 1021.28 265.646 1021.28 264.138ZM1026.51 264.138C1026.51 263.497 1026.47 262.959 1026.38 262.526C1026.3 262.084 1026.14 261.724 1025.89 261.447C1025.64 261.17 1025.28 261.031 1024.79 261.031C1024.31 261.031 1023.94 261.17 1023.69 261.447C1023.45 261.724 1023.28 262.084 1023.19 262.526C1023.12 262.959 1023.08 263.497 1023.08 264.138C1023.08 264.797 1023.12 265.351 1023.19 265.802C1023.27 266.244 1023.44 266.604 1023.69 266.881C1023.94 267.15 1024.31 267.284 1024.79 267.284C1025.28 267.284 1025.65 267.15 1025.9 266.881C1026.15 266.604 1026.31 266.244 1026.39 265.802C1026.47 265.351 1026.51 264.797 1026.51 264.138ZM1038.12 269L1034.81 264.957V269H1032.99V259.926H1034.81V263.995L1038.12 259.926H1040.31L1036.57 264.424L1040.42 269H1038.12ZM1012.72 282.019C1012.76 281.152 1013.06 280.485 1013.62 280.017C1014.2 279.54 1014.95 279.302 1015.87 279.302C1016.51 279.302 1017.05 279.415 1017.5 279.64C1017.95 279.857 1018.29 280.156 1018.51 280.537C1018.75 280.91 1018.86 281.334 1018.86 281.811C1018.86 282.357 1018.72 282.821 1018.44 283.202C1018.16 283.575 1017.82 283.826 1017.43 283.956V284.008C1017.94 284.164 1018.33 284.441 1018.6 284.84C1018.89 285.239 1019.03 285.75 1019.03 286.374C1019.03 286.894 1018.91 287.358 1018.67 287.765C1018.44 288.172 1018.08 288.493 1017.62 288.727C1017.16 288.952 1016.6 289.065 1015.95 289.065C1014.97 289.065 1014.18 288.818 1013.56 288.324C1012.94 287.83 1012.62 287.102 1012.59 286.14H1014.35C1014.37 286.565 1014.51 286.907 1014.78 287.167C1015.06 287.418 1015.44 287.544 1015.91 287.544C1016.36 287.544 1016.69 287.423 1016.93 287.18C1017.17 286.929 1017.29 286.608 1017.29 286.218C1017.29 285.698 1017.13 285.325 1016.8 285.1C1016.47 284.875 1015.96 284.762 1015.26 284.762H1014.89V283.267H1015.26C1016.49 283.267 1017.11 282.855 1017.11 282.032C1017.11 281.659 1017 281.369 1016.77 281.161C1016.55 280.953 1016.24 280.849 1015.82 280.849C1015.41 280.849 1015.1 280.962 1014.87 281.187C1014.66 281.404 1014.53 281.681 1014.5 282.019H1012.72ZM1020.47 284.138C1020.47 282.639 1020.74 281.464 1021.28 280.615C1021.82 279.766 1022.72 279.341 1023.98 279.341C1025.24 279.341 1026.13 279.766 1026.67 280.615C1027.22 281.464 1027.49 282.639 1027.49 284.138C1027.49 285.646 1027.22 286.829 1026.67 287.687C1026.13 288.545 1025.24 288.974 1023.98 288.974C1022.72 288.974 1021.82 288.545 1021.28 287.687C1020.74 286.829 1020.47 285.646 1020.47 284.138ZM1025.7 284.138C1025.7 283.497 1025.65 282.959 1025.57 282.526C1025.49 282.084 1025.32 281.724 1025.07 281.447C1024.83 281.17 1024.47 281.031 1023.98 281.031C1023.5 281.031 1023.13 281.17 1022.88 281.447C1022.63 281.724 1022.47 282.084 1022.38 282.526C1022.3 282.959 1022.27 283.497 1022.27 284.138C1022.27 284.797 1022.3 285.351 1022.38 285.802C1022.46 286.244 1022.62 286.604 1022.88 286.881C1023.13 287.15 1023.5 287.284 1023.98 287.284C1024.47 287.284 1024.83 287.15 1025.09 286.881C1025.34 286.604 1025.5 286.244 1025.58 285.802C1025.66 285.351 1025.7 284.797 1025.7 284.138ZM1037.3 289L1034 284.957V289H1032.18V279.926H1034V283.995L1037.3 279.926H1039.5L1035.76 284.424L1039.6 289H1037.3Z" fill="black"/>
</g>
<defs>
<filter id="filter0_d_68_329" x="0" y="0" width="1259" height="526" filterUnits="userSpaceOnUse" color-interpolation-filters="sRGB">
<feFlood flood-opacity="0" result="BackgroundImageFix"/>
<feColorMatrix in="SourceAlpha" type="matrix" values="0 0 0 0 0 0 0 0 0 0 0 0 0 0 0 0 0 0 127 0" result="hardAlpha"/>
<feOffset dy="4"/>
<feGaussianBlur stdDeviation="25"/>
<feComposite in2="hardAlpha" operator="out"/>
<feColorMatrix type="matrix" values="0 0 0 0 0 0 0 0 0 0 0 0 0 0 0 0 0 0 0.25 0"/>
<feBlend mode="normal" in2="BackgroundImageFix" result="effect1_dropShadow_68_329"/>
<feBlend mode="normal" in="SourceGraphic" in2="effect1_dropShadow_68_329" result="shape"/>
</filter>
<filter id="filter1_d_68_329" x="46" y="46" width="1167" height="434" filterUnits="userSpaceOnUse" color-interpolation-filters="sRGB">
<feFlood flood-opacity="0" result="BackgroundImageFix"/>
<feColorMatrix in="SourceAlpha" type="matrix" values="0 0 0 0 0 0 0 0 0 0 0 0 0 0 0 0 0 0 127 0" result="hardAlpha"/>
<feOffset dy="4"/>
<feGaussianBlur stdDeviation="2"/>
<feComposite in2="hardAlpha" operator="out"/>
<feColorMatrix type="matrix" values="0 0 0 0 0 0 0 0 0 0 0 0 0 0 0 0 0 0 0.25 0"/>
<feBlend mode="normal" in2="BackgroundImageFix" result="effect1_dropShadow_68_329"/>
<feBlend mode="normal" in="SourceGraphic" in2="effect1_dropShadow_68_329" result="shape"/>
</filter>
</defs>
</svg>
