<svg width="1259" height="526" viewBox="0 0 1259 526" fill="none" xmlns="http://www.w3.org/2000/svg">
<g filter="url(#filter0_d_31_97)">
<g filter="url(#filter1_d_31_97)">
<rect x="50" y="46" width="1159" height="426" rx="30" fill="#F2F3F2"/>
<line x1="631.5" y1="67.5" x2="631.5" y2="448.5" stroke="#0071B8" stroke-width="5" stroke-linecap="round"/>
</g>
<path d="M112.26 169L107.18 162.78V169H104.38V155.04H107.18V161.3L112.26 155.04H115.64L109.88 161.96L115.8 169H112.26ZM120.442 155.04V169H117.642V155.04H120.442ZM126.008 166.78H130.608V169H123.208V155.04H126.008V166.78ZM138.868 169.14C137.561 169.14 136.361 168.833 135.268 168.22C134.174 167.607 133.308 166.76 132.668 165.68C132.028 164.587 131.708 163.353 131.708 161.98C131.708 160.62 132.028 159.4 132.668 158.32C133.308 157.227 134.174 156.373 135.268 155.76C136.361 155.147 137.561 154.84 138.868 154.84C140.188 154.84 141.388 155.147 142.468 155.76C143.561 156.373 144.421 157.227 145.048 158.32C145.688 159.4 146.008 160.62 146.008 161.98C146.008 163.353 145.688 164.587 145.048 165.68C144.421 166.76 143.561 167.607 142.468 168.22C141.374 168.833 140.174 169.14 138.868 169.14ZM138.868 166.64C139.708 166.64 140.448 166.453 141.088 166.08C141.728 165.693 142.228 165.147 142.588 164.44C142.948 163.733 143.128 162.913 143.128 161.98C143.128 161.047 142.948 160.233 142.588 159.54C142.228 158.833 141.728 158.293 141.088 157.92C140.448 157.547 139.708 157.36 138.868 157.36C138.028 157.36 137.281 157.547 136.628 157.92C135.988 158.293 135.488 158.833 135.128 159.54C134.768 160.233 134.588 161.047 134.588 161.98C134.588 162.913 134.768 163.733 135.128 164.44C135.488 165.147 135.988 165.693 136.628 166.08C137.281 166.453 138.028 166.64 138.868 166.64ZM156.651 166.34H151.091L150.171 169H147.231L152.251 155.02H155.511L160.531 169H157.571L156.651 166.34ZM155.891 164.1L153.871 158.26L151.851 164.1H155.891ZM174.347 169H171.547L165.207 159.42V169H162.407V155.02H165.207L171.547 164.62V155.02H174.347V169ZM103.455 184.45C103.455 183.557 103.654 182.76 104.053 182.058C104.46 181.347 105.011 180.797 105.704 180.407C106.406 180.008 107.19 179.809 108.057 179.809C109.071 179.809 109.959 180.069 110.722 180.589C111.485 181.109 112.018 181.828 112.321 182.747H110.228C110.02 182.314 109.725 181.989 109.344 181.772C108.971 181.555 108.538 181.447 108.044 181.447C107.515 181.447 107.043 181.573 106.627 181.824C106.22 182.067 105.899 182.413 105.665 182.864C105.44 183.315 105.327 183.843 105.327 184.45C105.327 185.048 105.44 185.577 105.665 186.036C105.899 186.487 106.22 186.838 106.627 187.089C107.043 187.332 107.515 187.453 108.044 187.453C108.538 187.453 108.971 187.345 109.344 187.128C109.725 186.903 110.02 186.573 110.228 186.14H112.321C112.018 187.067 111.485 187.791 110.722 188.311C109.968 188.822 109.08 189.078 108.057 189.078C107.19 189.078 106.406 188.883 105.704 188.493C105.011 188.094 104.46 187.544 104.053 186.842C103.654 186.14 103.455 185.343 103.455 184.45ZM115.67 179.926V185.542C115.67 186.157 115.83 186.63 116.151 186.959C116.471 187.28 116.922 187.44 117.503 187.44C118.092 187.44 118.547 187.28 118.868 186.959C119.188 186.63 119.349 186.157 119.349 185.542V179.926H121.182V185.529C121.182 186.3 121.013 186.955 120.675 187.492C120.345 188.021 119.899 188.419 119.336 188.688C118.781 188.957 118.161 189.091 117.477 189.091C116.801 189.091 116.185 188.957 115.631 188.688C115.085 188.419 114.651 188.021 114.331 187.492C114.01 186.955 113.85 186.3 113.85 185.529V179.926H115.67ZM122.498 184.45C122.498 183.557 122.697 182.76 123.096 182.058C123.503 181.347 124.054 180.797 124.747 180.407C125.449 180.008 126.233 179.809 127.1 179.809C128.114 179.809 129.002 180.069 129.765 180.589C130.528 181.109 131.061 181.828 131.364 182.747H129.271C129.063 182.314 128.768 181.989 128.387 181.772C128.014 181.555 127.581 181.447 127.087 181.447C126.558 181.447 126.086 181.573 125.67 181.824C125.263 182.067 124.942 182.413 124.708 182.864C124.483 183.315 124.37 183.843 124.37 184.45C124.37 185.048 124.483 185.577 124.708 186.036C124.942 186.487 125.263 186.838 125.67 187.089C126.086 187.332 126.558 187.453 127.087 187.453C127.581 187.453 128.014 187.345 128.387 187.128C128.768 186.903 129.063 186.573 129.271 186.14H131.364C131.061 187.067 130.528 187.791 129.765 188.311C129.011 188.822 128.123 189.078 127.1 189.078C126.233 189.078 125.449 188.883 124.747 188.493C124.054 188.094 123.503 187.544 123.096 186.842C122.697 186.14 122.498 185.343 122.498 184.45ZM134.738 179.926V189H132.918V179.926H134.738ZM144.756 189L141.454 184.957V189H139.634V179.926H141.454V183.995L144.756 179.926H146.953L143.209 184.424L147.057 189H144.756ZM150.074 181.395V183.67H153.129V185.113H150.074V187.518H153.519V189H148.254V179.913H153.519V181.395H150.074ZM159.853 189L157.851 185.464H156.993V189H155.173V179.926H158.579C159.281 179.926 159.879 180.052 160.373 180.303C160.867 180.546 161.236 180.879 161.478 181.304C161.73 181.72 161.855 182.188 161.855 182.708C161.855 183.306 161.682 183.848 161.335 184.333C160.989 184.81 160.473 185.139 159.788 185.321L161.959 189H159.853ZM156.993 184.099H158.514C159.008 184.099 159.377 183.982 159.619 183.748C159.862 183.505 159.983 183.172 159.983 182.747C159.983 182.331 159.862 182.01 159.619 181.785C159.377 181.551 159.008 181.434 158.514 181.434H156.993V184.099ZM165.321 179.926V189H163.501V179.926H165.321ZM174.881 189H173.061L168.94 182.773V189H167.12V179.913H168.94L173.061 186.153V179.913H174.881V189ZM182.997 182.656C182.789 182.275 182.503 181.984 182.139 181.785C181.775 181.586 181.351 181.486 180.865 181.486C180.328 181.486 179.851 181.607 179.435 181.85C179.019 182.093 178.694 182.439 178.46 182.89C178.226 183.341 178.109 183.861 178.109 184.45C178.109 185.057 178.226 185.585 178.46 186.036C178.703 186.487 179.037 186.833 179.461 187.076C179.886 187.319 180.38 187.44 180.943 187.44C181.637 187.44 182.204 187.258 182.646 186.894C183.088 186.521 183.379 186.006 183.517 185.347H180.397V183.956H185.311V185.542C185.19 186.175 184.93 186.76 184.531 187.297C184.133 187.834 183.617 188.268 182.984 188.597C182.36 188.918 181.658 189.078 180.878 189.078C180.003 189.078 179.21 188.883 178.499 188.493C177.797 188.094 177.243 187.544 176.835 186.842C176.437 186.14 176.237 185.343 176.237 184.45C176.237 183.557 176.437 182.76 176.835 182.058C177.243 181.347 177.797 180.797 178.499 180.407C179.21 180.008 179.999 179.809 180.865 179.809C181.888 179.809 182.776 180.06 183.53 180.563C184.284 181.057 184.804 181.755 185.09 182.656H182.997ZM103.455 204.45C103.455 203.557 103.654 202.76 104.053 202.058C104.46 201.347 105.011 200.797 105.704 200.407C106.406 200.008 107.19 199.809 108.057 199.809C109.071 199.809 109.959 200.069 110.722 200.589C111.485 201.109 112.018 201.828 112.321 202.747H110.228C110.02 202.314 109.725 201.989 109.344 201.772C108.971 201.555 108.538 201.447 108.044 201.447C107.515 201.447 107.043 201.573 106.627 201.824C106.22 202.067 105.899 202.413 105.665 202.864C105.44 203.315 105.327 203.843 105.327 204.45C105.327 205.048 105.44 205.577 105.665 206.036C105.899 206.487 106.22 206.838 106.627 207.089C107.043 207.332 107.515 207.453 108.044 207.453C108.538 207.453 108.971 207.345 109.344 207.128C109.725 206.903 110.02 206.573 110.228 206.14H112.321C112.018 207.067 111.485 207.791 110.722 208.311C109.968 208.822 109.08 209.078 108.057 209.078C107.19 209.078 106.406 208.883 105.704 208.493C105.011 208.094 104.46 207.544 104.053 206.842C103.654 206.14 103.455 205.343 103.455 204.45ZM115.67 199.926V205.542C115.67 206.157 115.83 206.63 116.151 206.959C116.471 207.28 116.922 207.44 117.503 207.44C118.092 207.44 118.547 207.28 118.868 206.959C119.188 206.63 119.349 206.157 119.349 205.542V199.926H121.182V205.529C121.182 206.3 121.013 206.955 120.675 207.492C120.345 208.021 119.899 208.419 119.336 208.688C118.781 208.957 118.161 209.091 117.477 209.091C116.801 209.091 116.185 208.957 115.631 208.688C115.085 208.419 114.651 208.021 114.331 207.492C114.01 206.955 113.85 206.3 113.85 205.529V199.926H115.67ZM122.498 204.45C122.498 203.557 122.697 202.76 123.096 202.058C123.503 201.347 124.054 200.797 124.747 200.407C125.449 200.008 126.233 199.809 127.1 199.809C128.114 199.809 129.002 200.069 129.765 200.589C130.528 201.109 131.061 201.828 131.364 202.747H129.271C129.063 202.314 128.768 201.989 128.387 201.772C128.014 201.555 127.581 201.447 127.087 201.447C126.558 201.447 126.086 201.573 125.67 201.824C125.263 202.067 124.942 202.413 124.708 202.864C124.483 203.315 124.37 203.843 124.37 204.45C124.37 205.048 124.483 205.577 124.708 206.036C124.942 206.487 125.263 206.838 125.67 207.089C126.086 207.332 126.558 207.453 127.087 207.453C127.581 207.453 128.014 207.345 128.387 207.128C128.768 206.903 129.063 206.573 129.271 206.14H131.364C131.061 207.067 130.528 207.791 129.765 208.311C129.011 208.822 128.123 209.078 127.1 209.078C126.233 209.078 125.449 208.883 124.747 208.493C124.054 208.094 123.503 207.544 123.096 206.842C122.697 206.14 122.498 205.343 122.498 204.45ZM134.738 199.926V209H132.918V199.926H134.738ZM144.756 209L141.454 204.957V209H139.634V199.926H141.454V203.995L144.756 199.926H146.953L143.209 204.424L147.057 209H144.756ZM150.074 201.395V203.67H153.129V205.113H150.074V207.518H153.519V209H148.254V199.913H153.519V201.395H150.074ZM159.853 209L157.851 205.464H156.993V209H155.173V199.926H158.579C159.281 199.926 159.879 200.052 160.373 200.303C160.867 200.546 161.236 200.879 161.478 201.304C161.73 201.72 161.855 202.188 161.855 202.708C161.855 203.306 161.682 203.848 161.335 204.333C160.989 204.81 160.473 205.139 159.788 205.321L161.959 209H159.853ZM156.993 204.099H158.514C159.008 204.099 159.377 203.982 159.619 203.748C159.862 203.505 159.983 203.172 159.983 202.747C159.983 202.331 159.862 202.01 159.619 201.785C159.377 201.551 159.008 201.434 158.514 201.434H156.993V204.099ZM165.321 199.926V209H163.501V199.926H165.321ZM174.881 209H173.061L168.94 202.773V209H167.12V199.913H168.94L173.061 206.153V199.913H174.881V209ZM182.997 202.656C182.789 202.275 182.503 201.984 182.139 201.785C181.775 201.586 181.351 201.486 180.865 201.486C180.328 201.486 179.851 201.607 179.435 201.85C179.019 202.093 178.694 202.439 178.46 202.89C178.226 203.341 178.109 203.861 178.109 204.45C178.109 205.057 178.226 205.585 178.46 206.036C178.703 206.487 179.037 206.833 179.461 207.076C179.886 207.319 180.38 207.44 180.943 207.44C181.637 207.44 182.204 207.258 182.646 206.894C183.088 206.521 183.379 206.006 183.517 205.347H180.397V203.956H185.311V205.542C185.19 206.175 184.93 206.76 184.531 207.297C184.133 207.834 183.617 208.268 182.984 208.597C182.36 208.918 181.658 209.078 180.878 209.078C180.003 209.078 179.21 208.883 178.499 208.493C177.797 208.094 177.243 207.544 176.835 206.842C176.437 206.14 176.237 205.343 176.237 204.45C176.237 203.557 176.437 202.76 176.835 202.058C177.243 201.347 177.797 200.797 178.499 200.407C179.21 200.008 179.999 199.809 180.865 199.809C181.888 199.809 182.776 200.06 183.53 200.563C184.284 201.057 184.804 201.755 185.09 202.656H182.997ZM196.554 205.165H194.097V207.687H192.381V205.165H189.924V203.579H192.381V201.057H194.097V203.579H196.554V205.165ZM204.746 209.091C204.113 209.091 203.541 208.983 203.03 208.766C202.527 208.549 202.128 208.237 201.834 207.83C201.539 207.423 201.387 206.942 201.379 206.387H203.329C203.355 206.76 203.485 207.054 203.719 207.271C203.961 207.488 204.291 207.596 204.707 207.596C205.131 207.596 205.465 207.496 205.708 207.297C205.95 207.089 206.072 206.82 206.072 206.491C206.072 206.222 205.989 206.001 205.825 205.828C205.66 205.655 205.452 205.52 205.201 205.425C204.958 205.321 204.62 205.208 204.187 205.087C203.597 204.914 203.116 204.745 202.744 204.58C202.38 204.407 202.063 204.151 201.795 203.813C201.535 203.466 201.405 203.007 201.405 202.435C201.405 201.898 201.539 201.43 201.808 201.031C202.076 200.632 202.453 200.329 202.939 200.121C203.424 199.904 203.979 199.796 204.603 199.796C205.539 199.796 206.297 200.026 206.878 200.485C207.467 200.936 207.792 201.568 207.853 202.383H205.851C205.833 202.071 205.699 201.815 205.448 201.616C205.205 201.408 204.88 201.304 204.473 201.304C204.117 201.304 203.831 201.395 203.615 201.577C203.407 201.759 203.303 202.023 203.303 202.37C203.303 202.613 203.381 202.816 203.537 202.981C203.701 203.137 203.901 203.267 204.135 203.371C204.377 203.466 204.715 203.579 205.149 203.709C205.738 203.882 206.219 204.056 206.592 204.229C206.964 204.402 207.285 204.662 207.554 205.009C207.822 205.356 207.957 205.811 207.957 206.374C207.957 206.859 207.831 207.31 207.58 207.726C207.328 208.142 206.96 208.476 206.475 208.727C205.989 208.97 205.413 209.091 204.746 209.091ZM211.355 201.395V203.67H214.41V205.113H211.355V207.518H214.8V209H209.535V199.913H214.8V201.395H211.355ZM222.629 199.926V201.395H220.211V209H218.391V201.395H215.973V199.926H222.629ZM228.637 209L226.635 205.464H225.777V209H223.957V199.926H227.363C228.065 199.926 228.663 200.052 229.157 200.303C229.651 200.546 230.019 200.879 230.262 201.304C230.513 201.72 230.639 202.188 230.639 202.708C230.639 203.306 230.465 203.848 230.119 204.333C229.772 204.81 229.256 205.139 228.572 205.321L230.743 209H228.637ZM225.777 204.099H227.298C227.792 204.099 228.16 203.982 228.403 203.748C228.645 203.505 228.767 203.172 228.767 202.747C228.767 202.331 228.645 202.01 228.403 201.785C228.16 201.551 227.792 201.434 227.298 201.434H225.777V204.099ZM234.105 199.926V209H232.285V199.926H234.105ZM241.025 209L237.723 204.957V209H235.903V199.926H237.723V203.995L241.025 199.926H243.222L239.478 204.424L243.326 209H241.025ZM250.087 207.271H246.473L245.875 209H243.964L247.227 199.913H249.346L252.609 209H250.685L250.087 207.271ZM249.593 205.815L248.28 202.019L246.967 205.815H249.593ZM107.03 229.091C106.397 229.091 105.825 228.983 105.314 228.766C104.811 228.549 104.413 228.237 104.118 227.83C103.823 227.423 103.672 226.942 103.663 226.387H105.613C105.639 226.76 105.769 227.054 106.003 227.271C106.246 227.488 106.575 227.596 106.991 227.596C107.416 227.596 107.749 227.496 107.992 227.297C108.235 227.089 108.356 226.82 108.356 226.491C108.356 226.222 108.274 226.001 108.109 225.828C107.944 225.655 107.736 225.52 107.485 225.425C107.242 225.321 106.904 225.208 106.471 225.087C105.882 224.914 105.401 224.745 105.028 224.58C104.664 224.407 104.348 224.151 104.079 223.813C103.819 223.466 103.689 223.007 103.689 222.435C103.689 221.898 103.823 221.43 104.092 221.031C104.361 220.632 104.738 220.329 105.223 220.121C105.708 219.904 106.263 219.796 106.887 219.796C107.823 219.796 108.581 220.026 109.162 220.485C109.751 220.936 110.076 221.568 110.137 222.383H108.135C108.118 222.071 107.983 221.815 107.732 221.616C107.489 221.408 107.164 221.304 106.757 221.304C106.402 221.304 106.116 221.395 105.899 221.577C105.691 221.759 105.587 222.023 105.587 222.37C105.587 222.613 105.665 222.816 105.821 222.981C105.986 223.137 106.185 223.267 106.419 223.371C106.662 223.466 107 223.579 107.433 223.709C108.022 223.882 108.503 224.056 108.876 224.229C109.249 224.402 109.569 224.662 109.838 225.009C110.107 225.356 110.241 225.811 110.241 226.374C110.241 226.859 110.115 227.31 109.864 227.726C109.613 228.142 109.244 228.476 108.759 228.727C108.274 228.97 107.697 229.091 107.03 229.091ZM113.639 221.395V223.67H116.694V225.113H113.639V227.518H117.084V229H111.819V219.913H117.084V221.395H113.639ZM124.913 219.926V221.395H122.495V229H120.675V221.395H118.257V219.926H124.913ZM130.921 229L128.919 225.464H128.061V229H126.241V219.926H129.647C130.349 219.926 130.947 220.052 131.441 220.303C131.935 220.546 132.303 220.879 132.546 221.304C132.797 221.72 132.923 222.188 132.923 222.708C132.923 223.306 132.749 223.848 132.403 224.333C132.056 224.81 131.54 225.139 130.856 225.321L133.027 229H130.921ZM128.061 224.099H129.582C130.076 224.099 130.444 223.982 130.687 223.748C130.929 223.505 131.051 223.172 131.051 222.747C131.051 222.331 130.929 222.01 130.687 221.785C130.444 221.551 130.076 221.434 129.582 221.434H128.061V224.099ZM136.389 219.926V229H134.569V219.926H136.389ZM143.309 229L140.007 224.957V229H138.187V219.926H140.007V223.995L143.309 219.926H145.506L141.762 224.424L145.61 229H143.309ZM152.371 227.271H148.757L148.159 229H146.248L149.511 219.913H151.63L154.893 229H152.969L152.371 227.271ZM151.877 225.815L150.564 222.019L149.251 225.815H151.877ZM109.2 279.14C108.227 279.14 107.347 278.973 106.56 278.64C105.787 278.307 105.173 277.827 104.72 277.2C104.267 276.573 104.033 275.833 104.02 274.98H107.02C107.06 275.553 107.26 276.007 107.62 276.34C107.993 276.673 108.5 276.84 109.14 276.84C109.793 276.84 110.307 276.687 110.68 276.38C111.053 276.06 111.24 275.647 111.24 275.14C111.24 274.727 111.113 274.387 110.86 274.12C110.607 273.853 110.287 273.647 109.9 273.5C109.527 273.34 109.007 273.167 108.34 272.98C107.433 272.713 106.693 272.453 106.12 272.2C105.56 271.933 105.073 271.54 104.66 271.02C104.26 270.487 104.06 269.78 104.06 268.9C104.06 268.073 104.267 267.353 104.68 266.74C105.093 266.127 105.673 265.66 106.42 265.34C107.167 265.007 108.02 264.84 108.98 264.84C110.42 264.84 111.587 265.193 112.48 265.9C113.387 266.593 113.887 267.567 113.98 268.82H110.9C110.873 268.34 110.667 267.947 110.28 267.64C109.907 267.32 109.407 267.16 108.78 267.16C108.233 267.16 107.793 267.3 107.46 267.58C107.14 267.86 106.98 268.267 106.98 268.8C106.98 269.173 107.1 269.487 107.34 269.74C107.593 269.98 107.9 270.18 108.26 270.34C108.633 270.487 109.153 270.66 109.82 270.86C110.727 271.127 111.467 271.393 112.04 271.66C112.613 271.927 113.107 272.327 113.52 272.86C113.933 273.393 114.14 274.093 114.14 274.96C114.14 275.707 113.947 276.4 113.56 277.04C113.173 277.68 112.607 278.193 111.86 278.58C111.113 278.953 110.227 279.14 109.2 279.14ZM125.128 276.34H119.568L118.648 279H115.708L120.728 265.02H123.988L129.008 279H126.048L125.128 276.34ZM124.368 274.1L122.348 268.26L120.327 274.1H124.368ZM140.384 265.04V267.3H136.664V279H133.864V267.3H130.144V265.04H140.384ZM145.187 265.04V273.68C145.187 274.627 145.434 275.353 145.927 275.86C146.42 276.353 147.114 276.6 148.007 276.6C148.914 276.6 149.614 276.353 150.107 275.86C150.6 275.353 150.847 274.627 150.847 273.68V265.04H153.667V273.66C153.667 274.847 153.407 275.853 152.887 276.68C152.38 277.493 151.694 278.107 150.827 278.52C149.974 278.933 149.02 279.14 147.967 279.14C146.927 279.14 145.98 278.933 145.127 278.52C144.287 278.107 143.62 277.493 143.127 276.68C142.634 275.853 142.387 274.847 142.387 273.66V265.04H145.187ZM164.932 276.34H159.372L158.452 279H155.512L160.532 265.02H163.792L168.812 279H165.852L164.932 276.34ZM164.172 274.1L162.152 268.26L160.132 274.1H164.172ZM182.629 279H179.829L173.489 269.42V279H170.689V265.02H173.489L179.829 274.62V265.02H182.629V279ZM107.03 299.091C106.397 299.091 105.825 298.983 105.314 298.766C104.811 298.549 104.413 298.237 104.118 297.83C103.823 297.423 103.672 296.942 103.663 296.387H105.613C105.639 296.76 105.769 297.054 106.003 297.271C106.246 297.488 106.575 297.596 106.991 297.596C107.416 297.596 107.749 297.496 107.992 297.297C108.235 297.089 108.356 296.82 108.356 296.491C108.356 296.222 108.274 296.001 108.109 295.828C107.944 295.655 107.736 295.52 107.485 295.425C107.242 295.321 106.904 295.208 106.471 295.087C105.882 294.914 105.401 294.745 105.028 294.58C104.664 294.407 104.348 294.151 104.079 293.813C103.819 293.466 103.689 293.007 103.689 292.435C103.689 291.898 103.823 291.43 104.092 291.031C104.361 290.632 104.738 290.329 105.223 290.121C105.708 289.904 106.263 289.796 106.887 289.796C107.823 289.796 108.581 290.026 109.162 290.485C109.751 290.936 110.076 291.568 110.137 292.383H108.135C108.118 292.071 107.983 291.815 107.732 291.616C107.489 291.408 107.164 291.304 106.757 291.304C106.402 291.304 106.116 291.395 105.899 291.577C105.691 291.759 105.587 292.023 105.587 292.37C105.587 292.613 105.665 292.816 105.821 292.981C105.986 293.137 106.185 293.267 106.419 293.371C106.662 293.466 107 293.579 107.433 293.709C108.022 293.882 108.503 294.056 108.876 294.229C109.249 294.402 109.569 294.662 109.838 295.009C110.107 295.356 110.241 295.811 110.241 296.374C110.241 296.859 110.115 297.31 109.864 297.726C109.613 298.142 109.244 298.476 108.759 298.727C108.274 298.97 107.697 299.091 107.03 299.091ZM113.639 291.395V293.67H116.694V295.113H113.639V297.518H117.084V299H111.819V289.913H117.084V291.395H113.639ZM120.558 297.557H123.548V299H118.738V289.926H120.558V297.557ZM126.525 289.926V299H124.705V289.926H126.525ZM138.216 289.926V299H136.396V293.098L133.965 299H132.587L130.143 293.098V299H128.323V289.926H130.39L133.276 296.673L136.162 289.926H138.216ZM141.809 289.926V295.542C141.809 296.157 141.969 296.63 142.29 296.959C142.611 297.28 143.061 297.44 143.642 297.44C144.231 297.44 144.686 297.28 145.007 296.959C145.328 296.63 145.488 296.157 145.488 295.542V289.926H147.321V295.529C147.321 296.3 147.152 296.955 146.814 297.492C146.485 298.021 146.038 298.419 145.475 298.688C144.92 298.957 144.301 299.091 143.616 299.091C142.94 299.091 142.325 298.957 141.77 298.688C141.224 298.419 140.791 298.021 140.47 297.492C140.149 296.955 139.989 296.3 139.989 295.529V289.926H141.809ZM155.255 289.926V291.395H152.837V299H151.017V291.395H148.599V289.926H155.255ZM107.03 319.091C106.397 319.091 105.825 318.983 105.314 318.766C104.811 318.549 104.413 318.237 104.118 317.83C103.823 317.423 103.672 316.942 103.663 316.387H105.613C105.639 316.76 105.769 317.054 106.003 317.271C106.246 317.488 106.575 317.596 106.991 317.596C107.416 317.596 107.749 317.496 107.992 317.297C108.235 317.089 108.356 316.82 108.356 316.491C108.356 316.222 108.274 316.001 108.109 315.828C107.944 315.655 107.736 315.52 107.485 315.425C107.242 315.321 106.904 315.208 106.471 315.087C105.882 314.914 105.401 314.745 105.028 314.58C104.664 314.407 104.348 314.151 104.079 313.813C103.819 313.466 103.689 313.007 103.689 312.435C103.689 311.898 103.823 311.43 104.092 311.031C104.361 310.632 104.738 310.329 105.223 310.121C105.708 309.904 106.263 309.796 106.887 309.796C107.823 309.796 108.581 310.026 109.162 310.485C109.751 310.936 110.076 311.568 110.137 312.383H108.135C108.118 312.071 107.983 311.815 107.732 311.616C107.489 311.408 107.164 311.304 106.757 311.304C106.402 311.304 106.116 311.395 105.899 311.577C105.691 311.759 105.587 312.023 105.587 312.37C105.587 312.613 105.665 312.816 105.821 312.981C105.986 313.137 106.185 313.267 106.419 313.371C106.662 313.466 107 313.579 107.433 313.709C108.022 313.882 108.503 314.056 108.876 314.229C109.249 314.402 109.569 314.662 109.838 315.009C110.107 315.356 110.241 315.811 110.241 316.374C110.241 316.859 110.115 317.31 109.864 317.726C109.613 318.142 109.244 318.476 108.759 318.727C108.274 318.97 107.697 319.091 107.03 319.091ZM118.436 312.734C118.436 313.219 118.319 313.674 118.085 314.099C117.86 314.524 117.5 314.866 117.006 315.126C116.521 315.386 115.905 315.516 115.16 315.516H113.639V319H111.819V309.926H115.16C115.862 309.926 116.46 310.047 116.954 310.29C117.448 310.533 117.816 310.866 118.059 311.291C118.31 311.716 118.436 312.197 118.436 312.734ZM115.082 314.047C115.585 314.047 115.957 313.934 116.2 313.709C116.443 313.475 116.564 313.15 116.564 312.734C116.564 311.85 116.07 311.408 115.082 311.408H113.639V314.047H115.082ZM124.408 319L122.406 315.464H121.548V319H119.728V309.926H123.134C123.836 309.926 124.434 310.052 124.928 310.303C125.422 310.546 125.79 310.879 126.033 311.304C126.284 311.72 126.41 312.188 126.41 312.708C126.41 313.306 126.237 313.848 125.89 314.333C125.543 314.81 125.028 315.139 124.343 315.321L126.514 319H124.408ZM121.548 314.099H123.069C123.563 314.099 123.931 313.982 124.174 313.748C124.417 313.505 124.538 313.172 124.538 312.747C124.538 312.331 124.417 312.01 124.174 311.785C123.931 311.551 123.563 311.434 123.069 311.434H121.548V314.099ZM129.876 311.395V313.67H132.931V315.113H129.876V317.518H133.321V319H128.056V309.913H133.321V311.395H129.876ZM136.795 309.926V319H134.975V309.926H136.795ZM109.045 334.346C109.556 334.441 109.977 334.697 110.306 335.113C110.635 335.529 110.8 336.006 110.8 336.543C110.8 337.028 110.679 337.457 110.436 337.83C110.202 338.194 109.86 338.48 109.409 338.688C108.958 338.896 108.425 339 107.81 339H103.897V329.926H107.641C108.256 329.926 108.785 330.026 109.227 330.225C109.678 330.424 110.016 330.702 110.241 331.057C110.475 331.412 110.592 331.815 110.592 332.266C110.592 332.795 110.449 333.237 110.163 333.592C109.886 333.947 109.513 334.199 109.045 334.346ZM105.717 333.67H107.381C107.814 333.67 108.148 333.575 108.382 333.384C108.616 333.185 108.733 332.903 108.733 332.539C108.733 332.175 108.616 331.893 108.382 331.694C108.148 331.495 107.814 331.395 107.381 331.395H105.717V333.67ZM107.55 337.518C107.992 337.518 108.334 337.414 108.577 337.206C108.828 336.998 108.954 336.703 108.954 336.322C108.954 335.932 108.824 335.629 108.564 335.412C108.304 335.187 107.953 335.074 107.511 335.074H105.717V337.518H107.55ZM114.071 331.395V333.67H117.126V335.113H114.071V337.518H117.516V339H112.251V329.913H117.516V331.395H114.071ZM122.341 329.926C123.295 329.926 124.131 330.112 124.85 330.485C125.578 330.858 126.137 331.391 126.527 332.084C126.926 332.769 127.125 333.566 127.125 334.476C127.125 335.386 126.926 336.183 126.527 336.868C126.137 337.544 125.578 338.068 124.85 338.441C124.131 338.814 123.295 339 122.341 339H119.169V329.926H122.341ZM122.276 337.453C123.23 337.453 123.966 337.193 124.486 336.673C125.006 336.153 125.266 335.421 125.266 334.476C125.266 333.531 125.006 332.795 124.486 332.266C123.966 331.729 123.23 331.46 122.276 331.46H120.989V337.453H122.276ZM131.143 334.45C131.143 333.557 131.343 332.76 131.741 332.058C132.149 331.347 132.699 330.797 133.392 330.407C134.094 330.008 134.879 329.809 135.745 329.809C136.759 329.809 137.648 330.069 138.41 330.589C139.173 331.109 139.706 331.828 140.009 332.747H137.916C137.708 332.314 137.414 331.989 137.032 331.772C136.66 331.555 136.226 331.447 135.732 331.447C135.204 331.447 134.731 331.573 134.315 331.824C133.908 332.067 133.587 332.413 133.353 332.864C133.128 333.315 133.015 333.843 133.015 334.45C133.015 335.048 133.128 335.577 133.353 336.036C133.587 336.487 133.908 336.838 134.315 337.089C134.731 337.332 135.204 337.453 135.732 337.453C136.226 337.453 136.66 337.345 137.032 337.128C137.414 336.903 137.708 336.573 137.916 336.14H140.009C139.706 337.067 139.173 337.791 138.41 338.311C137.656 338.822 136.768 339.078 135.745 339.078C134.879 339.078 134.094 338.883 133.392 338.493C132.699 338.094 132.149 337.544 131.741 336.842C131.343 336.14 131.143 335.343 131.143 334.45ZM145.776 339.091C144.927 339.091 144.147 338.892 143.436 338.493C142.725 338.094 142.162 337.544 141.746 336.842C141.33 336.131 141.122 335.33 141.122 334.437C141.122 333.553 141.33 332.76 141.746 332.058C142.162 331.347 142.725 330.793 143.436 330.394C144.147 329.995 144.927 329.796 145.776 329.796C146.634 329.796 147.414 329.995 148.116 330.394C148.827 330.793 149.386 331.347 149.793 332.058C150.209 332.76 150.417 333.553 150.417 334.437C150.417 335.33 150.209 336.131 149.793 336.842C149.386 337.544 148.827 338.094 148.116 338.493C147.405 338.892 146.625 339.091 145.776 339.091ZM145.776 337.466C146.322 337.466 146.803 337.345 147.219 337.102C147.635 336.851 147.96 336.495 148.194 336.036C148.428 335.577 148.545 335.044 148.545 334.437C148.545 333.83 148.428 333.302 148.194 332.851C147.96 332.392 147.635 332.041 147.219 331.798C146.803 331.555 146.322 331.434 145.776 331.434C145.23 331.434 144.745 331.555 144.32 331.798C143.904 332.041 143.579 332.392 143.345 332.851C143.111 333.302 142.994 333.83 142.994 334.437C142.994 335.044 143.111 335.577 143.345 336.036C143.579 336.495 143.904 336.851 144.32 337.102C144.745 337.345 145.23 337.466 145.776 337.466ZM159.922 329.926L156.594 339H154.384L151.056 329.926H153.006L155.502 337.141L157.985 329.926H159.922ZM162.833 331.395V333.67H165.888V335.113H162.833V337.518H166.278V339H161.013V329.913H166.278V331.395H162.833ZM172.612 339L170.61 335.464H169.752V339H167.932V329.926H171.338C172.04 329.926 172.638 330.052 173.132 330.303C173.626 330.546 173.994 330.879 174.237 331.304C174.488 331.72 174.614 332.188 174.614 332.708C174.614 333.306 174.441 333.848 174.094 334.333C173.747 334.81 173.232 335.139 172.547 335.321L174.718 339H172.612ZM169.752 334.099H171.273C171.767 334.099 172.135 333.982 172.378 333.748C172.621 333.505 172.742 333.172 172.742 332.747C172.742 332.331 172.621 332.01 172.378 331.785C172.135 331.551 171.767 331.434 171.273 331.434H169.752V334.099ZM111.424 349.926V359H109.604V355.139H105.717V359H103.897V349.926H105.717V353.657H109.604V349.926H111.424ZM118.779 357.271H115.165L114.567 359H112.656L115.919 349.913H118.038L121.301 359H119.377L118.779 357.271ZM118.285 355.815L116.972 352.019L115.659 355.815H118.285ZM130.282 359H128.462L124.341 352.773V359H122.521V349.913H124.341L128.462 356.153V349.913H130.282V359ZM135.253 349.926C136.206 349.926 137.042 350.112 137.762 350.485C138.49 350.858 139.049 351.391 139.439 352.084C139.837 352.769 140.037 353.566 140.037 354.476C140.037 355.386 139.837 356.183 139.439 356.868C139.049 357.544 138.49 358.068 137.762 358.441C137.042 358.814 136.206 359 135.253 359H132.081V349.926H135.253ZM135.188 357.453C136.141 357.453 136.878 357.193 137.398 356.673C137.918 356.153 138.178 355.421 138.178 354.476C138.178 353.531 137.918 352.795 137.398 352.266C136.878 351.729 136.141 351.46 135.188 351.46H133.901V357.453H135.188ZM143.193 349.926V355.542C143.193 356.157 143.353 356.63 143.674 356.959C143.995 357.28 144.445 357.44 145.026 357.44C145.615 357.44 146.07 357.28 146.391 356.959C146.712 356.63 146.872 356.157 146.872 355.542V349.926H148.705V355.529C148.705 356.3 148.536 356.955 148.198 357.492C147.869 358.021 147.422 358.419 146.859 358.688C146.304 358.957 145.685 359.091 145 359.091C144.324 359.091 143.709 358.957 143.154 358.688C142.608 358.419 142.175 358.021 141.854 357.492C141.533 356.955 141.373 356.3 141.373 355.529V349.926H143.193ZM155.585 359L152.283 354.957V359H150.463V349.926H152.283V353.995L155.585 349.926H157.782L154.038 354.424L157.886 359H155.585ZM107.03 379.091C106.397 379.091 105.825 378.983 105.314 378.766C104.811 378.549 104.413 378.237 104.118 377.83C103.823 377.423 103.672 376.942 103.663 376.387H105.613C105.639 376.76 105.769 377.054 106.003 377.271C106.246 377.488 106.575 377.596 106.991 377.596C107.416 377.596 107.749 377.496 107.992 377.297C108.235 377.089 108.356 376.82 108.356 376.491C108.356 376.222 108.274 376.001 108.109 375.828C107.944 375.655 107.736 375.52 107.485 375.425C107.242 375.321 106.904 375.208 106.471 375.087C105.882 374.914 105.401 374.745 105.028 374.58C104.664 374.407 104.348 374.151 104.079 373.813C103.819 373.466 103.689 373.007 103.689 372.435C103.689 371.898 103.823 371.43 104.092 371.031C104.361 370.632 104.738 370.329 105.223 370.121C105.708 369.904 106.263 369.796 106.887 369.796C107.823 369.796 108.581 370.026 109.162 370.485C109.751 370.936 110.076 371.568 110.137 372.383H108.135C108.118 372.071 107.983 371.815 107.732 371.616C107.489 371.408 107.164 371.304 106.757 371.304C106.402 371.304 106.116 371.395 105.899 371.577C105.691 371.759 105.587 372.023 105.587 372.37C105.587 372.613 105.665 372.816 105.821 372.981C105.986 373.137 106.185 373.267 106.419 373.371C106.662 373.466 107 373.579 107.433 373.709C108.022 373.882 108.503 374.056 108.876 374.229C109.249 374.402 109.569 374.662 109.838 375.009C110.107 375.356 110.241 375.811 110.241 376.374C110.241 376.859 110.115 377.31 109.864 377.726C109.613 378.142 109.244 378.476 108.759 378.727C108.274 378.97 107.697 379.091 107.03 379.091ZM113.639 371.395V373.67H116.694V375.113H113.639V377.518H117.084V379H111.819V369.913H117.084V371.395H113.639ZM124.029 369.926V376.296C124.029 377.18 123.773 377.869 123.262 378.363C122.75 378.848 122.066 379.091 121.208 379.091C120.341 379.091 119.639 378.84 119.102 378.337C118.573 377.834 118.309 377.132 118.309 376.231H120.129C120.137 376.621 120.228 376.924 120.402 377.141C120.584 377.358 120.844 377.466 121.182 377.466C121.511 377.466 121.762 377.362 121.936 377.154C122.109 376.946 122.196 376.66 122.196 376.296V369.926H124.029ZM131.716 377.271H128.102L127.504 379H125.593L128.856 369.913H130.975L134.238 379H132.314L131.716 377.271ZM131.222 375.815L129.909 372.019L128.596 375.815H131.222ZM138.63 369.926C139.583 369.926 140.419 370.112 141.139 370.485C141.867 370.858 142.426 371.391 142.816 372.084C143.214 372.769 143.414 373.566 143.414 374.476C143.414 375.386 143.214 376.183 142.816 376.868C142.426 377.544 141.867 378.068 141.139 378.441C140.419 378.814 139.583 379 138.63 379H135.458V369.926H138.63ZM138.565 377.453C139.518 377.453 140.255 377.193 140.775 376.673C141.295 376.153 141.555 375.421 141.555 374.476C141.555 373.531 141.295 372.795 140.775 372.266C140.255 371.729 139.518 371.46 138.565 371.46H137.278V377.453H138.565ZM150.34 377.271H146.726L146.128 379H144.217L147.48 369.913H149.599L152.862 379H150.938L150.34 377.271ZM149.846 375.815L148.533 372.019L147.22 375.815H149.846ZM161.609 369.926V379H159.789V375.139H155.902V379H154.082V369.926H155.902V373.657H159.789V369.926H161.609ZM110.215 392.656C110.007 392.275 109.721 391.984 109.357 391.785C108.993 391.586 108.568 391.486 108.083 391.486C107.546 391.486 107.069 391.607 106.653 391.85C106.237 392.093 105.912 392.439 105.678 392.89C105.444 393.341 105.327 393.861 105.327 394.45C105.327 395.057 105.444 395.585 105.678 396.036C105.921 396.487 106.254 396.833 106.679 397.076C107.104 397.319 107.598 397.44 108.161 397.44C108.854 397.44 109.422 397.258 109.864 396.894C110.306 396.521 110.596 396.006 110.735 395.347H107.615V393.956H112.529V395.542C112.408 396.175 112.148 396.76 111.749 397.297C111.35 397.834 110.835 398.268 110.202 398.597C109.578 398.918 108.876 399.078 108.096 399.078C107.221 399.078 106.428 398.883 105.717 398.493C105.015 398.094 104.46 397.544 104.053 396.842C103.654 396.14 103.455 395.343 103.455 394.45C103.455 393.557 103.654 392.76 104.053 392.058C104.46 391.347 105.015 390.797 105.717 390.407C106.428 390.008 107.216 389.809 108.083 389.809C109.106 389.809 109.994 390.06 110.748 390.563C111.502 391.057 112.022 391.755 112.308 392.656H110.215ZM118.088 399.091C117.238 399.091 116.458 398.892 115.748 398.493C115.037 398.094 114.474 397.544 114.058 396.842C113.642 396.131 113.434 395.33 113.434 394.437C113.434 393.553 113.642 392.76 114.058 392.058C114.474 391.347 115.037 390.793 115.748 390.394C116.458 389.995 117.238 389.796 118.088 389.796C118.946 389.796 119.726 389.995 120.428 390.394C121.138 390.793 121.697 391.347 122.105 392.058C122.521 392.76 122.729 393.553 122.729 394.437C122.729 395.33 122.521 396.131 122.105 396.842C121.697 397.544 121.138 398.094 120.428 398.493C119.717 398.892 118.937 399.091 118.088 399.091ZM118.088 397.466C118.634 397.466 119.115 397.345 119.531 397.102C119.947 396.851 120.272 396.495 120.506 396.036C120.74 395.577 120.857 395.044 120.857 394.437C120.857 393.83 120.74 393.302 120.506 392.851C120.272 392.392 119.947 392.041 119.531 391.798C119.115 391.555 118.634 391.434 118.088 391.434C117.542 391.434 117.056 391.555 116.632 391.798C116.216 392.041 115.891 392.392 115.657 392.851C115.423 393.302 115.306 393.83 115.306 394.437C115.306 395.044 115.423 395.577 115.657 396.036C115.891 396.495 116.216 396.851 116.632 397.102C117.056 397.345 117.542 397.466 118.088 397.466ZM128.763 399L126.761 395.464H125.903V399H124.083V389.926H127.489C128.191 389.926 128.789 390.052 129.283 390.303C129.777 390.546 130.145 390.879 130.388 391.304C130.639 391.72 130.765 392.188 130.765 392.708C130.765 393.306 130.591 393.848 130.245 394.333C129.898 394.81 129.382 395.139 128.698 395.321L130.869 399H128.763ZM125.903 394.099H127.424C127.918 394.099 128.286 393.982 128.529 393.748C128.771 393.505 128.893 393.172 128.893 392.747C128.893 392.331 128.771 392.01 128.529 391.785C128.286 391.551 127.918 391.434 127.424 391.434H125.903V394.099ZM135.583 389.926C136.536 389.926 137.372 390.112 138.092 390.485C138.82 390.858 139.379 391.391 139.769 392.084C140.167 392.769 140.367 393.566 140.367 394.476C140.367 395.386 140.167 396.183 139.769 396.868C139.379 397.544 138.82 398.068 138.092 398.441C137.372 398.814 136.536 399 135.583 399H132.411V389.926H135.583ZM135.518 397.453C136.471 397.453 137.208 397.193 137.728 396.673C138.248 396.153 138.508 395.421 138.508 394.476C138.508 393.531 138.248 392.795 137.728 392.266C137.208 391.729 136.471 391.46 135.518 391.46H134.231V397.453H135.518ZM148.944 389.926L145.876 395.841V399H144.056V395.841L140.975 389.926H143.029L144.979 394.073L146.916 389.926H148.944ZM157.755 399H155.935L151.814 392.773V399H149.994V389.913H151.814L155.935 396.153V389.913H157.755V399Z" fill="black"/>
<path d="M109.99 105.04H116.71V109H104.86V87.94H109.99V105.04ZM132.267 105.28H124.407L123.147 109H117.777L125.397 87.94H131.337L138.957 109H133.527L132.267 105.28ZM130.947 101.32L128.337 93.61L125.757 101.32H130.947ZM159.336 87.94L152.046 102.04V109H146.916V102.04L139.626 87.94H145.446L149.526 96.76L153.576 87.94H159.336ZM174.513 105.28H166.653L165.393 109H160.023L167.643 87.94H173.583L181.203 109H175.773L174.513 105.28ZM173.193 101.32L170.583 93.61L168.003 101.32H173.193ZM202.362 109H197.232L188.652 96.01V109H183.522V87.94H188.652L197.232 100.99V87.94H202.362V109ZM219.191 105.28H211.331L210.071 109H204.701L212.321 87.94H218.261L225.881 109H220.451L219.191 105.28ZM217.871 101.32L215.261 93.61L212.681 101.32H217.871ZM247.04 109H241.91L233.33 96.01V109H228.2V87.94H233.33L241.91 100.99V87.94H247.04V109Z" fill="#0071B8"/>
<path d="M723.26 155.04C724.727 155.04 726.013 155.327 727.12 155.9C728.24 156.473 729.1 157.293 729.7 158.36C730.313 159.413 730.62 160.64 730.62 162.04C730.62 163.44 730.313 164.667 729.7 165.72C729.1 166.76 728.24 167.567 727.12 168.14C726.013 168.713 724.727 169 723.26 169H718.38V155.04H723.26ZM723.16 166.62C724.627 166.62 725.76 166.22 726.56 165.42C727.36 164.62 727.76 163.493 727.76 162.04C727.76 160.587 727.36 159.453 726.56 158.64C725.76 157.813 724.627 157.4 723.16 157.4H721.18V166.62H723.16ZM739.916 169L736.836 163.56H735.516V169H732.716V155.04H737.956C739.036 155.04 739.956 155.233 740.716 155.62C741.476 155.993 742.043 156.507 742.416 157.16C742.803 157.8 742.996 158.52 742.996 159.32C742.996 160.24 742.729 161.073 742.196 161.82C741.663 162.553 740.869 163.06 739.816 163.34L743.156 169H739.916ZM735.516 161.46H737.856C738.616 161.46 739.183 161.28 739.556 160.92C739.929 160.547 740.116 160.033 740.116 159.38C740.116 158.74 739.929 158.247 739.556 157.9C739.183 157.54 738.616 157.36 737.856 157.36H735.516V161.46ZM756.628 155.04L751.908 164.14V169H749.108V164.14L744.368 155.04H747.528L750.528 161.42L753.508 155.04H756.628ZM762.329 162C762.329 160.627 762.636 159.4 763.249 158.32C763.876 157.227 764.722 156.38 765.789 155.78C766.869 155.167 768.076 154.86 769.409 154.86C770.969 154.86 772.336 155.26 773.509 156.06C774.682 156.86 775.502 157.967 775.969 159.38H772.749C772.429 158.713 771.976 158.213 771.389 157.88C770.816 157.547 770.149 157.38 769.389 157.38C768.576 157.38 767.849 157.573 767.209 157.96C766.582 158.333 766.089 158.867 765.729 159.56C765.382 160.253 765.209 161.067 765.209 162C765.209 162.92 765.382 163.733 765.729 164.44C766.089 165.133 766.582 165.673 767.209 166.06C767.849 166.433 768.576 166.62 769.389 166.62C770.149 166.62 770.816 166.453 771.389 166.12C771.976 165.773 772.429 165.267 772.749 164.6H775.969C775.502 166.027 774.682 167.14 773.509 167.94C772.349 168.727 770.982 169.12 769.409 169.12C768.076 169.12 766.869 168.82 765.789 168.22C764.722 167.607 763.876 166.76 763.249 165.68C762.636 164.6 762.329 163.373 762.329 162ZM781.16 166.78H785.76V169H778.36V155.04H781.16V166.78ZM790.34 157.3V160.8H795.04V163.02H790.34V166.72H795.64V169H787.54V155.02H795.64V157.3H790.34ZM806.745 166.34H801.185L800.265 169H797.325L802.345 155.02H805.605L810.625 169H807.665L806.745 166.34ZM805.985 164.1L803.965 158.26L801.945 164.1H805.985ZM824.441 169H821.641L815.301 159.42V169H812.501V155.02H815.301L821.641 164.62V155.02H824.441V169ZM830.008 155.04V169H827.208V155.04H830.008ZM844.715 169H841.915L835.575 159.42V169H832.775V155.02H835.575L841.915 164.62V155.02H844.715V169ZM857.202 159.24C856.882 158.653 856.442 158.207 855.882 157.9C855.322 157.593 854.668 157.44 853.922 157.44C853.095 157.44 852.362 157.627 851.722 158C851.082 158.373 850.582 158.907 850.222 159.6C849.862 160.293 849.682 161.093 849.682 162C849.682 162.933 849.862 163.747 850.222 164.44C850.595 165.133 851.108 165.667 851.762 166.04C852.415 166.413 853.175 166.6 854.042 166.6C855.108 166.6 855.982 166.32 856.662 165.76C857.342 165.187 857.788 164.393 858.002 163.38H853.202V161.24H860.762V163.68C860.575 164.653 860.175 165.553 859.562 166.38C858.948 167.207 858.155 167.873 857.182 168.38C856.222 168.873 855.142 169.12 853.942 169.12C852.595 169.12 851.375 168.82 850.282 168.22C849.202 167.607 848.348 166.76 847.722 165.68C847.108 164.6 846.802 163.373 846.802 162C846.802 160.627 847.108 159.4 847.722 158.32C848.348 157.227 849.202 156.38 850.282 155.78C851.375 155.167 852.588 154.86 853.922 154.86C855.495 154.86 856.862 155.247 858.022 156.02C859.182 156.78 859.982 157.853 860.422 159.24H857.202ZM724.215 182.656C724.007 182.275 723.721 181.984 723.357 181.785C722.993 181.586 722.568 181.486 722.083 181.486C721.546 181.486 721.069 181.607 720.653 181.85C720.237 182.093 719.912 182.439 719.678 182.89C719.444 183.341 719.327 183.861 719.327 184.45C719.327 185.057 719.444 185.585 719.678 186.036C719.921 186.487 720.254 186.833 720.679 187.076C721.104 187.319 721.598 187.44 722.161 187.44C722.854 187.44 723.422 187.258 723.864 186.894C724.306 186.521 724.596 186.006 724.735 185.347H721.615V183.956H726.529V185.542C726.408 186.175 726.148 186.76 725.749 187.297C725.35 187.834 724.835 188.268 724.202 188.597C723.578 188.918 722.876 189.078 722.096 189.078C721.221 189.078 720.428 188.883 719.717 188.493C719.015 188.094 718.46 187.544 718.053 186.842C717.654 186.14 717.455 185.343 717.455 184.45C717.455 183.557 717.654 182.76 718.053 182.058C718.46 181.347 719.015 180.797 719.717 180.407C720.428 180.008 721.216 179.809 722.083 179.809C723.106 179.809 723.994 180.06 724.748 180.563C725.502 181.057 726.022 181.755 726.308 182.656H724.215ZM733.44 187.271H729.826L729.228 189H727.317L730.58 179.913H732.699L735.962 189H734.038L733.44 187.271ZM732.946 185.815L731.633 182.019L730.32 185.815H732.946ZM738.975 179.926V185.542C738.975 186.157 739.136 186.63 739.456 186.959C739.777 187.28 740.228 187.44 740.808 187.44C741.398 187.44 741.853 187.28 742.173 186.959C742.494 186.63 742.654 186.157 742.654 185.542V179.926H744.487V185.529C744.487 186.3 744.318 186.955 743.98 187.492C743.651 188.021 743.205 188.419 742.641 188.688C742.087 188.957 741.467 189.091 740.782 189.091C740.106 189.091 739.491 188.957 738.936 188.688C738.39 188.419 737.957 188.021 737.636 187.492C737.316 186.955 737.155 186.3 737.155 185.529V179.926H738.975ZM754.007 189H752.187L748.066 182.773V189H746.246V179.913H748.066L752.187 186.153V179.913H754.007V189ZM723.019 209L719.717 204.957V209H717.897V199.926H719.717V203.995L723.019 199.926H725.216L721.472 204.424L725.32 209H723.019ZM728.337 201.395V203.67H731.392V205.113H728.337V207.518H731.782V209H726.517V199.913H731.782V201.395H728.337ZM738.584 204.346C739.095 204.441 739.516 204.697 739.845 205.113C740.174 205.529 740.339 206.006 740.339 206.543C740.339 207.028 740.218 207.457 739.975 207.83C739.741 208.194 739.399 208.48 738.948 208.688C738.497 208.896 737.964 209 737.349 209H733.436V199.926H737.18C737.795 199.926 738.324 200.026 738.766 200.225C739.217 200.424 739.555 200.702 739.78 201.057C740.014 201.412 740.131 201.815 740.131 202.266C740.131 202.795 739.988 203.237 739.702 203.592C739.425 203.947 739.052 204.199 738.584 204.346ZM735.256 203.67H736.92C737.353 203.67 737.687 203.575 737.921 203.384C738.155 203.185 738.272 202.903 738.272 202.539C738.272 202.175 738.155 201.893 737.921 201.694C737.687 201.495 737.353 201.395 736.92 201.395H735.256V203.67ZM737.089 207.518C737.531 207.518 737.873 207.414 738.116 207.206C738.367 206.998 738.493 206.703 738.493 206.322C738.493 205.932 738.363 205.629 738.103 205.412C737.843 205.187 737.492 205.074 737.05 205.074H735.256V207.518H737.089ZM747.354 207.271H743.74L743.142 209H741.231L744.494 199.913H746.613L749.876 209H747.952L747.354 207.271ZM746.86 205.815L745.547 202.019L744.234 205.815H746.86ZM758.31 199.926L755.242 205.841V209H753.422V205.841L750.341 199.926H752.395L754.345 204.073L756.282 199.926H758.31ZM764.924 207.271H761.31L760.712 209H758.801L762.064 199.913H764.183L767.446 209H765.522L764.924 207.271ZM764.43 205.815L763.117 202.019L761.804 205.815H764.43ZM723.188 219.926V226.296C723.188 227.18 722.932 227.869 722.421 228.363C721.91 228.848 721.225 229.091 720.367 229.091C719.5 229.091 718.798 228.84 718.261 228.337C717.732 227.834 717.468 227.132 717.468 226.231H719.288C719.297 226.621 719.388 226.924 719.561 227.141C719.743 227.358 720.003 227.466 720.341 227.466C720.67 227.466 720.922 227.362 721.095 227.154C721.268 226.946 721.355 226.66 721.355 226.296V219.926H723.188ZM730.875 227.271H727.261L726.663 229H724.752L728.015 219.913H730.134L733.397 229H731.473L730.875 227.271ZM730.381 225.815L729.068 222.019L727.755 225.815H730.381ZM737.75 229.091C737.117 229.091 736.545 228.983 736.034 228.766C735.531 228.549 735.132 228.237 734.838 227.83C734.543 227.423 734.391 226.942 734.383 226.387H736.333C736.359 226.76 736.489 227.054 736.723 227.271C736.965 227.488 737.295 227.596 737.711 227.596C738.135 227.596 738.469 227.496 738.712 227.297C738.954 227.089 739.076 226.82 739.076 226.491C739.076 226.222 738.993 226.001 738.829 225.828C738.664 225.655 738.456 225.52 738.205 225.425C737.962 225.321 737.624 225.208 737.191 225.087C736.601 224.914 736.12 224.745 735.748 224.58C735.384 224.407 735.067 224.151 734.799 223.813C734.539 223.466 734.409 223.007 734.409 222.435C734.409 221.898 734.543 221.43 734.812 221.031C735.08 220.632 735.457 220.329 735.943 220.121C736.428 219.904 736.983 219.796 737.607 219.796C738.543 219.796 739.301 220.026 739.882 220.485C740.471 220.936 740.796 221.568 740.857 222.383H738.855C738.837 222.071 738.703 221.815 738.452 221.616C738.209 221.408 737.884 221.304 737.477 221.304C737.121 221.304 736.835 221.395 736.619 221.577C736.411 221.759 736.307 222.023 736.307 222.37C736.307 222.613 736.385 222.816 736.541 222.981C736.705 223.137 736.905 223.267 737.139 223.371C737.381 223.466 737.719 223.579 738.153 223.709C738.742 223.882 739.223 224.056 739.596 224.229C739.968 224.402 740.289 224.662 740.558 225.009C740.826 225.356 740.961 225.811 740.961 226.374C740.961 226.859 740.835 227.31 740.584 227.726C740.332 228.142 739.964 228.476 739.479 228.727C738.993 228.97 738.417 229.091 737.75 229.091ZM723.188 239.926V246.296C723.188 247.18 722.932 247.869 722.421 248.363C721.91 248.848 721.225 249.091 720.367 249.091C719.5 249.091 718.798 248.84 718.261 248.337C717.732 247.834 717.468 247.132 717.468 246.231H719.288C719.297 246.621 719.388 246.924 719.561 247.141C719.743 247.358 720.003 247.466 720.341 247.466C720.67 247.466 720.922 247.362 721.095 247.154C721.268 246.946 721.355 246.66 721.355 246.296V239.926H723.188ZM730.875 247.271H727.261L726.663 249H724.752L728.015 239.913H730.134L733.397 249H731.473L730.875 247.271ZM730.381 245.815L729.068 242.019L727.755 245.815H730.381ZM739.739 249L736.437 244.957V249H734.617V239.926H736.437V243.995L739.739 239.926H741.936L738.192 244.424L742.04 249H739.739ZM745.057 241.395V243.67H748.112V245.113H745.057V247.518H748.502V249H743.237V239.913H748.502V241.395H745.057ZM756.331 239.926V241.395H753.913V249H752.093V241.395H749.675V239.926H756.331ZM766.931 239.926V241.395H764.513V249H762.693V241.395H760.275V239.926H766.931ZM770.079 241.395V243.67H773.134V245.113H770.079V247.518H773.524V249H768.259V239.913H773.524V241.395H770.079ZM780.326 244.346C780.838 244.441 781.258 244.697 781.587 245.113C781.917 245.529 782.081 246.006 782.081 246.543C782.081 247.028 781.96 247.457 781.717 247.83C781.483 248.194 781.141 248.48 780.69 248.688C780.24 248.896 779.707 249 779.091 249H775.178V239.926H778.922C779.538 239.926 780.066 240.026 780.508 240.225C780.959 240.424 781.297 240.702 781.522 241.057C781.756 241.412 781.873 241.815 781.873 242.266C781.873 242.795 781.73 243.237 781.444 243.592C781.167 243.947 780.794 244.199 780.326 244.346ZM776.998 243.67H778.662C779.096 243.67 779.429 243.575 779.663 243.384C779.897 243.185 780.014 242.903 780.014 242.539C780.014 242.175 779.897 241.893 779.663 241.694C779.429 241.495 779.096 241.395 778.662 241.395H776.998V243.67ZM778.831 247.518C779.273 247.518 779.616 247.414 779.858 247.206C780.11 246.998 780.235 246.703 780.235 246.322C780.235 245.932 780.105 245.629 779.845 245.412C779.585 245.187 779.234 245.074 778.792 245.074H776.998V247.518H778.831ZM789.096 247.271H785.482L784.884 249H782.973L786.236 239.913H788.355L791.618 249H789.694L789.096 247.271ZM788.602 245.815L787.289 242.019L785.976 245.815H788.602ZM794.657 247.557H797.647V249H792.837V239.926H794.657V247.557ZM717.455 264.45C717.455 263.557 717.654 262.76 718.053 262.058C718.46 261.347 719.011 260.797 719.704 260.407C720.406 260.008 721.19 259.809 722.057 259.809C723.071 259.809 723.959 260.069 724.722 260.589C725.485 261.109 726.018 261.828 726.321 262.747H724.228C724.02 262.314 723.725 261.989 723.344 261.772C722.971 261.555 722.538 261.447 722.044 261.447C721.515 261.447 721.043 261.573 720.627 261.824C720.22 262.067 719.899 262.413 719.665 262.864C719.44 263.315 719.327 263.843 719.327 264.45C719.327 265.048 719.44 265.577 719.665 266.036C719.899 266.487 720.22 266.838 720.627 267.089C721.043 267.332 721.515 267.453 722.044 267.453C722.538 267.453 722.971 267.345 723.344 267.128C723.725 266.903 724.02 266.573 724.228 266.14H726.321C726.018 267.067 725.485 267.791 724.722 268.311C723.968 268.822 723.08 269.078 722.057 269.078C721.19 269.078 720.406 268.883 719.704 268.493C719.011 268.094 718.46 267.544 718.053 266.842C717.654 266.14 717.455 265.343 717.455 264.45ZM732.088 269.091C731.238 269.091 730.458 268.892 729.748 268.493C729.037 268.094 728.474 267.544 728.058 266.842C727.642 266.131 727.434 265.33 727.434 264.437C727.434 263.553 727.642 262.76 728.058 262.058C728.474 261.347 729.037 260.793 729.748 260.394C730.458 259.995 731.238 259.796 732.088 259.796C732.946 259.796 733.726 259.995 734.428 260.394C735.138 260.793 735.697 261.347 736.105 262.058C736.521 262.76 736.729 263.553 736.729 264.437C736.729 265.33 736.521 266.131 736.105 266.842C735.697 267.544 735.138 268.094 734.428 268.493C733.717 268.892 732.937 269.091 732.088 269.091ZM732.088 267.466C732.634 267.466 733.115 267.345 733.531 267.102C733.947 266.851 734.272 266.495 734.506 266.036C734.74 265.577 734.857 265.044 734.857 264.437C734.857 263.83 734.74 263.302 734.506 262.851C734.272 262.392 733.947 262.041 733.531 261.798C733.115 261.555 732.634 261.434 732.088 261.434C731.542 261.434 731.056 261.555 730.632 261.798C730.216 262.041 729.891 262.392 729.657 262.851C729.423 263.302 729.306 263.83 729.306 264.437C729.306 265.044 729.423 265.577 729.657 266.036C729.891 266.495 730.216 266.851 730.632 267.102C731.056 267.345 731.542 267.466 732.088 267.466ZM743.647 267.271H740.033L739.435 269H737.524L740.787 259.913H742.906L746.169 269H744.245L743.647 267.271ZM743.153 265.815L741.84 262.019L740.527 265.815H743.153ZM753.563 259.926V261.395H751.145V269H749.325V261.395H746.907V259.926H753.563ZM723.045 284.346C723.556 284.441 723.977 284.697 724.306 285.113C724.635 285.529 724.8 286.006 724.8 286.543C724.8 287.028 724.679 287.457 724.436 287.83C724.202 288.194 723.86 288.48 723.409 288.688C722.958 288.896 722.425 289 721.81 289H717.897V279.926H721.641C722.256 279.926 722.785 280.026 723.227 280.225C723.678 280.424 724.016 280.702 724.241 281.057C724.475 281.412 724.592 281.815 724.592 282.266C724.592 282.795 724.449 283.237 724.163 283.592C723.886 283.947 723.513 284.199 723.045 284.346ZM719.717 283.67H721.381C721.814 283.67 722.148 283.575 722.382 283.384C722.616 283.185 722.733 282.903 722.733 282.539C722.733 282.175 722.616 281.893 722.382 281.694C722.148 281.495 721.814 281.395 721.381 281.395H719.717V283.67ZM721.55 287.518C721.992 287.518 722.334 287.414 722.577 287.206C722.828 286.998 722.954 286.703 722.954 286.322C722.954 285.932 722.824 285.629 722.564 285.412C722.304 285.187 721.953 285.074 721.511 285.074H719.717V287.518H721.55ZM728.071 287.557H731.061V289H726.251V279.926H728.071V287.557ZM736.429 289.091C735.58 289.091 734.8 288.892 734.089 288.493C733.379 288.094 732.815 287.544 732.399 286.842C731.983 286.131 731.775 285.33 731.775 284.437C731.775 283.553 731.983 282.76 732.399 282.058C732.815 281.347 733.379 280.793 734.089 280.394C734.8 279.995 735.58 279.796 736.429 279.796C737.287 279.796 738.067 279.995 738.769 280.394C739.48 280.793 740.039 281.347 740.446 282.058C740.862 282.76 741.07 283.553 741.07 284.437C741.07 285.33 740.862 286.131 740.446 286.842C740.039 287.544 739.48 288.094 738.769 288.493C738.059 288.892 737.279 289.091 736.429 289.091ZM736.429 287.466C736.975 287.466 737.456 287.345 737.872 287.102C738.288 286.851 738.613 286.495 738.847 286.036C739.081 285.577 739.198 285.044 739.198 284.437C739.198 283.83 739.081 283.302 738.847 282.851C738.613 282.392 738.288 282.041 737.872 281.798C737.456 281.555 736.975 281.434 736.429 281.434C735.883 281.434 735.398 281.555 734.973 281.798C734.557 282.041 734.232 282.392 733.998 282.851C733.764 283.302 733.647 283.83 733.647 284.437C733.647 285.044 733.764 285.577 733.998 286.036C734.232 286.495 734.557 286.851 734.973 287.102C735.398 287.345 735.883 287.466 736.429 287.466ZM744.218 279.926V285.542C744.218 286.157 744.379 286.63 744.699 286.959C745.02 287.28 745.471 287.44 746.051 287.44C746.641 287.44 747.096 287.28 747.416 286.959C747.737 286.63 747.897 286.157 747.897 285.542V279.926H749.73V285.529C749.73 286.3 749.561 286.955 749.223 287.492C748.894 288.021 748.448 288.419 747.884 288.688C747.33 288.957 746.71 289.091 746.025 289.091C745.349 289.091 744.734 288.957 744.179 288.688C743.633 288.419 743.2 288.021 742.879 287.492C742.559 286.955 742.398 286.3 742.398 285.529V279.926H744.218ZM754.622 289.091C753.989 289.091 753.417 288.983 752.906 288.766C752.403 288.549 752.004 288.237 751.71 287.83C751.415 287.423 751.263 286.942 751.255 286.387H753.205C753.231 286.76 753.361 287.054 753.595 287.271C753.837 287.488 754.167 287.596 754.583 287.596C755.007 287.596 755.341 287.496 755.584 287.297C755.826 287.089 755.948 286.82 755.948 286.491C755.948 286.222 755.865 286.001 755.701 285.828C755.536 285.655 755.328 285.52 755.077 285.425C754.834 285.321 754.496 285.208 754.063 285.087C753.473 284.914 752.992 284.745 752.62 284.58C752.256 284.407 751.939 284.151 751.671 283.813C751.411 283.466 751.281 283.007 751.281 282.435C751.281 281.898 751.415 281.43 751.684 281.031C751.952 280.632 752.329 280.329 752.815 280.121C753.3 279.904 753.855 279.796 754.479 279.796C755.415 279.796 756.173 280.026 756.754 280.485C757.343 280.936 757.668 281.568 757.729 282.383H755.727C755.709 282.071 755.575 281.815 755.324 281.616C755.081 281.408 754.756 281.304 754.349 281.304C753.993 281.304 753.707 281.395 753.491 281.577C753.283 281.759 753.179 282.023 753.179 282.37C753.179 282.613 753.257 282.816 753.413 282.981C753.577 283.137 753.777 283.267 754.011 283.371C754.253 283.466 754.591 283.579 755.025 283.709C755.614 283.882 756.095 284.056 756.468 284.229C756.84 284.402 757.161 284.662 757.43 285.009C757.698 285.356 757.833 285.811 757.833 286.374C757.833 286.859 757.707 287.31 757.456 287.726C757.204 288.142 756.836 288.476 756.351 288.727C755.865 288.97 755.289 289.091 754.622 289.091ZM761.231 281.395V283.67H764.286V285.113H761.231V287.518H764.676V289H759.411V279.913H764.676V281.395H761.231Z" fill="black"/>
<path d="M379.96 155.04V169H377.16V163.06H371.18V169H368.38V155.04H371.18V160.78H377.16V155.04H379.96ZM391.276 166.34H385.716L384.796 169H381.856L386.876 155.02H390.136L395.156 169H392.196L391.276 166.34ZM390.516 164.1L388.496 158.26L386.476 164.1H390.516ZM404.232 169L401.152 163.56H399.832V169H397.032V155.04H402.272C403.352 155.04 404.272 155.233 405.032 155.62C405.792 155.993 406.359 156.507 406.732 157.16C407.119 157.8 407.312 158.52 407.312 159.32C407.312 160.24 407.046 161.073 406.512 161.82C405.979 162.553 405.186 163.06 404.132 163.34L407.472 169H404.232ZM399.832 161.46H402.172C402.932 161.46 403.499 161.28 403.872 160.92C404.246 160.547 404.432 160.033 404.432 159.38C404.432 158.74 404.246 158.247 403.872 157.9C403.499 157.54 402.932 157.36 402.172 157.36H399.832V161.46ZM419.565 159.24C419.245 158.653 418.805 158.207 418.245 157.9C417.685 157.593 417.032 157.44 416.285 157.44C415.458 157.44 414.725 157.627 414.085 158C413.445 158.373 412.945 158.907 412.585 159.6C412.225 160.293 412.045 161.093 412.045 162C412.045 162.933 412.225 163.747 412.585 164.44C412.958 165.133 413.472 165.667 414.125 166.04C414.778 166.413 415.538 166.6 416.405 166.6C417.472 166.6 418.345 166.32 419.025 165.76C419.705 165.187 420.152 164.393 420.365 163.38H415.565V161.24H423.125V163.68C422.938 164.653 422.538 165.553 421.925 166.38C421.312 167.207 420.518 167.873 419.545 168.38C418.585 168.873 417.505 169.12 416.305 169.12C414.958 169.12 413.738 168.82 412.645 168.22C411.565 167.607 410.712 166.76 410.085 165.68C409.472 164.6 409.165 163.373 409.165 162C409.165 160.627 409.472 159.4 410.085 158.32C410.712 157.227 411.565 156.38 412.645 155.78C413.738 155.167 414.952 154.86 416.285 154.86C417.858 154.86 419.225 155.247 420.385 156.02C421.545 156.78 422.345 157.853 422.785 159.24H419.565ZM433.756 166.34H428.196L427.276 169H424.336L429.356 155.02H432.616L437.636 169H434.676L433.756 166.34ZM432.996 164.1L430.976 158.26L428.956 164.1H432.996ZM367.611 187.154V185.724L371.862 179.64H373.981V185.568H375.125V187.154H373.981V189H372.161V187.154H367.611ZM372.278 181.59L369.613 185.568H372.278V181.59ZM384.711 189L381.409 184.957V189H379.589V179.926H381.409V183.995L384.711 179.926H386.908L383.164 184.424L387.012 189H384.711ZM396.182 176.689L392.672 191.353H390.891L394.401 176.689H396.182ZM402.751 189L399.449 184.957V189H397.629V179.926H399.449V183.995L402.751 179.926H404.948L401.204 184.424L405.052 189H402.751ZM409.071 181.681C409.608 181.681 410.08 181.789 410.488 182.006C410.895 182.214 411.216 182.487 411.45 182.825V181.798H413.283V189.052C413.283 189.719 413.148 190.313 412.88 190.833C412.611 191.362 412.208 191.778 411.671 192.081C411.133 192.393 410.483 192.549 409.721 192.549C408.698 192.549 407.857 192.311 407.199 191.834C406.549 191.357 406.18 190.707 406.094 189.884H407.901C407.996 190.213 408.2 190.473 408.512 190.664C408.832 190.863 409.218 190.963 409.669 190.963C410.197 190.963 410.626 190.803 410.956 190.482C411.285 190.17 411.45 189.693 411.45 189.052V187.934C411.216 188.272 410.891 188.554 410.475 188.779C410.067 189.004 409.599 189.117 409.071 189.117C408.464 189.117 407.909 188.961 407.407 188.649C406.904 188.337 406.505 187.899 406.211 187.336C405.925 186.764 405.782 186.11 405.782 185.373C405.782 184.645 405.925 183.999 406.211 183.436C406.505 182.873 406.9 182.439 407.394 182.136C407.896 181.833 408.455 181.681 409.071 181.681ZM411.45 185.399C411.45 184.957 411.363 184.58 411.19 184.268C411.016 183.947 410.782 183.705 410.488 183.54C410.193 183.367 409.877 183.28 409.539 183.28C409.201 183.28 408.889 183.362 408.603 183.527C408.317 183.692 408.083 183.934 407.901 184.255C407.727 184.567 407.641 184.94 407.641 185.373C407.641 185.806 407.727 186.188 407.901 186.517C408.083 186.838 408.317 187.085 408.603 187.258C408.897 187.431 409.209 187.518 409.539 187.518C409.877 187.518 410.193 187.436 410.488 187.271C410.782 187.098 411.016 186.855 411.19 186.543C411.363 186.222 411.45 185.841 411.45 185.399ZM374.059 201.096H369.847V203.319C370.029 203.094 370.289 202.912 370.627 202.773C370.965 202.626 371.325 202.552 371.706 202.552C372.399 202.552 372.967 202.704 373.409 203.007C373.851 203.31 374.172 203.7 374.371 204.177C374.57 204.645 374.67 205.148 374.67 205.685C374.67 206.682 374.384 207.483 373.812 208.09C373.249 208.697 372.443 209 371.394 209C370.406 209 369.617 208.753 369.028 208.259C368.439 207.765 368.105 207.119 368.027 206.322H369.795C369.873 206.669 370.046 206.946 370.315 207.154C370.592 207.362 370.943 207.466 371.368 207.466C371.879 207.466 372.265 207.306 372.525 206.985C372.785 206.664 372.915 206.24 372.915 205.711C372.915 205.174 372.781 204.766 372.512 204.489C372.252 204.203 371.866 204.06 371.355 204.06C370.991 204.06 370.688 204.151 370.445 204.333C370.202 204.515 370.029 204.758 369.925 205.061H368.183V199.497H374.059V201.096ZM384.483 209L381.181 204.957V209H379.361V199.926H381.181V203.995L384.483 199.926H386.68L382.936 204.424L386.784 209H384.483ZM395.954 196.689L392.444 211.353H390.663L394.173 196.689H395.954ZM402.523 209L399.221 204.957V209H397.401V199.926H399.221V203.995L402.523 199.926H404.72L400.976 204.424L404.824 209H402.523ZM408.842 201.681C409.379 201.681 409.852 201.789 410.259 202.006C410.666 202.214 410.987 202.487 411.221 202.825V201.798H413.054V209.052C413.054 209.719 412.92 210.313 412.651 210.833C412.382 211.362 411.979 211.778 411.442 212.081C410.905 212.393 410.255 212.549 409.492 212.549C408.469 212.549 407.629 212.311 406.97 211.834C406.32 211.357 405.952 210.707 405.865 209.884H407.672C407.767 210.213 407.971 210.473 408.283 210.664C408.604 210.863 408.989 210.963 409.44 210.963C409.969 210.963 410.398 210.803 410.727 210.482C411.056 210.17 411.221 209.693 411.221 209.052V207.934C410.987 208.272 410.662 208.554 410.246 208.779C409.839 209.004 409.371 209.117 408.842 209.117C408.235 209.117 407.681 208.961 407.178 208.649C406.675 208.337 406.277 207.899 405.982 207.336C405.696 206.764 405.553 206.11 405.553 205.373C405.553 204.645 405.696 203.999 405.982 203.436C406.277 202.873 406.671 202.439 407.165 202.136C407.668 201.833 408.227 201.681 408.842 201.681ZM411.221 205.399C411.221 204.957 411.134 204.58 410.961 204.268C410.788 203.947 410.554 203.705 410.259 203.54C409.964 203.367 409.648 203.28 409.31 203.28C408.972 203.28 408.66 203.362 408.374 203.527C408.088 203.692 407.854 203.934 407.672 204.255C407.499 204.567 407.412 204.94 407.412 205.373C407.412 205.806 407.499 206.188 407.672 206.517C407.854 206.838 408.088 207.085 408.374 207.258C408.669 207.431 408.981 207.518 409.31 207.518C409.648 207.518 409.964 207.436 410.259 207.271C410.554 207.098 410.788 206.855 410.961 206.543C411.134 206.222 411.221 205.841 411.221 205.399ZM367.715 222.019C367.758 221.152 368.062 220.485 368.625 220.017C369.197 219.54 369.947 219.302 370.874 219.302C371.507 219.302 372.048 219.415 372.499 219.64C372.95 219.857 373.288 220.156 373.513 220.537C373.747 220.91 373.864 221.334 373.864 221.811C373.864 222.357 373.721 222.821 373.435 223.202C373.158 223.575 372.824 223.826 372.434 223.956V224.008C372.937 224.164 373.327 224.441 373.604 224.84C373.89 225.239 374.033 225.75 374.033 226.374C374.033 226.894 373.912 227.358 373.669 227.765C373.435 228.172 373.084 228.493 372.616 228.727C372.157 228.952 371.602 229.065 370.952 229.065C369.973 229.065 369.175 228.818 368.56 228.324C367.945 227.83 367.62 227.102 367.585 226.14H369.353C369.37 226.565 369.513 226.907 369.782 227.167C370.059 227.418 370.436 227.544 370.913 227.544C371.355 227.544 371.693 227.423 371.927 227.18C372.17 226.929 372.291 226.608 372.291 226.218C372.291 225.698 372.126 225.325 371.797 225.1C371.468 224.875 370.956 224.762 370.263 224.762H369.886V223.267H370.263C371.494 223.267 372.109 222.855 372.109 222.032C372.109 221.659 371.996 221.369 371.771 221.161C371.554 220.953 371.238 220.849 370.822 220.849C370.415 220.849 370.098 220.962 369.873 221.187C369.656 221.404 369.531 221.681 369.496 222.019H367.715ZM376.485 229.091C376.156 229.091 375.883 228.991 375.666 228.792C375.458 228.584 375.354 228.328 375.354 228.025C375.354 227.722 375.458 227.47 375.666 227.271C375.883 227.063 376.156 226.959 376.485 226.959C376.806 226.959 377.07 227.063 377.278 227.271C377.486 227.47 377.59 227.722 377.59 228.025C377.59 228.328 377.486 228.584 377.278 228.792C377.07 228.991 376.806 229.091 376.485 229.091ZM385.218 221.096H381.006V223.319C381.188 223.094 381.448 222.912 381.786 222.773C382.124 222.626 382.484 222.552 382.865 222.552C383.559 222.552 384.126 222.704 384.568 223.007C385.01 223.31 385.331 223.7 385.53 224.177C385.73 224.645 385.829 225.148 385.829 225.685C385.829 226.682 385.543 227.483 384.971 228.09C384.408 228.697 383.602 229 382.553 229C381.565 229 380.777 228.753 380.187 228.259C379.598 227.765 379.264 227.119 379.186 226.322H380.954C381.032 226.669 381.206 226.946 381.474 227.154C381.752 227.362 382.103 227.466 382.527 227.466C383.039 227.466 383.424 227.306 383.684 226.985C383.944 226.664 384.074 226.24 384.074 225.711C384.074 225.174 383.94 224.766 383.671 224.489C383.411 224.203 383.026 224.06 382.514 224.06C382.15 224.06 381.847 224.151 381.604 224.333C381.362 224.515 381.188 224.758 381.084 225.061H379.342V219.497H385.218V221.096ZM395.642 229L392.34 224.957V229H390.52V219.926H392.34V223.995L395.642 219.926H397.839L394.095 224.424L397.943 229H395.642ZM407.113 216.689L403.603 231.353H401.822L405.332 216.689H407.113ZM413.682 229L410.38 224.957V229H408.56V219.926H410.38V223.995L413.682 219.926H415.879L412.135 224.424L415.983 229H413.682ZM420.001 221.681C420.539 221.681 421.011 221.789 421.418 222.006C421.826 222.214 422.146 222.487 422.38 222.825V221.798H424.213V229.052C424.213 229.719 424.079 230.313 423.81 230.833C423.542 231.362 423.139 231.778 422.601 232.081C422.064 232.393 421.414 232.549 420.651 232.549C419.629 232.549 418.788 232.311 418.129 231.834C417.479 231.357 417.111 230.707 417.024 229.884H418.831C418.927 230.213 419.13 230.473 419.442 230.664C419.763 230.863 420.149 230.963 420.599 230.963C421.128 230.963 421.557 230.803 421.886 230.482C422.216 230.17 422.38 229.693 422.38 229.052V227.934C422.146 228.272 421.821 228.554 421.405 228.779C420.998 229.004 420.53 229.117 420.001 229.117C419.395 229.117 418.84 228.961 418.337 228.649C417.835 228.337 417.436 227.899 417.141 227.336C416.855 226.764 416.712 226.11 416.712 225.373C416.712 224.645 416.855 223.999 417.141 223.436C417.436 222.873 417.83 222.439 418.324 222.136C418.827 221.833 419.386 221.681 420.001 221.681ZM422.38 225.399C422.38 224.957 422.294 224.58 422.12 224.268C421.947 223.947 421.713 223.705 421.418 223.54C421.124 223.367 420.807 223.28 420.469 223.28C420.131 223.28 419.819 223.362 419.533 223.527C419.247 223.692 419.013 223.934 418.831 224.255C418.658 224.567 418.571 224.94 418.571 225.373C418.571 225.806 418.658 226.188 418.831 226.517C419.013 226.838 419.247 227.085 419.533 227.258C419.828 227.431 420.14 227.518 420.469 227.518C420.807 227.518 421.124 227.436 421.418 227.271C421.713 227.098 421.947 226.855 422.12 226.543C422.294 226.222 422.38 225.841 422.38 225.399ZM368.261 296.946C369.093 296.253 369.756 295.676 370.25 295.217C370.744 294.749 371.156 294.264 371.485 293.761C371.814 293.258 371.979 292.764 371.979 292.279C371.979 291.837 371.875 291.49 371.667 291.239C371.459 290.988 371.138 290.862 370.705 290.862C370.272 290.862 369.938 291.009 369.704 291.304C369.47 291.59 369.349 291.984 369.34 292.487H367.572C367.607 291.447 367.914 290.658 368.495 290.121C369.084 289.584 369.83 289.315 370.731 289.315C371.719 289.315 372.477 289.579 373.006 290.108C373.535 290.628 373.799 291.317 373.799 292.175C373.799 292.851 373.617 293.497 373.253 294.112C372.889 294.727 372.473 295.265 372.005 295.724C371.537 296.175 370.926 296.721 370.172 297.362H374.007V298.87H367.585V297.518L368.261 296.946ZM381.524 291.096H377.312V293.319C377.494 293.094 377.754 292.912 378.092 292.773C378.43 292.626 378.79 292.552 379.171 292.552C379.864 292.552 380.432 292.704 380.874 293.007C381.316 293.31 381.637 293.7 381.836 294.177C382.035 294.645 382.135 295.148 382.135 295.685C382.135 296.682 381.849 297.483 381.277 298.09C380.714 298.697 379.908 299 378.859 299C377.871 299 377.082 298.753 376.493 298.259C375.904 297.765 375.57 297.119 375.492 296.322H377.26C377.338 296.669 377.511 296.946 377.78 297.154C378.057 297.362 378.408 297.466 378.833 297.466C379.344 297.466 379.73 297.306 379.99 296.985C380.25 296.664 380.38 296.24 380.38 295.711C380.38 295.174 380.246 294.766 379.977 294.489C379.717 294.203 379.331 294.06 378.82 294.06C378.456 294.06 378.153 294.151 377.91 294.333C377.667 294.515 377.494 294.758 377.39 295.061H375.648V289.497H381.524V291.096ZM391.948 299L388.646 294.957V299H386.826V289.926H388.646V293.995L391.948 289.926H394.145L390.401 294.424L394.249 299H391.948ZM367.468 311.2V309.523H370.601V319H368.729V311.2H367.468ZM376.819 319.091C375.97 319.091 375.19 318.892 374.479 318.493C373.768 318.094 373.205 317.544 372.789 316.842C372.373 316.131 372.165 315.33 372.165 314.437C372.165 313.553 372.373 312.76 372.789 312.058C373.205 311.347 373.768 310.793 374.479 310.394C375.19 309.995 375.97 309.796 376.819 309.796C377.677 309.796 378.457 309.995 379.159 310.394C379.87 310.793 380.429 311.347 380.836 312.058C381.252 312.76 381.46 313.553 381.46 314.437C381.46 315.33 381.252 316.131 380.836 316.842C380.429 317.544 379.87 318.094 379.159 318.493C378.448 318.892 377.668 319.091 376.819 319.091ZM376.819 317.466C377.365 317.466 377.846 317.345 378.262 317.102C378.678 316.851 379.003 316.495 379.237 316.036C379.471 315.577 379.588 315.044 379.588 314.437C379.588 313.83 379.471 313.302 379.237 312.851C379.003 312.392 378.678 312.041 378.262 311.798C377.846 311.555 377.365 311.434 376.819 311.434C376.273 311.434 375.788 311.555 375.363 311.798C374.947 312.041 374.622 312.392 374.388 312.851C374.154 313.302 374.037 313.83 374.037 314.437C374.037 315.044 374.154 315.577 374.388 316.036C374.622 316.495 374.947 316.851 375.363 317.102C375.788 317.345 376.273 317.466 376.819 317.466ZM391.034 319L387.732 314.957V319H385.912V309.926H387.732V313.995L391.034 309.926H393.231L389.487 314.424L393.335 319H391.034ZM367.468 331.2V329.523H370.601V339H368.729V331.2H367.468ZM373.985 333.982C373.118 333.531 372.685 332.834 372.685 331.889C372.685 331.421 372.802 330.996 373.036 330.615C373.279 330.225 373.638 329.917 374.115 329.692C374.6 329.458 375.19 329.341 375.883 329.341C376.576 329.341 377.161 329.458 377.638 329.692C378.123 329.917 378.483 330.225 378.717 330.615C378.96 330.996 379.081 331.421 379.081 331.889C379.081 332.366 378.964 332.786 378.73 333.15C378.496 333.505 378.184 333.783 377.794 333.982C378.271 334.19 378.643 334.493 378.912 334.892C379.181 335.291 379.315 335.763 379.315 336.309C379.315 336.898 379.163 337.414 378.86 337.856C378.565 338.289 378.158 338.623 377.638 338.857C377.118 339.091 376.533 339.208 375.883 339.208C375.233 339.208 374.648 339.091 374.128 338.857C373.617 338.623 373.209 338.289 372.906 337.856C372.611 337.414 372.464 336.898 372.464 336.309C372.464 335.763 372.598 335.291 372.867 334.892C373.136 334.485 373.508 334.181 373.985 333.982ZM377.313 332.149C377.313 331.724 377.183 331.395 376.923 331.161C376.672 330.927 376.325 330.81 375.883 330.81C375.45 330.81 375.103 330.927 374.843 331.161C374.592 331.395 374.466 331.729 374.466 332.162C374.466 332.552 374.596 332.864 374.856 333.098C375.125 333.332 375.467 333.449 375.883 333.449C376.299 333.449 376.641 333.332 376.91 333.098C377.179 332.855 377.313 332.539 377.313 332.149ZM375.883 334.775C375.389 334.775 374.986 334.901 374.674 335.152C374.371 335.403 374.219 335.763 374.219 336.231C374.219 336.664 374.366 337.02 374.661 337.297C374.964 337.566 375.372 337.7 375.883 337.7C376.394 337.7 376.797 337.561 377.092 337.284C377.387 337.007 377.534 336.656 377.534 336.231C377.534 335.772 377.382 335.416 377.079 335.165C376.776 334.905 376.377 334.775 375.883 334.775ZM389.18 339L385.878 334.957V339H384.058V329.926H385.878V333.995L389.18 329.926H391.377L387.633 334.424L391.481 339H389.18ZM367.468 351.2V349.523H370.601V359H368.729V351.2H367.468ZM372.971 356.946C373.803 356.253 374.466 355.676 374.96 355.217C375.454 354.749 375.866 354.264 376.195 353.761C376.524 353.258 376.689 352.764 376.689 352.279C376.689 351.837 376.585 351.49 376.377 351.239C376.169 350.988 375.848 350.862 375.415 350.862C374.982 350.862 374.648 351.009 374.414 351.304C374.18 351.59 374.059 351.984 374.05 352.487H372.282C372.317 351.447 372.624 350.658 373.205 350.121C373.794 349.584 374.54 349.315 375.441 349.315C376.429 349.315 377.187 349.579 377.716 350.108C378.245 350.628 378.509 351.317 378.509 352.175C378.509 352.851 378.327 353.497 377.963 354.112C377.599 354.727 377.183 355.265 376.715 355.724C376.247 356.175 375.636 356.721 374.882 357.362H378.717V358.87H372.295V357.518L372.971 356.946ZM388.291 359L384.989 354.957V359H383.169V349.926H384.989V353.995L388.291 349.926H390.488L386.744 354.424L390.592 359H388.291ZM367.468 371.2V369.523H370.601V379H368.729V371.2H367.468ZM372.425 372.019C372.468 371.152 372.772 370.485 373.335 370.017C373.907 369.54 374.657 369.302 375.584 369.302C376.217 369.302 376.758 369.415 377.209 369.64C377.66 369.857 377.998 370.156 378.223 370.537C378.457 370.91 378.574 371.334 378.574 371.811C378.574 372.357 378.431 372.821 378.145 373.202C377.868 373.575 377.534 373.826 377.144 373.956V374.008C377.647 374.164 378.037 374.441 378.314 374.84C378.6 375.239 378.743 375.75 378.743 376.374C378.743 376.894 378.622 377.358 378.379 377.765C378.145 378.172 377.794 378.493 377.326 378.727C376.867 378.952 376.312 379.065 375.662 379.065C374.683 379.065 373.885 378.818 373.27 378.324C372.655 377.83 372.33 377.102 372.295 376.14H374.063C374.08 376.565 374.223 376.907 374.492 377.167C374.769 377.418 375.146 377.544 375.623 377.544C376.065 377.544 376.403 377.423 376.637 377.18C376.88 376.929 377.001 376.608 377.001 376.218C377.001 375.698 376.836 375.325 376.507 375.1C376.178 374.875 375.666 374.762 374.973 374.762H374.596V373.267H374.973C376.204 373.267 376.819 372.855 376.819 372.032C376.819 371.659 376.706 371.369 376.481 371.161C376.264 370.953 375.948 370.849 375.532 370.849C375.125 370.849 374.808 370.962 374.583 371.187C374.366 371.404 374.241 371.681 374.206 372.019H372.425ZM388.609 379L385.307 374.957V379H383.487V369.926H385.307V373.995L388.609 369.926H390.806L387.062 374.424L390.91 379H388.609ZM367.468 391.2V389.523H370.601V399H368.729V391.2H367.468ZM378.769 391.096H374.557V393.319C374.739 393.094 374.999 392.912 375.337 392.773C375.675 392.626 376.035 392.552 376.416 392.552C377.109 392.552 377.677 392.704 378.119 393.007C378.561 393.31 378.882 393.7 379.081 394.177C379.28 394.645 379.38 395.148 379.38 395.685C379.38 396.682 379.094 397.483 378.522 398.09C377.959 398.697 377.153 399 376.104 399C375.116 399 374.327 398.753 373.738 398.259C373.149 397.765 372.815 397.119 372.737 396.322H374.505C374.583 396.669 374.756 396.946 375.025 397.154C375.302 397.362 375.653 397.466 376.078 397.466C376.589 397.466 376.975 397.306 377.235 396.985C377.495 396.664 377.625 396.24 377.625 395.711C377.625 395.174 377.491 394.766 377.222 394.489C376.962 394.203 376.576 394.06 376.065 394.06C375.701 394.06 375.398 394.151 375.155 394.333C374.912 394.515 374.739 394.758 374.635 395.061H372.893V389.497H378.769V391.096ZM389.193 399L385.891 394.957V399H384.071V389.926H385.891V393.995L389.193 389.926H391.39L387.646 394.424L391.494 399H389.193Z" fill="black"/>
<path d="M1024.96 155.04V169H1022.16V163.06H1016.18V169H1013.38V155.04H1016.18V160.78H1022.16V155.04H1024.96ZM1036.28 166.34H1030.72L1029.8 169H1026.86L1031.88 155.02H1035.14L1040.16 169H1037.2L1036.28 166.34ZM1035.52 164.1L1033.5 158.26L1031.48 164.1H1035.52ZM1049.23 169L1046.15 163.56H1044.83V169H1042.03V155.04H1047.27C1048.35 155.04 1049.27 155.233 1050.03 155.62C1050.79 155.993 1051.36 156.507 1051.73 157.16C1052.12 157.8 1052.31 158.52 1052.31 159.32C1052.31 160.24 1052.05 161.073 1051.51 161.82C1050.98 162.553 1050.19 163.06 1049.13 163.34L1052.47 169H1049.23ZM1044.83 161.46H1047.17C1047.93 161.46 1048.5 161.28 1048.87 160.92C1049.25 160.547 1049.43 160.033 1049.43 159.38C1049.43 158.74 1049.25 158.247 1048.87 157.9C1048.5 157.54 1047.93 157.36 1047.17 157.36H1044.83V161.46ZM1064.56 159.24C1064.24 158.653 1063.8 158.207 1063.24 157.9C1062.68 157.593 1062.03 157.44 1061.28 157.44C1060.46 157.44 1059.72 157.627 1059.08 158C1058.44 158.373 1057.94 158.907 1057.58 159.6C1057.22 160.293 1057.04 161.093 1057.04 162C1057.04 162.933 1057.22 163.747 1057.58 164.44C1057.96 165.133 1058.47 165.667 1059.12 166.04C1059.78 166.413 1060.54 166.6 1061.4 166.6C1062.47 166.6 1063.34 166.32 1064.02 165.76C1064.7 165.187 1065.15 164.393 1065.36 163.38H1060.56V161.24H1068.12V163.68C1067.94 164.653 1067.54 165.553 1066.92 166.38C1066.31 167.207 1065.52 167.873 1064.54 168.38C1063.58 168.873 1062.5 169.12 1061.3 169.12C1059.96 169.12 1058.74 168.82 1057.64 168.22C1056.56 167.607 1055.71 166.76 1055.08 165.68C1054.47 164.6 1054.16 163.373 1054.16 162C1054.16 160.627 1054.47 159.4 1055.08 158.32C1055.71 157.227 1056.56 156.38 1057.64 155.78C1058.74 155.167 1059.95 154.86 1061.28 154.86C1062.86 154.86 1064.22 155.247 1065.38 156.02C1066.54 156.78 1067.34 157.853 1067.78 159.24H1064.56ZM1078.76 166.34H1073.2L1072.28 169H1069.34L1074.36 155.02H1077.62L1082.64 169H1079.68L1078.76 166.34ZM1078 164.1L1075.98 158.26L1073.96 164.1H1078ZM1019.06 181.096H1014.85V183.319C1015.03 183.094 1015.29 182.912 1015.63 182.773C1015.97 182.626 1016.32 182.552 1016.71 182.552C1017.4 182.552 1017.97 182.704 1018.41 183.007C1018.85 183.31 1019.17 183.7 1019.37 184.177C1019.57 184.645 1019.67 185.148 1019.67 185.685C1019.67 186.682 1019.38 187.483 1018.81 188.09C1018.25 188.697 1017.44 189 1016.39 189C1015.41 189 1014.62 188.753 1014.03 188.259C1013.44 187.765 1013.11 187.119 1013.03 186.322H1014.8C1014.87 186.669 1015.05 186.946 1015.32 187.154C1015.59 187.362 1015.94 187.466 1016.37 187.466C1016.88 187.466 1017.27 187.306 1017.53 186.985C1017.79 186.664 1017.92 186.24 1017.92 185.711C1017.92 185.174 1017.78 184.766 1017.51 184.489C1017.25 184.203 1016.87 184.06 1016.36 184.06C1015.99 184.06 1015.69 184.151 1015.45 184.333C1015.2 184.515 1015.03 184.758 1014.93 185.061H1013.18V179.497H1019.06V181.096ZM1021.06 184.138C1021.06 182.639 1021.32 181.464 1021.86 180.615C1022.41 179.766 1023.31 179.341 1024.57 179.341C1025.82 179.341 1026.72 179.766 1027.26 180.615C1027.8 181.464 1028.08 182.639 1028.08 184.138C1028.08 185.646 1027.8 186.829 1027.26 187.687C1026.72 188.545 1025.82 188.974 1024.57 188.974C1023.31 188.974 1022.41 188.545 1021.86 187.687C1021.32 186.829 1021.06 185.646 1021.06 184.138ZM1026.28 184.138C1026.28 183.497 1026.24 182.959 1026.15 182.526C1026.07 182.084 1025.91 181.724 1025.66 181.447C1025.41 181.17 1025.05 181.031 1024.57 181.031C1024.08 181.031 1023.71 181.17 1023.46 181.447C1023.22 181.724 1023.05 182.084 1022.97 182.526C1022.89 182.959 1022.85 183.497 1022.85 184.138C1022.85 184.797 1022.89 185.351 1022.97 185.802C1023.04 186.244 1023.21 186.604 1023.46 186.881C1023.71 187.15 1024.08 187.284 1024.57 187.284C1025.05 187.284 1025.42 187.15 1025.67 186.881C1025.92 186.604 1026.09 186.244 1026.16 185.802C1026.24 185.351 1026.28 184.797 1026.28 184.138ZM1037.89 189L1034.59 184.957V189H1032.77V179.926H1034.59V183.995L1037.89 179.926H1040.08L1036.34 184.424L1040.19 189H1037.89ZM1019.06 201.096H1014.85V203.319C1015.03 203.094 1015.29 202.912 1015.63 202.773C1015.97 202.626 1016.32 202.552 1016.71 202.552C1017.4 202.552 1017.97 202.704 1018.41 203.007C1018.85 203.31 1019.17 203.7 1019.37 204.177C1019.57 204.645 1019.67 205.148 1019.67 205.685C1019.67 206.682 1019.38 207.483 1018.81 208.09C1018.25 208.697 1017.44 209 1016.39 209C1015.41 209 1014.62 208.753 1014.03 208.259C1013.44 207.765 1013.11 207.119 1013.03 206.322H1014.8C1014.87 206.669 1015.05 206.946 1015.32 207.154C1015.59 207.362 1015.94 207.466 1016.37 207.466C1016.88 207.466 1017.27 207.306 1017.53 206.985C1017.79 206.664 1017.92 206.24 1017.92 205.711C1017.92 205.174 1017.78 204.766 1017.51 204.489C1017.25 204.203 1016.87 204.06 1016.36 204.06C1015.99 204.06 1015.69 204.151 1015.45 204.333C1015.2 204.515 1015.03 204.758 1014.93 205.061H1013.18V199.497H1019.06V201.096ZM1021.06 204.138C1021.06 202.639 1021.32 201.464 1021.86 200.615C1022.41 199.766 1023.31 199.341 1024.57 199.341C1025.82 199.341 1026.72 199.766 1027.26 200.615C1027.8 201.464 1028.08 202.639 1028.08 204.138C1028.08 205.646 1027.8 206.829 1027.26 207.687C1026.72 208.545 1025.82 208.974 1024.57 208.974C1023.31 208.974 1022.41 208.545 1021.86 207.687C1021.32 206.829 1021.06 205.646 1021.06 204.138ZM1026.28 204.138C1026.28 203.497 1026.24 202.959 1026.15 202.526C1026.07 202.084 1025.91 201.724 1025.66 201.447C1025.41 201.17 1025.05 201.031 1024.57 201.031C1024.08 201.031 1023.71 201.17 1023.46 201.447C1023.22 201.724 1023.05 202.084 1022.97 202.526C1022.89 202.959 1022.85 203.497 1022.85 204.138C1022.85 204.797 1022.89 205.351 1022.97 205.802C1023.04 206.244 1023.21 206.604 1023.46 206.881C1023.71 207.15 1024.08 207.284 1024.57 207.284C1025.05 207.284 1025.42 207.15 1025.67 206.881C1025.92 206.604 1026.09 206.244 1026.16 205.802C1026.24 205.351 1026.28 204.797 1026.28 204.138ZM1037.89 209L1034.59 204.957V209H1032.77V199.926H1034.59V203.995L1037.89 199.926H1040.08L1036.34 204.424L1040.19 209H1037.89ZM1019.06 221.096H1014.85V223.319C1015.03 223.094 1015.29 222.912 1015.63 222.773C1015.97 222.626 1016.32 222.552 1016.71 222.552C1017.4 222.552 1017.97 222.704 1018.41 223.007C1018.85 223.31 1019.17 223.7 1019.37 224.177C1019.57 224.645 1019.67 225.148 1019.67 225.685C1019.67 226.682 1019.38 227.483 1018.81 228.09C1018.25 228.697 1017.44 229 1016.39 229C1015.41 229 1014.62 228.753 1014.03 228.259C1013.44 227.765 1013.11 227.119 1013.03 226.322H1014.8C1014.87 226.669 1015.05 226.946 1015.32 227.154C1015.59 227.362 1015.94 227.466 1016.37 227.466C1016.88 227.466 1017.27 227.306 1017.53 226.985C1017.79 226.664 1017.92 226.24 1017.92 225.711C1017.92 225.174 1017.78 224.766 1017.51 224.489C1017.25 224.203 1016.87 224.06 1016.36 224.06C1015.99 224.06 1015.69 224.151 1015.45 224.333C1015.2 224.515 1015.03 224.758 1014.93 225.061H1013.18V219.497H1019.06V221.096ZM1021.06 224.138C1021.06 222.639 1021.32 221.464 1021.86 220.615C1022.41 219.766 1023.31 219.341 1024.57 219.341C1025.82 219.341 1026.72 219.766 1027.26 220.615C1027.8 221.464 1028.08 222.639 1028.08 224.138C1028.08 225.646 1027.8 226.829 1027.26 227.687C1026.72 228.545 1025.82 228.974 1024.57 228.974C1023.31 228.974 1022.41 228.545 1021.86 227.687C1021.32 226.829 1021.06 225.646 1021.06 224.138ZM1026.28 224.138C1026.28 223.497 1026.24 222.959 1026.15 222.526C1026.07 222.084 1025.91 221.724 1025.66 221.447C1025.41 221.17 1025.05 221.031 1024.57 221.031C1024.08 221.031 1023.71 221.17 1023.46 221.447C1023.22 221.724 1023.05 222.084 1022.97 222.526C1022.89 222.959 1022.85 223.497 1022.85 224.138C1022.85 224.797 1022.89 225.351 1022.97 225.802C1023.04 226.244 1023.21 226.604 1023.46 226.881C1023.71 227.15 1024.08 227.284 1024.57 227.284C1025.05 227.284 1025.42 227.15 1025.67 226.881C1025.92 226.604 1026.09 226.244 1026.16 225.802C1026.24 225.351 1026.28 224.797 1026.28 224.138ZM1037.89 229L1034.59 224.957V229H1032.77V219.926H1034.59V223.995L1037.89 219.926H1040.08L1036.34 224.424L1040.19 229H1037.89ZM1012.72 242.019C1012.76 241.152 1013.06 240.485 1013.62 240.017C1014.2 239.54 1014.95 239.302 1015.87 239.302C1016.51 239.302 1017.05 239.415 1017.5 239.64C1017.95 239.857 1018.29 240.156 1018.51 240.537C1018.75 240.91 1018.86 241.334 1018.86 241.811C1018.86 242.357 1018.72 242.821 1018.44 243.202C1018.16 243.575 1017.82 243.826 1017.43 243.956V244.008C1017.94 244.164 1018.33 244.441 1018.6 244.84C1018.89 245.239 1019.03 245.75 1019.03 246.374C1019.03 246.894 1018.91 247.358 1018.67 247.765C1018.44 248.172 1018.08 248.493 1017.62 248.727C1017.16 248.952 1016.6 249.065 1015.95 249.065C1014.97 249.065 1014.18 248.818 1013.56 248.324C1012.94 247.83 1012.62 247.102 1012.59 246.14H1014.35C1014.37 246.565 1014.51 246.907 1014.78 247.167C1015.06 247.418 1015.44 247.544 1015.91 247.544C1016.36 247.544 1016.69 247.423 1016.93 247.18C1017.17 246.929 1017.29 246.608 1017.29 246.218C1017.29 245.698 1017.13 245.325 1016.8 245.1C1016.47 244.875 1015.96 244.762 1015.26 244.762H1014.89V243.267H1015.26C1016.49 243.267 1017.11 242.855 1017.11 242.032C1017.11 241.659 1017 241.369 1016.77 241.161C1016.55 240.953 1016.24 240.849 1015.82 240.849C1015.41 240.849 1015.1 240.962 1014.87 241.187C1014.66 241.404 1014.53 241.681 1014.5 242.019H1012.72ZM1026.84 241.096H1022.63V243.319C1022.81 243.094 1023.07 242.912 1023.41 242.773C1023.75 242.626 1024.11 242.552 1024.49 242.552C1025.18 242.552 1025.75 242.704 1026.19 243.007C1026.63 243.31 1026.95 243.7 1027.15 244.177C1027.35 244.645 1027.45 245.148 1027.45 245.685C1027.45 246.682 1027.17 247.483 1026.59 248.09C1026.03 248.697 1025.22 249 1024.18 249C1023.19 249 1022.4 248.753 1021.81 248.259C1021.22 247.765 1020.89 247.119 1020.81 246.322H1022.58C1022.66 246.669 1022.83 246.946 1023.1 247.154C1023.37 247.362 1023.73 247.466 1024.15 247.466C1024.66 247.466 1025.05 247.306 1025.31 246.985C1025.57 246.664 1025.7 246.24 1025.7 245.711C1025.7 245.174 1025.56 244.766 1025.29 244.489C1025.03 244.203 1024.65 244.06 1024.14 244.06C1023.77 244.06 1023.47 244.151 1023.23 244.333C1022.98 244.515 1022.81 244.758 1022.71 245.061H1020.97V239.497H1026.84V241.096ZM1037.27 249L1033.96 244.957V249H1032.14V239.926H1033.96V243.995L1037.27 239.926H1039.46L1035.72 244.424L1039.57 249H1037.27ZM1012.61 267.154V265.724L1016.86 259.64H1018.98V265.568H1020.12V267.154H1018.98V269H1017.16V267.154H1012.61ZM1017.28 261.59L1014.61 265.568H1017.28V261.59ZM1021.28 264.138C1021.28 262.639 1021.55 261.464 1022.09 260.615C1022.64 259.766 1023.54 259.341 1024.79 259.341C1026.05 259.341 1026.95 259.766 1027.48 260.615C1028.03 261.464 1028.3 262.639 1028.3 264.138C1028.3 265.646 1028.03 266.829 1027.48 267.687C1026.95 268.545 1026.05 268.974 1024.79 268.974C1023.54 268.974 1022.64 268.545 1022.09 267.687C1021.55 266.829 1021.28 265.646 1021.28 264.138ZM1026.51 264.138C1026.51 263.497 1026.47 262.959 1026.38 262.526C1026.3 262.084 1026.14 261.724 1025.89 261.447C1025.64 261.17 1025.28 261.031 1024.79 261.031C1024.31 261.031 1023.94 261.17 1023.69 261.447C1023.45 261.724 1023.28 262.084 1023.19 262.526C1023.12 262.959 1023.08 263.497 1023.08 264.138C1023.08 264.797 1023.12 265.351 1023.19 265.802C1023.27 266.244 1023.44 266.604 1023.69 266.881C1023.94 267.15 1024.31 267.284 1024.79 267.284C1025.28 267.284 1025.65 267.15 1025.9 266.881C1026.15 266.604 1026.31 266.244 1026.39 265.802C1026.47 265.351 1026.51 264.797 1026.51 264.138ZM1038.12 269L1034.81 264.957V269H1032.99V259.926H1034.81V263.995L1038.12 259.926H1040.31L1036.57 264.424L1040.42 269H1038.12ZM1012.72 282.019C1012.76 281.152 1013.06 280.485 1013.62 280.017C1014.2 279.54 1014.95 279.302 1015.87 279.302C1016.51 279.302 1017.05 279.415 1017.5 279.64C1017.95 279.857 1018.29 280.156 1018.51 280.537C1018.75 280.91 1018.86 281.334 1018.86 281.811C1018.86 282.357 1018.72 282.821 1018.44 283.202C1018.16 283.575 1017.82 283.826 1017.43 283.956V284.008C1017.94 284.164 1018.33 284.441 1018.6 284.84C1018.89 285.239 1019.03 285.75 1019.03 286.374C1019.03 286.894 1018.91 287.358 1018.67 287.765C1018.44 288.172 1018.08 288.493 1017.62 288.727C1017.16 288.952 1016.6 289.065 1015.95 289.065C1014.97 289.065 1014.18 288.818 1013.56 288.324C1012.94 287.83 1012.62 287.102 1012.59 286.14H1014.35C1014.37 286.565 1014.51 286.907 1014.78 287.167C1015.06 287.418 1015.44 287.544 1015.91 287.544C1016.36 287.544 1016.69 287.423 1016.93 287.18C1017.17 286.929 1017.29 286.608 1017.29 286.218C1017.29 285.698 1017.13 285.325 1016.8 285.1C1016.47 284.875 1015.96 284.762 1015.26 284.762H1014.89V283.267H1015.26C1016.49 283.267 1017.11 282.855 1017.11 282.032C1017.11 281.659 1017 281.369 1016.77 281.161C1016.55 280.953 1016.24 280.849 1015.82 280.849C1015.41 280.849 1015.1 280.962 1014.87 281.187C1014.66 281.404 1014.53 281.681 1014.5 282.019H1012.72ZM1020.47 284.138C1020.47 282.639 1020.74 281.464 1021.28 280.615C1021.82 279.766 1022.72 279.341 1023.98 279.341C1025.24 279.341 1026.13 279.766 1026.67 280.615C1027.22 281.464 1027.49 282.639 1027.49 284.138C1027.49 285.646 1027.22 286.829 1026.67 287.687C1026.13 288.545 1025.24 288.974 1023.98 288.974C1022.72 288.974 1021.82 288.545 1021.28 287.687C1020.74 286.829 1020.47 285.646 1020.47 284.138ZM1025.7 284.138C1025.7 283.497 1025.65 282.959 1025.57 282.526C1025.49 282.084 1025.32 281.724 1025.07 281.447C1024.83 281.17 1024.47 281.031 1023.98 281.031C1023.5 281.031 1023.13 281.17 1022.88 281.447C1022.63 281.724 1022.47 282.084 1022.38 282.526C1022.3 282.959 1022.27 283.497 1022.27 284.138C1022.27 284.797 1022.3 285.351 1022.38 285.802C1022.46 286.244 1022.62 286.604 1022.88 286.881C1023.13 287.15 1023.5 287.284 1023.98 287.284C1024.47 287.284 1024.83 287.15 1025.09 286.881C1025.34 286.604 1025.5 286.244 1025.58 285.802C1025.66 285.351 1025.7 284.797 1025.7 284.138ZM1037.3 289L1034 284.957V289H1032.18V279.926H1034V283.995L1037.3 279.926H1039.5L1035.76 284.424L1039.6 289H1037.3Z" fill="black"/>
</g>
<defs>
<filter id="filter0_d_31_97" x="0" y="0" width="1259" height="526" filterUnits="userSpaceOnUse" color-interpolation-filters="sRGB">
<feFlood flood-opacity="0" result="BackgroundImageFix"/>
<feColorMatrix in="SourceAlpha" type="matrix" values="0 0 0 0 0 0 0 0 0 0 0 0 0 0 0 0 0 0 127 0" result="hardAlpha"/>
<feOffset dy="4"/>
<feGaussianBlur stdDeviation="25"/>
<feComposite in2="hardAlpha" operator="out"/>
<feColorMatrix type="matrix" values="0 0 0 0 0 0 0 0 0 0 0 0 0 0 0 0 0 0 0.25 0"/>
<feBlend mode="normal" in2="BackgroundImageFix" result="effect1_dropShadow_31_97"/>
<feBlend mode="normal" in="SourceGraphic" in2="effect1_dropShadow_31_97" result="shape"/>
</filter>
<filter id="filter1_d_31_97" x="46" y="46" width="1167" height="434" filterUnits="userSpaceOnUse" color-interpolation-filters="sRGB">
<feFlood flood-opacity="0" result="BackgroundImageFix"/>
<feColorMatrix in="SourceAlpha" type="matrix" values="0 0 0 0 0 0 0 0 0 0 0 0 0 0 0 0 0 0 127 0" result="hardAlpha"/>
<feOffset dy="4"/>
<feGaussianBlur stdDeviation="2"/>
<feComposite in2="hardAlpha" operator="out"/>
<feColorMatrix type="matrix" values="0 0 0 0 0 0 0 0 0 0 0 0 0 0 0 0 0 0 0.25 0"/>
<feBlend mode="normal" in2="BackgroundImageFix" result="effect1_dropShadow_31_97"/>
<feBlend mode="normal" in="SourceGraphic" in2="effect1_dropShadow_31_97" result="shape"/>
</filter>
</defs>
</svg>
