<svg width="25" height="24" viewBox="0 0 25 24" fill="none" xmlns="http://www.w3.org/2000/svg">
<path d="M22.8781 6.89062C22.6626 6.7135 22.4021 6.59959 22.1258 6.56152C21.8494 6.52346 21.5679 6.56274 21.3125 6.675L16.5687 8.78437L13.8125 3.81562C13.6807 3.58365 13.4899 3.39073 13.2593 3.25652C13.0288 3.12231 12.7668 3.05161 12.5 3.05161C12.2332 3.05161 11.9712 3.12231 11.7406 3.25652C11.5101 3.39073 11.3192 3.58365 11.1875 3.81562L8.43123 8.78437L3.68748 6.675C3.43202 6.56074 3.14968 6.52023 2.8724 6.55805C2.59512 6.59586 2.33394 6.71048 2.1184 6.88896C1.90286 7.06745 1.74154 7.30267 1.65269 7.56804C1.56383 7.8334 1.55099 8.11834 1.6156 8.39062L3.99685 18.5437C4.04239 18.7403 4.12735 18.9256 4.2466 19.0883C4.36585 19.2511 4.5169 19.388 4.6906 19.4906C4.92577 19.6314 5.19465 19.7059 5.46873 19.7062C5.60196 19.706 5.7345 19.6871 5.86248 19.65C10.2029 18.45 14.7876 18.45 19.1281 19.65C19.5244 19.7542 19.9459 19.6969 20.3 19.4906C20.4747 19.3893 20.6266 19.2528 20.746 19.0898C20.8654 18.9269 20.9498 18.7409 20.9937 18.5437L23.3844 8.39062C23.4482 8.11826 23.4347 7.83346 23.3452 7.5684C23.2558 7.30333 23.094 7.06857 22.8781 6.89062ZM19.5312 18.2062C14.9272 16.9312 10.0633 16.9312 5.45935 18.2062L3.0781 8.05312L7.82185 10.1531C8.16224 10.3079 8.54856 10.3282 8.90328 10.2099C9.25801 10.0917 9.55489 9.84365 9.73435 9.51562L12.5 4.54687L15.2656 9.51562C15.4451 9.84365 15.7419 10.0917 16.0967 10.2099C16.4514 10.3282 16.8377 10.3079 17.1781 10.1531L21.9219 8.05312L19.5312 18.2062Z" fill="#162719"/>
</svg>
