<svg width="35" height="35" viewBox="0 0 35 35" fill="none" xmlns="http://www.w3.org/2000/svg">
<path d="M28.1604 27.5625C28.802 26.5562 29.1666 25.3458 29.1666 24.0625C29.1666 20.4167 26.25 17.5 22.6041 17.5C18.9583 17.5 16.0416 20.4167 16.0416 24.0625C16.0416 27.7083 18.9583 30.625 22.6041 30.625C23.8729 30.625 25.0687 30.2604 26.075 29.6333L30.625 34.1104L32.652 32.0833L28.1604 27.5625ZM22.6041 27.7083C21.6372 27.7083 20.7099 27.3242 20.0261 26.6405C19.3424 25.9568 18.9583 25.0294 18.9583 24.0625C18.9583 23.0956 19.3424 22.1682 20.0261 21.4845C20.7099 20.8008 21.6372 20.4167 22.6041 20.4167C23.5711 20.4167 24.4984 20.8008 25.1821 21.4845C25.8658 22.1682 26.25 23.0956 26.25 24.0625C26.25 25.0294 25.8658 25.9568 25.1821 26.6405C24.4984 27.3242 23.5711 27.7083 22.6041 27.7083ZM7.29163 29.1667V17.5H2.91663L17.5 4.375L32.0833 17.5H29.4291C27.7083 15.7063 25.2875 14.5833 22.6041 14.5833C17.3833 14.5833 13.125 18.8417 13.125 24.0625C13.125 25.9438 13.6791 27.7083 14.627 29.1667H7.29163Z" fill="black"/>
</svg>
