<svg width="26" height="26" viewBox="0 0 26 26" fill="none" xmlns="http://www.w3.org/2000/svg">
<path d="M12.8984 15.8438C13.6526 15.8438 14.376 15.5441 14.9093 15.0108C15.4426 14.4775 15.7422 13.7542 15.7422 13C15.7422 12.9167 15.7384 12.8342 15.7313 12.7527L12.6511 15.8328C12.7326 15.8399 12.8149 15.8438 12.8984 15.8438ZM22.3113 4.20367L21.2266 3.12C21.1885 3.08194 21.1368 3.06055 21.083 3.06055C21.0291 3.06055 20.9775 3.08194 20.9394 3.12L18.1637 5.89647C16.6325 5.11393 14.9112 4.72266 13 4.72266C8.11992 4.72266 4.47891 7.26426 2.07695 12.3475C1.98041 12.5519 1.93034 12.7752 1.93034 13.0013C1.93034 13.2274 1.98041 13.4506 2.07695 13.6551C3.03672 15.6767 4.19242 17.297 5.54404 18.5161L2.85797 21.2012C2.81991 21.2393 2.79852 21.2909 2.79852 21.3448C2.79852 21.3986 2.81991 21.4503 2.85797 21.4883L3.9419 22.5723C3.97999 22.6103 4.03163 22.6317 4.08548 22.6317C4.13933 22.6317 4.19097 22.6103 4.22906 22.5723L22.3113 4.49109C22.3301 4.47223 22.3451 4.44983 22.3553 4.42517C22.3656 4.40051 22.3708 4.37408 22.3708 4.34738C22.3708 4.32069 22.3656 4.29426 22.3553 4.2696C22.3451 4.24494 22.3301 4.22254 22.3113 4.20367ZM8.42969 13C8.42962 12.2281 8.62947 11.4694 9.00978 10.7978C9.39009 10.1261 9.93789 9.56439 10.5998 9.16736C11.2617 8.77033 12.0152 8.55152 12.7868 8.53224C13.5584 8.51296 14.3219 8.69387 15.0028 9.05734L13.7683 10.2918C13.2705 10.1324 12.7383 10.1132 12.2303 10.2363C11.7222 10.3595 11.2579 10.6202 10.8882 10.9898C10.5186 11.3594 10.2579 11.8238 10.1348 12.3318C10.0117 12.8399 10.0309 13.372 10.1903 13.8699L8.95578 15.1044C8.60935 14.4571 8.42861 13.7341 8.42969 13Z" fill="#0071B8"/>
<path d="M23.923 12.3449C23.0293 10.4626 21.9655 8.92777 20.7317 7.74033L17.0719 11.4004C17.3804 12.2068 17.4488 13.0854 17.2688 13.9298C17.0888 14.7743 16.6681 15.5486 16.0575 16.1591C15.447 16.7697 14.6727 17.1903 13.8283 17.3703C12.9838 17.5503 12.1053 17.482 11.2988 17.1735L8.19457 20.2777C9.63473 20.9441 11.2365 21.2773 13 21.2773C17.8801 21.2773 21.5211 18.7357 23.923 13.6525C24.0196 13.4481 24.0697 13.2248 24.0697 12.9987C24.0697 12.7726 24.0196 12.5494 23.923 12.3449Z" fill="#0071B8"/>
</svg>
