<svg width="22" height="22" viewBox="0 0 22 22" fill="none" xmlns="http://www.w3.org/2000/svg">
<path d="M11 0.166656C5.00917 0.166656 0.166672 5.00916 0.166672 11C0.166672 16.9908 5.00917 21.8333 11 21.8333C16.9908 21.8333 21.8333 16.9908 21.8333 11C21.8333 5.00916 16.9908 0.166656 11 0.166656ZM14.3583 5.65916C14.51 5.65916 14.6617 5.71332 14.7917 5.83249L16.1675 7.20832C16.4167 7.44666 16.4167 7.82582 16.1675 8.05332L15.0842 9.13666L12.8633 6.91582L13.9467 5.83249C14.055 5.71332 14.2067 5.65916 14.3583 5.65916ZM12.2242 7.54416L14.4558 9.77582L7.89084 16.3408H5.65917V14.1092L12.2242 7.54416Z" fill="#0071B8"/>
</svg>
