<svg width="26" height="28" viewBox="0 0 26 28" fill="none" xmlns="http://www.w3.org/2000/svg">
<path d="M13 17.5C14.7949 17.5 16.25 15.933 16.25 14C16.25 12.067 14.7949 10.5 13 10.5C11.2051 10.5 9.75 12.067 9.75 14C9.75 15.933 11.2051 17.5 13 17.5Z" fill="#0071B8"/>
<path d="M24.9255 13.0484C23.5818 10.8106 21.8385 8.90969 19.8844 7.5507C17.7227 6.0457 15.3359 5.25 12.9827 5.25C10.8235 5.25 8.70035 5.91445 6.67215 7.22477C4.60383 8.56078 2.73 10.5126 1.10246 13.0255C0.918725 13.3095 0.817535 13.6459 0.811748 13.9919C0.805961 14.338 0.895839 14.6781 1.06996 14.9691C2.41109 17.2293 4.13715 19.133 6.06074 20.4734C8.22656 21.9844 10.5574 22.75 12.9827 22.75C15.3547 22.75 17.7465 21.9609 19.8991 20.4684C21.8522 19.1138 23.592 17.2058 24.9305 14.9494C25.0987 14.6652 25.1875 14.3351 25.1866 13.9981C25.1857 13.6612 25.0951 13.3316 24.9255 13.0484V13.0484ZM13 19.25C12.0358 19.25 11.0933 18.9421 10.2916 18.3652C9.4899 17.7883 8.86506 16.9684 8.49609 16.0091C8.12711 15.0498 8.03057 13.9942 8.21867 12.9758C8.40677 11.9574 8.87107 11.0219 9.55285 10.2877C10.2346 9.55346 11.1033 9.05345 12.0489 8.85088C12.9946 8.64831 13.9748 8.75227 14.8656 9.14963C15.7564 9.54699 16.5177 10.2199 17.0534 11.0833C17.5891 11.9466 17.875 12.9616 17.875 14C17.8735 15.3919 17.3594 16.7263 16.4455 17.7106C15.5316 18.6948 14.2925 19.2484 13 19.25V19.25Z" fill="#0071B8"/>
</svg>
