<svg width="22" height="22" viewBox="0 0 22 22" fill="none" xmlns="http://www.w3.org/2000/svg">
<path d="M11 0.166656C5.02 0.166656 0.166672 5.01999 0.166672 11C0.166672 16.98 5.02 21.8333 11 21.8333C16.98 21.8333 21.8333 16.98 21.8333 11C21.8333 5.01999 16.98 0.166656 11 0.166656ZM11 4.49999C13.0908 4.49999 14.7917 6.20082 14.7917 8.29166C14.7917 10.3825 13.0908 12.0833 11 12.0833C8.90917 12.0833 7.20834 10.3825 7.20834 8.29166C7.20834 6.20082 8.90917 4.49999 11 4.49999ZM11 19.6667C8.80084 19.6667 6.20084 18.7783 4.34834 16.5467C6.24591 15.0579 8.58809 14.2487 11 14.2487C13.4119 14.2487 15.7541 15.0579 17.6517 16.5467C15.7992 18.7783 13.1992 19.6667 11 19.6667Z" fill="#0071B8"/>
</svg>
