<svg width="21" height="21" viewBox="0 0 21 21" fill="none" xmlns="http://www.w3.org/2000/svg">
<path d="M11.2292 13.9375L13.9375 11.2291C14.1285 11.0382 14.224 10.7951 14.224 10.5C14.224 10.2048 14.1285 9.96179 13.9375 9.77081L11.2031 7.03644C11.0122 6.84547 10.7736 6.75415 10.4875 6.76248C10.2007 6.77151 9.96182 6.87151 9.77084 7.06248C9.57987 7.25345 9.48439 7.49651 9.48439 7.79165C9.48439 8.08679 9.57987 8.32984 9.77084 8.52081L10.7083 9.45831H7.34897C7.05383 9.45831 6.81077 9.55797 6.6198 9.75727C6.42883 9.95727 6.33334 10.2048 6.33334 10.5C6.33334 10.7951 6.43334 11.0423 6.63334 11.2416C6.83265 11.4416 7.07987 11.5416 7.37501 11.5416H10.7083L9.7448 12.5052C9.55383 12.6962 9.46251 12.9351 9.47084 13.2219C9.47987 13.508 9.57987 13.7465 9.77084 13.9375C9.96182 14.1285 10.2049 14.2239 10.5 14.2239C10.7951 14.2239 11.0382 14.1285 11.2292 13.9375ZM10.5 20.9166C9.05904 20.9166 7.70487 20.643 6.43751 20.0958C5.17015 19.5493 4.06772 18.8073 3.13022 17.8698C2.19272 16.9323 1.4507 15.8298 0.904177 14.5625C0.356955 13.2951 0.0833435 11.941 0.0833435 10.5C0.0833435 9.05901 0.356955 7.70484 0.904177 6.43748C1.4507 5.17012 2.19272 4.06769 3.13022 3.13019C4.06772 2.19269 5.17015 1.45033 6.43751 0.903105C7.70487 0.356577 9.05904 0.083313 10.5 0.083313C11.941 0.083313 13.2951 0.356577 14.5625 0.903105C15.8299 1.45033 16.9323 2.19269 17.8698 3.13019C18.8073 4.06769 19.5493 5.17012 20.0958 6.43748C20.6431 7.70484 20.9167 9.05901 20.9167 10.5C20.9167 11.941 20.6431 13.2951 20.0958 14.5625C19.5493 15.8298 18.8073 16.9323 17.8698 17.8698C16.9323 18.8073 15.8299 19.5493 14.5625 20.0958C13.2951 20.643 11.941 20.9166 10.5 20.9166Z" fill="#FFFAFA"/>
</svg>
