<svg width="39" height="38" viewBox="0 0 39 38" fill="none" xmlns="http://www.w3.org/2000/svg">
<path d="M20.6625 24.9375L25.5375 20.0625C25.8813 19.7188 26.0531 19.2812 26.0531 18.75C26.0531 18.2188 25.8813 17.7812 25.5375 17.4375L20.6156 12.5156C20.2719 12.1719 19.8425 12.0075 19.3275 12.0225C18.8113 12.0387 18.3813 12.2188 18.0375 12.5625C17.6938 12.9062 17.5219 13.3437 17.5219 13.875C17.5219 14.4062 17.6938 14.8438 18.0375 15.1875L19.725 16.875H13.6781C13.1469 16.875 12.7094 17.0544 12.3656 17.4131C12.0219 17.7731 11.85 18.2188 11.85 18.75C11.85 19.2812 12.03 19.7262 12.39 20.085C12.7488 20.445 13.1938 20.625 13.725 20.625H19.725L17.9906 22.3594C17.6469 22.7031 17.4825 23.1331 17.4975 23.6494C17.5138 24.1644 17.6938 24.5938 18.0375 24.9375C18.3813 25.2812 18.8188 25.4531 19.35 25.4531C19.8813 25.4531 20.3188 25.2812 20.6625 24.9375ZM19.35 37.5C16.7563 37.5 14.3188 37.0075 12.0375 36.0225C9.75626 35.0387 7.77188 33.7031 6.08438 32.0156C4.39688 30.3281 3.06126 28.3438 2.07751 26.0625C1.09251 23.7812 0.600006 21.3438 0.600006 18.75C0.600006 16.1562 1.09251 13.7188 2.07751 11.4375C3.06126 9.15625 4.39688 7.17188 6.08438 5.48438C7.77188 3.79688 9.75626 2.46062 12.0375 1.47562C14.3188 0.491875 16.7563 0 19.35 0C21.9438 0 24.3813 0.491875 26.6625 1.47562C28.9438 2.46062 30.9281 3.79688 32.6156 5.48438C34.3031 7.17188 35.6388 9.15625 36.6225 11.4375C37.6075 13.7188 38.1 16.1562 38.1 18.75C38.1 21.3438 37.6075 23.7812 36.6225 26.0625C35.6388 28.3438 34.3031 30.3281 32.6156 32.0156C30.9281 33.7031 28.9438 35.0387 26.6625 36.0225C24.3813 37.0075 21.9438 37.5 19.35 37.5Z" fill="#FFFAFA"/>
</svg>
