<svg width="38" height="32" viewBox="0 0 38 32" fill="none" xmlns="http://www.w3.org/2000/svg">
<path d="M37.5684 4.44888C36.2016 5.05608 34.7332 5.46448 33.192 5.64888C34.766 4.70608 35.9728 3.21368 36.5412 1.43408C35.07 2.30688 33.4392 2.94088 31.702 3.28368C30.3124 1.80248 28.3328 0.876879 26.1416 0.876879C21.2984 0.812079 17.5748 5.54368 18.7208 10.2309C12.3892 9.91368 6.77601 6.88008 3.01681 2.26928C0.965207 5.61488 2.13001 10.3993 5.37521 12.4417C4.12681 12.4017 2.95121 12.0589 1.92441 11.4889C1.87681 15.2109 4.51721 18.3533 8.03601 19.0545C6.95481 19.3561 5.70921 19.4033 4.59521 19.1857C5.56521 22.2121 8.37881 24.4161 11.7124 24.4773C8.69841 26.8857 4.47881 28.1413 0.432007 27.6325C16.7048 37.6473 34.694 24.5265 33.7652 8.39208C35.2544 7.31688 36.5472 5.97568 37.5684 4.44888Z" fill="#050303"/>
</svg>
