<svg width="40" height="40" viewBox="0 0 40 40" fill="none" xmlns="http://www.w3.org/2000/svg">
<path d="M36.1916 1.00511C30.3472 0.988705 8.7908 1.01631 3.8084 1.00511C2.258 1.00511 1 2.22471 1 3.72671V36.2791C1 37.7815 2.258 38.9999 3.8084 38.9999H36.1916C37.7428 38.9999 39 37.7815 39 36.2787V3.72671C39 2.22471 37.7428 1.00511 36.1916 1.00511Z" fill="black"/>
<path d="M21.3812 32.802C21.3812 32.802 21.3812 23.2508 21.3812 23.2504C21.3256 21.4952 22.3748 19.8572 24.486 19.7836C26.5432 19.7836 27.3664 21.352 27.3664 23.6516V32.8016H33.052V22.994C33.052 17.74 30.2472 15.2952 26.506 15.2952C23.4388 15.2952 22.0916 17.0092 21.3432 18.1768L21.3812 15.6968H15.6956C15.7696 17.3016 15.6952 32.802 15.6952 32.802H21.3812ZM12.548 25.3844V15.6964H6.86161V32.8016H12.5484C12.5472 31.0056 12.5504 27.1552 12.548 25.3844ZM9.70601 13.3616C11.6884 13.3616 12.9228 12.048 12.9228 10.4068C12.9064 6.44797 6.52121 6.49197 6.52641 10.4064C6.52201 12.0604 7.79041 13.382 9.70601 13.3616Z" fill="#77C852"/>
</svg>
