<svg width="47" height="47" viewBox="0 0 47 47" fill="none" xmlns="http://www.w3.org/2000/svg">
<circle cx="23.5" cy="23.5" r="22" fill="#0071B8" stroke="white" stroke-width="3"/>
<path d="M23 26.9167C25.2091 26.9167 27 25.4243 27 23.5833C27 21.7424 25.2091 20.25 23 20.25C20.7909 20.25 19 21.7424 19 23.5833C19 25.4243 20.7909 26.9167 23 26.9167Z" fill="white"/>
<path d="M28 12.4687C31.225 12.4687 33.8375 14.6458 33.8375 17.3333H35.5C35.5 13.8854 32.1375 11.0833 28 11.0833V12.4687ZM28 15.25C29.3875 15.25 30.5 16.1771 30.5 17.3333H32.1625C32.1625 15.4167 30.3 13.8646 28 13.8646V15.25" fill="white"/>
<path d="M29.25 18.375C29.25 17.2188 28.1375 16.2917 26.75 16.2917V13.1667H19.25L16.9625 15.25H13C11.625 15.25 10.5 16.1875 10.5 17.3333V29.8333C10.5 30.9792 11.625 31.9167 13 31.9167H33C34.375 31.9167 35.5 30.9792 35.5 29.8333V18.375H29.25ZM23 28.7917C19.55 28.7917 16.75 26.4583 16.75 23.5833C16.75 20.7083 19.55 18.375 23 18.375C26.45 18.375 29.25 20.7083 29.25 23.5833C29.25 26.4583 26.45 28.7917 23 28.7917Z" fill="white"/>
</svg>
