<svg width="40" height="40" viewBox="0 0 40 40" fill="none" xmlns="http://www.w3.org/2000/svg">
<path d="M20 3.33333C16.7036 3.33333 13.4813 4.31081 10.7405 6.14217C7.99966 7.97353 5.86346 10.5765 4.60199 13.6219C3.34053 16.6674 3.01048 20.0185 3.65357 23.2515C4.29665 26.4845 5.884 29.4542 8.21487 31.7851C10.5457 34.116 13.5155 35.7033 16.7485 36.3464C19.9815 36.9895 23.3326 36.6595 26.378 35.398C29.4235 34.1365 32.0265 32.0003 33.8578 29.2595C35.6892 26.5187 36.6667 23.2964 36.6667 20C36.6667 17.8113 36.2356 15.644 35.398 13.6219C34.5604 11.5998 33.3327 9.76253 31.7851 8.21488C30.2375 6.66724 28.4001 5.43958 26.378 4.602C24.356 3.76442 22.1887 3.33333 20 3.33333ZM27.1667 16.0167L19.55 26.0167C19.3947 26.2184 19.1953 26.3818 18.9671 26.4945C18.7389 26.6071 18.4879 26.666 18.2333 26.6667C17.9802 26.668 17.73 26.6117 17.5019 26.502C17.2738 26.3922 17.0736 26.232 16.9167 26.0333L12.85 20.85C12.7154 20.6771 12.6162 20.4794 12.558 20.2681C12.4998 20.0568 12.4838 19.8362 12.5108 19.6188C12.5379 19.4013 12.6076 19.1913 12.7158 19.0008C12.824 18.8103 12.9687 18.6429 13.1417 18.5083C13.4909 18.2365 13.9337 18.1145 14.3729 18.1692C14.5903 18.1963 14.8003 18.2659 14.9908 18.3742C15.1814 18.4824 15.3487 18.6271 15.4833 18.8L18.2 22.2667L24.5 13.9333C24.6335 13.7582 24.8002 13.6111 24.9905 13.5005C25.1809 13.3898 25.3912 13.3177 25.6094 13.2883C25.8276 13.2589 26.0495 13.2728 26.2624 13.3291C26.4752 13.3854 26.6749 13.4832 26.85 13.6167C27.0251 13.7502 27.1722 13.9169 27.2828 14.1072C27.3935 14.2976 27.4656 14.5079 27.495 14.7261C27.5244 14.9443 27.5106 15.1662 27.4542 15.379C27.3979 15.5919 27.3002 15.7916 27.1667 15.9667V16.0167Z" fill="white"/>
</svg>
